{
.appVersion = "3151";
DisplayStrings = (
E,
a
);
copyright = "Digitized data Copyright (c) 2011-2013, vernon adams.";
customParameters = (
{
name = typoAscender;
value = 2074;
},
{
name = typoDescender;
value = -605;
},
{
name = typoLineGap;
value = 0;
},
{
name = underlinePosition;
value = 0;
},
{
name = underlineThickness;
value = 0;
},
{
name = openTypeNameVersion;
value = "Version 2.0";
},
{
name = openTypeOS2FamilyClass;
value = (
0,
0
);
},
{
name = postscriptWeightName;
value = Regular;
},
{
name = winAscent;
value = 2074;
},
{
name = winDescent;
value = 605;
},
{
name = weightClass;
value = 400;
},
{
name = widthClass;
value = 5;
},
{
name = glyphOrder;
value = (
A,
Aacute,
Abreve,
Acircumflex,
Adieresis,
Agrave,
Amacron,
Aogonek,
Aring,
Atilde,
AE,
AEacute,
AEmacron,
B,
C,
Cacute,
Ccaron,
Ccedilla,
Ccircumflex,
Cdotaccent,
D,
Eth,
Dcaron,
Dcroat,
Dz,
E,
Eacute,
Ebreve,
Ecaron,
Ecircumflex,
Edieresis,
Edotaccent,
Egrave,
Emacron,
Eogonek,
F,
G,
Gbreve,
Gcaron,
Gcircumflex,
Gcommaaccent,
Gdotaccent,
H,
Hbar,
Hcircumflex,
I,
IJ,
Iacute,
Ibreve,
Icircumflex,
Idieresis,
Idotaccent,
Igrave,
Imacron,
Iogonek,
Itilde,
J,
Jcircumflex,
K,
Kcommaaccent,
L,
Lacute,
Lcaron,
Lcommaaccent,
Ldot,
Lslash,
M,
N,
Nacute,
Ncaron,
Ncommaaccent,
Eng,
Ntilde,
O,
Oacute,
Obreve,
Ocircumflex,
Odieresis,
Ograve,
Ohungarumlaut,
Omacron,
Oslash,
Oslashacute,
Otilde,
OE,
P,
Thorn,
Q,
R,
Racute,
Rcaron,
Rcommaaccent,
S,
Sacute,
Scaron,
Scedilla,
Scircumflex,
Scommaaccent,
T,
Tbar,
Tcaron,
Tcedilla,
Tcommaaccent,
U,
Uacute,
Ubreve,
Ucircumflex,
Udieresis,
Ugrave,
Uhungarumlaut,
Umacron,
Uogonek,
Uring,
Utilde,
V,
W,
Wacute,
Wcircumflex,
Wdieresis,
Wgrave,
X,
Y,
Yacute,
Ycircumflex,
Ydieresis,
Ygrave,
Z,
Zacute,
Zcaron,
Zdotaccent,
uni01C4,
uni01C5,
uni01C7,
uni01C8,
uni01CA,
uni01CB,
uni01CD,
uni01CF,
uni01D1,
uni01D3,
uni01E8,
uni01EA,
uni01F1,
uni01F2,
uni01F4,
uni01F8,
uni0200,
uni0202,
uni0204,
uni0206,
uni0208,
uni020A,
uni020C,
uni020E,
uni0210,
uni0212,
uni0214,
uni0216,

glyphs = (
{
glyphname = A;
layers = (
{
anchors = (
{
name = ogonek;
position = "{1134, 0}";
},
{
name = top;
position = "{631.5, 1464}";
}
);
layerId = "8E6A00A3-5EF9-4E6D-9A7B-9C1BBC7D44AD";
paths = (
{
closed = 1;
nodes = (
"204 0 LINE",
"327 391 LINE",
"923 391 LINE",
"1052 0 LINE",
"1234 0 LINE",
"757 1464 LINE",
"501 1464 LINE",
"29 0 LINE"
);
},
{
closed = 1;
nodes = (
"626 1349 LINE",
"882 521 LINE",
"367 521 LINE"
);
}
);
userData = {
com.typemytype.robofont.layerData = {
};
};
vertWidth = 0;
width = 1263;
},
{
anchors = (
{
name = ogonek;
position = "{1143, 0}";
},
{
name = top;
position = "{643, 1464}";
}
);
layerId = "8DE4C137-4DC6-43A7-909D-C9F8072E6A1C";
paths = (
{
closed = 1;
nodes = (
"233 0 LINE",
"352 383 LINE",
"918 383 LINE",
"1043 0 LINE",
"1257 0 LINE",
"788 1464 LINE",
"490 1464 LINE",
"28 0 LINE"
);
},
{
closed = 1;
nodes = (
"635 1330 LINE",
"871 534 LINE",
"397 534 LINE"
);
}
);
userData = {
com.typemytype.robofont.layerData = {
};
};
vertWidth = 0;
width = 1286;
},
{
anchors = (
{
name = bot;
position = "{653, 0}";
},
{
name = ogonek;
position = "{1150, 0}";
},
{
name = top;
position = "{653, 1464}";
}
);
layerId = "28683A17-BAD2-44EA-B42B-E882FFDD4FE1";
paths = (
{
closed = 1;
nodes = (
"259 0 LINE",
"373 376 LINE",
"914 376 LINE",
"1035 0 LINE",
"1278 0 LINE",
"816 1464 LINE",
"480 1464 LINE",
"28 0 LINE"
);
},
{
closed = 1;
nodes = (
"643 1313 LINE",
"862 545 LINE",
"423 545 LINE"
);
}
);
userData = {
com.typemytype.robofont.layerData = {
};
};
vertWidth = 0;
width = 1306;
},
{
anchors = (
{
name = ogonek;
position = "{1123, 0}";
},
{
name = top;
position = "{617, 1464}";
}
);
layerId = "E322F6D1-BA90-436B-BB35-51D9BD3EA9D1";
paths = (
{
closed = 1;
nodes = (
"168 0 LINE",
"297 401 LINE",
"928 401 LINE",
"1063 0 LINE",
"1205 0 LINE",
"717 1464 LINE",
"516 1464 LINE",
"29 0 LINE"
);
},
{
closed = 1;
nodes = (
"615 1373 LINE",
"896 505 LINE",
"330 505 LINE"
);
}
);
userData = {
com.typemytype.robofont.layerData = {
b = {
anchors = (
);
components = (
);
contours = (
);
lib = {
};
name = A;
unicodes = (
);
width = 1234;
};
};
};
vertWidth = 0;
width = 1234;
}
);
unicode = 0041;
},
{
glyphname = AE;
layers = (
{
anchors = (
{
name = top;
position = "{1315, 1464}";
}
);
layerId = "8E6A00A3-5EF9-4E6D-9A7B-9C1BBC7D44AD";
paths = (
{
closed = 1;
nodes = (
"152 0 LINE",
"387 387 LINE",
"974 387 LINE",
"974 0 LINE",
"2015 0 LINE",
"2015 134 LINE",
"1148 134 LINE",
"1148 712 LINE",
"1842 712 LINE",
"1843 850 LINE",
"1148 850 LINE",
"1148 1330 LINE",
"2005 1330 LINE",
"2005 1464 LINE",
"849 1464 LINE",
"-40 0 LINE"
);
},
{
closed = 1;
nodes = (
"974 1395 LINE",
"974 518 LINE",
"459 518 LINE"
);
}
);
userData = {
anchors = (
);
b = {
};
com.typemytype.robofont.layerData = {
};
components = (
);
contours = (
);
lib = {
};
name = AE;
unicodes = (
);
width = "2030";
};
vertWidth = 0;
width = 2030;
},
{
anchors = (
{
name = top;
position = "{1015, 1464}";
}
);
layerId = "8DE4C137-4DC6-43A7-909D-C9F8072E6A1C";
paths = (
{
closed = 1;
nodes = (
"179 0 LINE",
"402 375 LINE",
"974 375 LINE",
"974 0 LINE",
"2015 0 LINE",
"2015 157 LINE",
"1177 157 LINE",
"1177 701 LINE",
"1842 701 LINE",
"1843 862 LINE",
"1177 862 LINE",
"1177 1307 LINE",
"2005 1307 LINE",
"2005 1464 LINE",
"828 1464 LINE",
"-45 0 LINE"
);
},
{
closed = 1;
nodes = (
"974 1384 LINE",
"974 527 LINE",
"486 527 LINE"
);
}
);
userData = {
anchors = (
);
b = {
};
com.typemytype.robofont.layerData = {
};
components = (
);
contours = (
);
lib = {
};
name = AE;
unicodes = (
);
width = "2030";
};
vertWidth = 0;
width = 2030;
},
{
anchors = (
{
name = top;
position = "{1015, 1464}";
}
);
layerId = "28683A17-BAD2-44EA-B42B-E882FFDD4FE1";
paths = (
{
closed = 1;
nodes = (
"203 0 LINE",
"416 365 LINE",
"974 365 LINE",
"974 0 LINE",
"2015 0 LINE",
"2015 176 LINE",
"1203 176 LINE",
"1203 692 LINE",
"1842 692 LINE",
"1843 873 LINE",
"1203 873 LINE",
"1203 1288 LINE",
"2005 1288 LINE",
"2005 1464 LINE",
"809 1464 LINE",
"-49 0 LINE"
);
},
{
closed = 1;
nodes = (
"974 1374 LINE",
"974 536 LINE",
"510 536 LINE"
);
}
);
userData = {
anchors = (
);
b = {
};
com.typemytype.robofont.layerData = {
};
components = (
);
contours = (
);
lib = {
};
name = AE;
unicodes = (
);
width = "2030";
};
vertWidth = 0;
width = 2030;
},
{
anchors = (
{
name = top;
position = "{1015, 1464}";
}
);
layerId = "E322F6D1-BA90-436B-BB35-51D9BD3EA9D1";
paths = (
{
closed = 1;
nodes = (
"117 0 LINE",
"367 402 LINE",
"974 402 LINE",
"974 0 LINE",
"2015 0 LINE",
"2015 106 LINE",
"1111 106 LINE",
"1111 726 LINE",
"1842 726 LINE",
"1843 835 LINE",
"1111 835 LINE",
"1111 1358 LINE",
"2005 1358 LINE",
"2005 1464 LINE",
"875 1464 LINE",
"-35 0 LINE"
);
},
{
closed = 1;
nodes = (
"974 1409 LINE",
"974 506 LINE",
"424 506 LINE"
);
}
);
userData = {
anchors = (
);
b = {
};
com.typemytype.robofont.layerData = {
b = {
anchors = (
);
components = (
);
contours = (
);
lib = {
};
name = AE;
unicodes = (
);
width = 2030;
};
};
components = (
);
contours = (
);
lib = {
};
name = AE;
unicodes = (
);
width = "2030";
};
vertWidth = 0;
width = 2030;
}
);
unicode = 00C6;
},
{
glyphname = B;
layers = (
{
anchors = (
{
name = top;
position = "{657, 1464}";
}
);
layerId = "8E6A00A3-5EF9-4E6D-9A7B-9C1BBC7D44AD";
paths = (
{
closed = 1;
nodes = (
"557 0 LINE SMOOTH",
"1015 0 OFFCURVE",
"1231 85 OFFCURVE",
"1231 413 CURVE SMOOTH",
"1231 618 OFFCURVE",
"1148 754 OFFCURVE",
"921 780 CURVE",
"1135.87 808.114 OFFCURVE",
"1186.02 935.593 OFFCURVE",
"1186.02 1104.78 CURVE SMOOTH",
"1186.02 1416.48 OFFCURVE",
"893.471 1464 OFFCURVE",
"593 1464 CURVE SMOOTH",
"146 1464 LINE",
"146 0 LINE"
);
},
{
closed = 1;
nodes = (
"321 717 LINE",
"609 717 LINE SMOOTH",
"897 717 OFFCURVE",
"1057 684 OFFCURVE",
"1057 417 CURVE SMOOTH",
"1057 143 OFFCURVE",
"823 133 OFFCURVE",
"602 133 CURVE SMOOTH",
"321 133 LINE"
);
},
{
closed = 1;
nodes = (
"321 1331 LINE",
"600 1331 LINE SMOOTH",
"840.137 1331 OFFCURVE",
"1019.1 1326.32 OFFCURVE",
"1019.1 1094.62 CURVE SMOOTH",
"1019.1 871.119 OFFCURVE",
"900.885 845 OFFCURVE",
"595 845 CURVE SMOOTH",
"321 845 LINE"
);
}
);
userData = {
com.typemytype.robofont.layerData = {
};
};
vertWidth = 0;
width = 1314;
},
{
anchors = (
{
name = top;
position = "{662.5, 1464}";
}
);
layerId = "8DE4C137-4DC6-43A7-909D-C9F8072E6A1C";
paths = (
{
closed = 1;
nodes = (
"558 0 LINE SMOOTH",
"1016 0 OFFCURVE",
"1244 85 OFFCURVE",
"1244 413 CURVE SMOOTH",
"1244 609 OFFCURVE",
"1176 749 OFFCURVE",
"958 779 CURVE",
"1160.71 811.112 OFFCURVE",
"1197 943.528 OFFCURVE",
"1197 1106.54 CURVE SMOOTH",
"1197 1417.16 OFFCURVE",
"895.501 1464 OFFCURVE",
"594 1464 CURVE SMOOTH",
"139 1464 LINE",
"139 0 LINE"
);
},
{
closed = 1;
nodes = (
"344 704 LINE",
"625 704 LINE SMOOTH",
"901 704 OFFCURVE",
"1040 674 OFFCURVE",
"1040 418 CURVE SMOOTH",
"1040 160 OFFCURVE",
"812 154 OFFCURVE",
"591 154 CURVE SMOOTH",
"344 154 LINE"
);
},
{
closed = 1;
nodes = (
"344 1310 LINE",
"601 1310 LINE",
"614.666 1310 LINE SMOOTH",
"842.07 1310 OFFCURVE",
"993.176 1308.08 OFFCURVE",
"1002 1111 CURVE SMOOTH",
"1002.54 1099.25 OFFCURVE",
"1002.82 1088.03 OFFCURVE",
"1002.82 1077.29 CURVE SMOOTH",
"1002.82 888.806 OFFCURVE",
"916.351 853 OFFCURVE",
"624 853 CURVE SMOOTH",
"344 853 LINE"
);
}
);
userData = {
com.typemytype.robofont.layerData = {
};
};
vertWidth = 0;
width = 1325;
},
{
anchors = (
{
name = top;
position = "{667.5, 1464}";
}
);
layerId = "28683A17-BAD2-44EA-B42B-E882FFDD4FE1";
paths = (
{
closed = 1;
nodes = (
"560 0 LINE SMOOTH",
"1018 0 OFFCURVE",
"1256 85 OFFCURVE",
"1256 413 CURVE SMOOTH",
"1256 601 OFFCURVE",
"1201 744 OFFCURVE",
"990 777 CURVE",
"1181 813 OFFCURVE",
"1208 951 OFFCURVE",
"1207 1110 CURVE SMOOTH",
"1206 1417 OFFCURVE",
"898 1464 OFFCURVE",
"596 1464 CURVE SMOOTH",
"134 1464 LINE",
"134 0 LINE"
);
},
{
closed = 1;
nodes = (
"365 692 LINE",
"639 692 LINE SMOOTH",
"905 692 OFFCURVE",
"1026 665 OFFCURVE",
"1026 420 CURVE SMOOTH",
"1026 174 OFFCURVE",
"803 172 OFFCURVE",
"582 172 CURVE SMOOTH",
"365 172 LINE"
);
},
{
closed = 1;
nodes = (
"365 1292 LINE",
"603 1292 LINE SMOOTH",
"838 1292 OFFCURVE",
"975 1298 OFFCURVE",
"988 1116 CURVE SMOOTH",
"1002 911 OFFCURVE",
"957 860 OFFCURVE",
"650 860 CURVE SMOOTH",
"365 860 LINE"
);
}
);
userData = {
com.typemytype.robofont.layerData = {
};
};
vertWidth = 0;
width = 1335;
},
{
anchors = (
{
name = top;
position = "{650, 1464}";
}
);
layerId = "E322F6D1-BA90-436B-BB35-51D9BD3EA9D1";
paths = (
{
closed = 1;
nodes = (
"555 0 LINE SMOOTH",
"1013 0 OFFCURVE",
"1215 85 OFFCURVE",
"1215 413 CURVE SMOOTH",
"1215 629 OFFCURVE",
"1113 760 OFFCURVE",
"876 782 CURVE",
"1108.86 805.388 OFFCURVE",
"1171.13 926.25 OFFCURVE",
"1171.13 1105.53 CURVE SMOOTH",
"1171.13 1417.15 OFFCURVE",
"889.359 1464 OFFCURVE",
"591 1464 CURVE SMOOTH",
"154 1464 LINE",
"154 0 LINE"
);
},
{
closed = 1;
nodes = (
"292 733 LINE",
"589 733 LINE SMOOTH",
"892 733 OFFCURVE",
"1077 697 OFFCURVE",
"1077 415 CURVE SMOOTH",
"1077 122 OFFCURVE",
"836 107 OFFCURVE",
"615 107 CURVE SMOOTH",
"292 107 LINE"
);
},
{
closed = 1;
nodes = (
"292 1357 LINE",
"598 1357 LINE SMOOTH",
"832.435 1357 OFFCURVE",
"1039 1347.05 OFFCURVE",
"1039 1100.79 CURVE SMOOTH",
"1039 846.087 OFFCURVE",
"872.598 835 OFFCURVE",
"558 835 CURVE SMOOTH",
"292 835 LINE"
);
}
);
userData = {
com.typemytype.robofont.layerData = {
b = {
anchors = (
);
components = (
);
contours = (
);
lib = {
};
name = B;
unicodes = (
);
width = 1300;
};
};
};
vertWidth = 0;
width = 1300;
}
);
unicode = 0042;
},
{
glyphname = C;
layers = (
{
anchors = (
{
name = top;
position = "{761, 1464}";
}
);
layerId = "8E6A00A3-5EF9-4E6D-9A7B-9C1BBC7D44AD";
paths = (
{
closed = 1;
nodes = (
"1013 -24 OFFCURVE",
"1220 93 OFFCURVE",
"1300 361 CURVE",
"1138 398 LINE",
"1088 233 OFFCURVE",
"976 116 OFFCURVE",
"748 116 CURVE SMOOTH",
"416 116 OFFCURVE",
"301 338 OFFCURVE",
"301 735 CURVE SMOOTH",
"301 1132 OFFCURVE",
"416 1350 OFFCURVE",
"748 1350 CURVE SMOOTH",
"976 1350 OFFCURVE",
"1088 1233 OFFCURVE",
"1138 1067 CURVE",
"1300 1105 LINE",
"1220 1373 OFFCURVE",
"1013 1490 OFFCURVE",
"755 1490 CURVE SMOOTH",
"356 1490 OFFCURVE",
"116 1266 OFFCURVE",
"116 735 CURVE SMOOTH",
"116 204 OFFCURVE",
"356 -24 OFFCURVE",
"755 -24 CURVE SMOOTH"
);
}
);
userData = {
com.typemytype.robofont.layerData = {
};
};
vertWidth = 0;
width = 1394;
},
{
anchors = (
{
name = top;
position = "{765, 1464}";
}
);
layerId = "8DE4C137-4DC6-43A7-909D-C9F8072E6A1C";
paths = (
{
closed = 1;
nodes = (
"1026 -24 OFFCURVE",
"1239 84 OFFCURVE",
"1327 357 CURVE",
"1137 401 LINE",
"1083 246 OFFCURVE",
"984 139 OFFCURVE",
"759 139 CURVE SMOOTH",
"441 139 OFFCURVE",
"331 337 OFFCURVE",
"331 734 CURVE SMOOTH",
"331 1131 OFFCURVE",
"441 1325 OFFCURVE",
"759 1325 CURVE SMOOTH",
"984 1325 OFFCURVE",
"1083 1218 OFFCURVE",
"1137 1064 CURVE",
"1327 1108 LINE",
"1239 1381 OFFCURVE",
"1026 1489 OFFCURVE",
"768 1489 CURVE SMOOTH",
"353 1489 OFFCURVE",
"115 1265 OFFCURVE",
"115 734 CURVE SMOOTH",
"115 203 OFFCURVE",
"353 -24 OFFCURVE",
"768 -24 CURVE SMOOTH"
);
}
);
userData = {
com.typemytype.robofont.layerData = {
};
};
vertWidth = 0;
width = 1405;
},
{
anchors = (
{
name = bot;
position = "{779, 0}";
},
{
name = top;
position = "{747, 1464}";
}
);
layerId = "28683A17-BAD2-44EA-B42B-E882FFDD4FE1";
paths = (
{
closed = 1;
nodes = (
"1037 -24 OFFCURVE",
"1255 76 OFFCURVE",
"1351 354 CURVE",
"1137 403 LINE",
"1079 258 OFFCURVE",
"991 159 OFFCURVE",
"769 159 CURVE SMOOTH",
"462 159 OFFCURVE",
"357 337 OFFCURVE",
"357 734 CURVE SMOOTH",
"357 1131 OFFCURVE",
"462 1304 OFFCURVE",
"769 1304 CURVE SMOOTH",
"991 1304 OFFCURVE",
"1079 1205 OFFCURVE",
"1137 1061 CURVE",
"1351 1110 LINE",
"1255 1388 OFFCURVE",
"1037 1488 OFFCURVE",
"779 1488 CURVE SMOOTH",
"351 1488 OFFCURVE",
"113 1265 OFFCURVE",
"113 734 CURVE SMOOTH",
"113 203 OFFCURVE",
"351 -24 OFFCURVE",
"779 -24 CURVE SMOOTH"
);
}
);
userData = {
com.typemytype.robofont.layerData = {
};
};
vertWidth = 0;
width = 1414;
},
{
anchors = (
{
name = top;
position = "{711, 1464}";
}
);
layerId = "E322F6D1-BA90-436B-BB35-51D9BD3EA9D1";
paths = (
{
closed = 1;
nodes = (
"997 -24 OFFCURVE",
"1196 104 OFFCURVE",
"1266 366 CURVE",
"1139 395 LINE",
"1094 216 OFFCURVE",
"966 87 OFFCURVE",
"734 87 CURVE SMOOTH",
"386 87 OFFCURVE",
"264 339 OFFCURVE",
"264 736 CURVE SMOOTH",
"264 1133 OFFCURVE",
"386 1380 OFFCURVE",
"734 1380 CURVE SMOOTH",
"966 1380 OFFCURVE",
"1094 1252 OFFCURVE",
"1139 1072 CURVE",
"1266 1101 LINE",
"1196 1363 OFFCURVE",
"997 1491 OFFCURVE",
"739 1491 CURVE SMOOTH",
"360 1491 OFFCURVE",
"118 1267 OFFCURVE",
"118 736 CURVE SMOOTH",
"118 205 OFFCURVE",
"360 -24 OFFCURVE",
"739 -24 CURVE SMOOTH"
);
}
);
userData = {
com.typemytype.robofont.layerData = {
b = {
anchors = (
);
components = (
);
contours = (
);
lib = {
};
name = C;
unicodes = (
);
width = 1381;
};
};
};
vertWidth = 0;
width = 1381;
}
);
unicode = 0043;
},
{
glyphname = D;
layers = (
{
anchors = (
{
name = top;
position = "{714.5, 1464}";
}
);
layerId = "8E6A00A3-5EF9-4E6D-9A7B-9C1BBC7D44AD";
paths = (
{
closed = 1;
nodes = (
"663 0 LINE SMOOTH",
"1115 0 OFFCURVE",
"1313 207 OFFCURVE",
"1313 738 CURVE SMOOTH",
"1313 1280 OFFCURVE",
"1091 1464 OFFCURVE",
"667 1464 CURVE SMOOTH",
"146 1464 LINE",
"146 0 LINE"
);
},
{
closed = 1;
nodes = (
"321 1330 LINE",
"667 1330 LINE SMOOTH",
"1036 1330 OFFCURVE",
"1136 1129 OFFCURVE",
"1136 737 CURVE SMOOTH",
"1136 290 OFFCURVE",
"1007 134 OFFCURVE",
"609 134 CURVE SMOOTH",
"321 134 LINE"
);
}
);
userData = {
com.typemytype.robofont.layerData = {
};
};
vertWidth = 0;
width = 1429;
},
{
anchors = (
{
name = top;
position = "{725, 1464}";
}
);
layerId = "8DE4C137-4DC6-43A7-909D-C9F8072E6A1C";
paths = (
{
closed = 1;
nodes = (
"678 0 LINE SMOOTH",
"1143 0 OFFCURVE",
"1335 211 OFFCURVE",
"1335 738 CURVE SMOOTH",
"1335 1280 OFFCURVE",
"1114 1464 OFFCURVE",
"678 1464 CURVE SMOOTH",
"139 1464 LINE",
"139 0 LINE"
);
},
{
closed = 1;
nodes = (
"344 1307 LINE",
"677 1307 LINE SMOOTH",
"1031 1307 OFFCURVE",
"1129 1128 OFFCURVE",
"1129 737 CURVE SMOOTH",
"1129 291 OFFCURVE",
"1002 157 OFFCURVE",
"618 157 CURVE SMOOTH",
"344 157 LINE"
);
}
);
userData = {
com.typemytype.robofont.layerData = {
};
};
vertWidth = 0;
width = 1450;
},
{
anchors = (
{
name = bot;
position = "{734, 0}";
},
{
name = mid;
position = "{734, 1023}";
},
{
name = top;
position = "{734, 1464}";
}
);
layerId = "28683A17-BAD2-44EA-B42B-E882FFDD4FE1";
paths = (
{
closed = 1;
nodes = (
"690 0 LINE SMOOTH",
"1168 0 OFFCURVE",
"1354 215 OFFCURVE",
"1354 738 CURVE SMOOTH",
"1354 1280 OFFCURVE",
"1135 1464 OFFCURVE",
"688 1464 CURVE SMOOTH",
"134 1464 LINE",
"134 0 LINE"
);
},
{
closed = 1;
nodes = (
"365 1288 LINE",
"686 1288 LINE SMOOTH",
"1026 1288 OFFCURVE",
"1122 1126 OFFCURVE",
"1122 737 CURVE SMOOTH",
"1122 293 OFFCURVE",
"997 176 OFFCURVE",
"625 176 CURVE SMOOTH",
"365 176 LINE"
);
}
);
userData = {
com.typemytype.robofont.layerData = {
};
};
vertWidth = 0;
width = 1468;
},
{
anchors = (
{
name = top;
position = "{702, 1464}";
}
);
layerId = "E322F6D1-BA90-436B-BB35-51D9BD3EA9D1";
paths = (
{
closed = 1;
nodes = (
"645 0 LINE SMOOTH",
"1080 0 OFFCURVE",
"1286 202 OFFCURVE",
"1286 738 CURVE SMOOTH",
"1286 1280 OFFCURVE",
"1062 1464 OFFCURVE",
"653 1464 CURVE SMOOTH",
"154 1464 LINE",
"154 0 LINE"
);
},
{
closed = 1;
nodes = (
"292 1358 LINE",
"655 1358 LINE SMOOTH",
"1042 1358 OFFCURVE",
"1146 1131 OFFCURVE",
"1146 737 CURVE SMOOTH",
"1146 288 OFFCURVE",
"1013 106 OFFCURVE",
"599 106 CURVE SMOOTH",
"292 106 LINE"
);
}
);
userData = {
com.typemytype.robofont.layerData = {
b = {
anchors = (
);
components = (
);
contours = (
);
lib = {
};
name = D;
unicodes = (
);
width = 1404;
};
};
};
vertWidth = 0;
width = 1404;
}
);
unicode = 0044;
},
{
glyphname = Eth;
layers = (
{
components = (
{
name = D;
}
);
layerId = "8E6A00A3-5EF9-4E6D-9A7B-9C1BBC7D44AD";
paths = (
{
closed = 1;
nodes = (
"558 694 LINE",
"558 796 LINE",
"0 796 LINE",
"0 694 LINE"
);
}
);
userData = {
anchors = (
);
b = {
};
com.typemytype.robofont.layerData = {
};
components = (
);
contours = (
);
lib = {
};
name = Eth;
unicodes = (
);
width = "1444";
};
vertWidth = 0;
width = 1444;
},
{
components = (
{
name = D;
}
);
layerId = "8DE4C137-4DC6-43A7-909D-C9F8072E6A1C";
paths = (
{
closed = 1;
nodes = (
"566 685 LINE",
"566 804 LINE",
"0 804 LINE",
"0 685 LINE"
);
}
);
userData = {
anchors = (
);
b = {
};
com.typemytype.robofont.layerData = {
};
components = (
);
contours = (
);
lib = {
};
name = Eth;
unicodes = (
);
width = "1444";
};
vertWidth = 0;
width = 1444;
},
{
components = (
{
name = D;
}
);
layerId = "28683A17-BAD2-44EA-B42B-E882FFDD4FE1";
paths = (
{
closed = 1;
nodes = (
"573 678 LINE",
"573 811 LINE",
"0 811 LINE",
"0 678 LINE"
);
}
);
userData = {
anchors = (
);
b = {
};
com.typemytype.robofont.layerData = {
};
components = (
);
contours = (
);
lib = {
};
name = Eth;
unicodes = (
);
width = "1444";
};
vertWidth = 0;
width = 1444;
},
{
components = (
{
name = D;
}
);
layerId = "E322F6D1-BA90-436B-BB35-51D9BD3EA9D1";
paths = (
{
closed = 1;
nodes = (
"548 704 LINE",
"548 786 LINE",
"0 786 LINE",
"0 704 LINE"
);
}
);
userData = {
anchors = (
);
b = {
};
com.typemytype.robofont.layerData = {
b = {
anchors = (
);
components = (
);
contours = (
);
lib = {
};
name = Eth;
unicodes = (
);
width = 1444;
};
};
components = (
);
contours = (
);
lib = {
};
name = Eth;
unicodes = (
);
width = "1444";
};
vertWidth = 0;
width = 1444;
}
);
unicode = 00D0;
},
{
glyphname = E;
layers = (
{
anchors = (
{
name = ogonek;
position = "{749, 1}";
},
{
name = top;
position = "{608, 1464}";
}
);
layerId = "8E6A00A3-5EF9-4E6D-9A7B-9C1BBC7D44AD";
paths = (
{
closed = 1;
nodes = (
"1143 0 LINE",
"1143 133 LINE",
"321 133 LINE",
"321 711 LINE",
"1027 711 LINE",
"1027 848 LINE",
"321 848 LINE",
"321 1331 LINE",
"1132 1331 LINE",
"1132 1464 LINE",
"146 1464 LINE",
"146 0 LINE"
);
}
);
userData = {
anchors = (
);
b = {
};
com.typemytype.robofont.layerData = {
};
components = (
);
contours = {
};
lib = {
};
name = E;
points = {
};
segmentType = line;
unicodes = (
);
width = "1202";
x = "1128";
y = "112";
};
vertWidth = 0;
width = 1216;
},
{
anchors = (
{
name = ogonek;
position = "{724, 0}";
},
{
name = top;
position = "{651, 1464}";
}
);
layerId = "8DE4C137-4DC6-43A7-909D-C9F8072E6A1C";
paths = (
{
closed = 1;
nodes = (
"1154 0 LINE",
"1154 154 LINE",
"344 154 LINE",
"344 700 LINE",
"1040 700 LINE",
"1040 857 LINE",
"344 857 LINE",
"344 1310 LINE",
"1143 1310 LINE",
"1143 1464 LINE",
"139 1464 LINE",
"139 0 LINE"
);
}
);
userData = {
anchors = (
);
b = {
};
com.typemytype.robofont.layerData = {
};
components = (
);
contours = {
};
lib = {
};
name = E;
points = {
};
segmentType = line;
unicodes = (
);
width = "1202";
x = "1128";
y = "112";
};
vertWidth = 0;
width = 1225;
},
{
anchors = (
{
name = bot;
position = "{617, 0}";
},
{
name = ogonek;
position = "{726, 0}";
},
{
name = top;
position = "{617, 1464}";
}
);
layerId = "28683A17-BAD2-44EA-B42B-E882FFDD4FE1";
paths = (
{
closed = 1;
nodes = (
"1164 0 LINE",
"1164 172 LINE",
"365 172 LINE",
"365 690 LINE",
"1052 690 LINE",
"1052 866 LINE",
"365 866 LINE",
"365 1292 LINE",
"1153 1292 LINE",
"1153 1464 LINE",
"134 1464 LINE",
"134 0 LINE"
);
}
);
userData = {
anchors = (
);
b = {
};
com.typemytype.robofont.layerData = {
};
components = (
);
contours = {
};
lib = {
};
name = E;
points = {
};
segmentType = line;
unicodes = (
);
width = "1202";
x = "1128";
y = "112";
};
vertWidth = 0;
width = 1234;
},
{
anchors = (
{
name = ogonek;
position = "{728, 0}";
},
{
name = top;
position = "{672, 1464}";
}
);
layerId = "E322F6D1-BA90-436B-BB35-51D9BD3EA9D1";
paths = (
{
closed = 1;
nodes = (
"1129 0 LINE",
"1129 107 LINE",
"292 107 LINE",
"292 726 LINE",
"1011 726 LINE",
"1011 836 LINE",
"292 836 LINE",
"292 1357 LINE",
"1118 1357 LINE",
"1118 1464 LINE",
"154 1464 LINE",
"154 0 LINE"
);
}
);
userData = {
anchors = (
);
b = {
};
com.typemytype.robofont.layerData = {
b = {
anchors = (
);
components = (
);
contours = (
);
lib = {
};
name = E;
unicodes = (
);
width = 1204;
};
};
components = (
);
contours = {
};
lib = {
};
name = E;
points = {
};
segmentType = line;
unicodes = (
);
width = "1202";
x = "1128";
y = "112";
};
vertWidth = 0;
width = 1204;
}
);
unicode = 0045;
},
{
glyphname = F;
layers = (
{
anchors = (
{
name = top;
position = "{596, 1464}";
}
);
layerId = "8E6A00A3-5EF9-4E6D-9A7B-9C1BBC7D44AD";
paths = (
{
closed = 1;
nodes = (
"321 0 LINE",
"321 702 LINE",
"1028 702 LINE",
"1028 838 LINE",
"321 838 LINE",
"321 1331 LINE",
"1137 1331 LINE",
"1137 1464 LINE",
"146 1464 LINE",
"146 0 LINE"
);
}
);
userData = {
anchors = (
);
b = {
};
com.typemytype.robofont.layerData = {
};
components = (
);
contours = {
};
lib = {
};
name = F;
points = {
};
segmentType = line;
unicodes = (
);
width = "1178.66666667";
x = "1117";
y = "1464";
};
vertWidth = 0;
width = 1192;
},
{
anchors = (
{
name = top;
position = "{673, 1464}";
}
);
layerId = "8DE4C137-4DC6-43A7-909D-C9F8072E6A1C";
paths = (
{
closed = 1;
nodes = (
"344 0 LINE",
"344 689 LINE",
"1043 689 LINE",
"1043 846 LINE",
"344 846 LINE",
"344 1310 LINE",
"1154 1310 LINE",
"1154 1464 LINE",
"139 1464 LINE",
"139 0 LINE"
);
}
);
userData = {
anchors = (
);
b = {
};
com.typemytype.robofont.layerData = {
};
components = (
);
contours = {
};
lib = {
};
name = F;
points = {
};
segmentType = line;
unicodes = (
);
width = "1178.66666667";
x = "1117";
y = "1464";
};
vertWidth = 0;
width = 1201;
},
{
anchors = (
{
name = bot;
position = "{604, 0}";
},
{
name = top;
position = "{604, 1464}";
}
);
layerId = "28683A17-BAD2-44EA-B42B-E882FFDD4FE1";
paths = (
{
closed = 1;
nodes = (
"365 0 LINE",
"365 677 LINE",
"1056 677 LINE",
"1056 853 LINE",
"365 853 LINE",
"365 1292 LINE",
"1168 1292 LINE",
"1168 1464 LINE",
"134 1464 LINE",
"134 0 LINE"
);
}
);
userData = {
anchors = (
);
b = {
};
com.typemytype.robofont.layerData = {
};
components = (
);
contours = {
};
lib = {
};
name = F;
points = {
};
segmentType = line;
unicodes = (
);
width = "1178.66666667";
x = "1117";
y = "1464";
};
vertWidth = 0;
width = 1208;
},
{
anchors = (
{
name = top;
position = "{590, 1464}";
}
);
layerId = "E322F6D1-BA90-436B-BB35-51D9BD3EA9D1";
paths = (
{
closed = 1;
nodes = (
"292 0 LINE",
"292 719 LINE",
"1009 719 LINE",
"1009 828 LINE",
"292 828 LINE",
"292 1357 LINE",
"1117 1357 LINE",
"1117 1464 LINE",
"154 1464 LINE",
"154 0 LINE"
);
}
);
userData = {
anchors = (
);
b = {
};
com.typemytype.robofont.layerData = {
b = {
anchors = (
);
components = (
);
contours = (
);
lib = {
};
name = F;
unicodes = (
);
width = 1180;
};
};
components = (
);
contours = {
};
lib = {
};
name = F;
points = {
};
segmentType = line;
unicodes = (
);
width = "1178.66666667";
x = "1117";
y = "1464";
};
vertWidth = 0;
width = 1180;
}
);
unicode = 0046;
},
{
glyphname = G;
layers = (
{
anchors = (
{
name = top;
position = "{703.5, 1464}";
}
);
layerId = "8E6A00A3-5EF9-4E6D-9A7B-9C1BBC7D44AD";
paths = (
{
closed = 1;
nodes = (
"918 -25 OFFCURVE",
"1055 53 OFFCURVE",
"1118 166 CURVE",
"1153 0 LINE",
"1268 0 LINE",
"1268 0 OFFCURVE",
"1278 428 OFFCURVE",
"1278 581 CURVE SMOOTH",
"1278 803 LINE",
"758 803 LINE",
"758 653 LINE",
"1104 653 LINE",
"1104 447 LINE SMOOTH",
"1104 220 OFFCURVE",
"918 116 OFFCURVE",
"752 116 CURVE SMOOTH",
"438 116 OFFCURVE",
"301 318 OFFCURVE",
"301 721 CURVE SMOOTH",
"301 1149 OFFCURVE",
"426 1350 OFFCURVE",
"747 1350 CURVE SMOOTH",
"931 1350 OFFCURVE",
"1054 1256 OFFCURVE",
"1121 1074 CURVE",
"1273 1126 LINE",
"1189 1363 OFFCURVE",
"1018 1490 OFFCURVE",
"750 1490 CURVE SMOOTH",
"366 1490 OFFCURVE",
"116 1278 OFFCURVE",
"116 722 CURVE SMOOTH",
"116 166 OFFCURVE",
"388 -25 OFFCURVE",
"734 -25 CURVE SMOOTH"
);
}
);
userData = {
com.typemytype.robofont.layerData = {
};
};
vertWidth = 0;
width = 1407;
},
{
anchors = (
{
name = top;
position = "{745, 1464}";
}
);
layerId = "8DE4C137-4DC6-43A7-909D-C9F8072E6A1C";
paths = (
{
closed = 1;
nodes = (
"926 -24 OFFCURVE",
"1051 48 OFFCURVE",
"1113 147 CURVE",
"1154 0 LINE",
"1287 0 LINE",
"1287 0 OFFCURVE",
"1297 428 OFFCURVE",
"1297 581 CURVE SMOOTH",
"1297 817 LINE",
"775 817 LINE",
"775 642 LINE",
"1095 642 LINE",
"1095 450 LINE SMOOTH",
"1095 237 OFFCURVE",
"926 139 OFFCURVE",
"760 139 CURVE SMOOTH",
"469 139 OFFCURVE",
"331 317 OFFCURVE",
"331 721 CURVE SMOOTH",
"331 1149 OFFCURVE",
"441 1325 OFFCURVE",
"750 1325 CURVE SMOOTH",
"936 1325 OFFCURVE",
"1052 1237 OFFCURVE",
"1120 1053 CURVE",
"1298 1113 LINE",
"1216 1352 OFFCURVE",
"1047 1489 OFFCURVE",
"755 1489 CURVE SMOOTH",
"361 1489 OFFCURVE",
"115 1285 OFFCURVE",
"115 722 CURVE SMOOTH",
"115 165 OFFCURVE",
"391 -24 OFFCURVE",
"742 -24 CURVE SMOOTH"
);
}
);
userData = {
com.typemytype.robofont.layerData = {
};
};
vertWidth = 0;
width = 1421;
},
{
anchors = (
{
name = bot;
position = "{716.5, 0}";
},
{
name = top;
position = "{716.5, 1464}";
}
);
layerId = "28683A17-BAD2-44EA-B42B-E882FFDD4FE1";
paths = (
{
closed = 1;
nodes = (
"933 -24 OFFCURVE",
"1048 44 OFFCURVE",
"1109 131 CURVE",
"1156 0 LINE",
"1304 0 LINE",
"1304 0 OFFCURVE",
"1314 428 OFFCURVE",
"1314 581 CURVE SMOOTH",
"1314 829 LINE",
"789 829 LINE",
"789 632 LINE",
"1086 632 LINE",
"1086 453 LINE SMOOTH",
"1086 251 OFFCURVE",
"933 159 OFFCURVE",
"767 159 CURVE SMOOTH",
"497 159 OFFCURVE",
"357 316 OFFCURVE",
"357 721 CURVE SMOOTH",
"357 1149 OFFCURVE",
"455 1304 OFFCURVE",
"753 1304 CURVE SMOOTH",
"941 1304 OFFCURVE",
"1050 1220 OFFCURVE",
"1118 1035 CURVE",
"1319 1102 LINE",
"1239 1343 OFFCURVE",
"1073 1488 OFFCURVE",
"760 1488 CURVE SMOOTH",
"357 1488 OFFCURVE",
"113 1291 OFFCURVE",
"113 722 CURVE SMOOTH",
"113 163 OFFCURVE",
"393 -24 OFFCURVE",
"749 -24 CURVE SMOOTH"
);
}
);
userData = {
com.typemytype.robofont.layerData = {
};
};
vertWidth = 0;
width = 1433;
},
{
anchors = (
{
name = top;
position = "{695, 1464}";
}
);
layerId = "E322F6D1-BA90-436B-BB35-51D9BD3EA9D1";
paths = (
{
closed = 1;
nodes = (
"908 -25 OFFCURVE",
"1060 59 OFFCURVE",
"1124 189 CURVE",
"1151 0 LINE",
"1243 0 LINE",
"1243 0 OFFCURVE",
"1253 428 OFFCURVE",
"1253 581 CURVE SMOOTH",
"1253 786 LINE",
"738 786 LINE",
"738 667 LINE",
"1116 667 LINE",
"1116 443 LINE SMOOTH",
"1116 199 OFFCURVE",
"908 87 OFFCURVE",
"742 87 CURVE SMOOTH",
"398 87 OFFCURVE",
"264 319 OFFCURVE",
"264 721 CURVE SMOOTH",
"264 1149 OFFCURVE",
"406 1380 OFFCURVE",
"743 1380 CURVE SMOOTH",
"924 1380 OFFCURVE",
"1057 1281 OFFCURVE",
"1123 1100 CURVE",
"1243 1142 LINE",
"1156 1377 OFFCURVE",
"982 1491 OFFCURVE",
"744 1491 CURVE SMOOTH",
"371 1491 OFFCURVE",
"118 1269 OFFCURVE",
"118 722 CURVE SMOOTH",
"118 168 OFFCURVE",
"384 -25 OFFCURVE",
"724 -25 CURVE SMOOTH"
);
}
);
userData = {
com.typemytype.robofont.layerData = {
b = {
anchors = (
);
components = (
);
contours = (
);
lib = {
};
name = G;
unicodes = (
);
width = 1390;
};
};
};
vertWidth = 0;
width = 1390;
}
);
unicode = 0047;
},
{
glyphname = H;
layers = (
{
anchors = (
{
name = top;
position = "{741.5, 1464}";
}
);
layerId = "8E6A00A3-5EF9-4E6D-9A7B-9C1BBC7D44AD";
paths = (
{
closed = 1;
nodes = (
"321 0 LINE",
"321 700 LINE",
"1162 700 LINE",
"1162 0 LINE",
"1337 0 LINE",
"1337 1464 LINE",
"1162 1464 LINE",
"1162 839 LINE",
"321 839 LINE",
"321 1464 LINE",
"146 1464 LINE",
"146 0 LINE"
);
}
);
userData = {
anchors = (
);
b = {
};
com.typemytype.robofont.layerData = {
};
components = (
);
contours = {
};
lib = {
};
name = H;
points = {
};
segmentType = line;
unicodes = (
);
width = "1457";
x = "294";
y = "836";
};
vertWidth = 0;
width = 1483;
},
{
anchors = (
{
name = top;
position = "{750, 1464}";
}
);
layerId = "8DE4C137-4DC6-43A7-909D-C9F8072E6A1C";
paths = (
{
closed = 1;
nodes = (
"344 0 LINE",
"344 679 LINE",
"1155 679 LINE",
"1155 0 LINE",
"1360 0 LINE",
"1360 1464 LINE",
"1155 1464 LINE",
"1155 842 LINE",
"344 842 LINE",
"344 1464 LINE",
"139 1464 LINE",
"139 0 LINE"
);
}
);
userData = {
anchors = (
);
b = {
};
com.typemytype.robofont.layerData = {
};
components = (
);
contours = {
};
lib = {
};
name = H;
points = {
};
segmentType = line;
unicodes = (
);
width = "1457";
x = "294";
y = "836";
};
vertWidth = 0;
width = 1500;
},
{
anchors = (
{
name = bot;
position = "{757, 0}";
},
{
name = top;
position = "{757, 1464}";
}
);
layerId = "28683A17-BAD2-44EA-B42B-E882FFDD4FE1";
paths = (
{
closed = 1;
nodes = (
"365 0 LINE",
"365 661 LINE",
"1150 661 LINE",
"1150 0 LINE",
"1381 0 LINE",
"1381 1464 LINE",
"1150 1464 LINE",
"1150 845 LINE",
"365 845 LINE",
"365 1464 LINE",
"134 1464 LINE",
"134 0 LINE"
);
}
);
userData = {
anchors = (
);
b = {
};
com.typemytype.robofont.layerData = {
};
components = (
);
contours = {
};
lib = {
};
name = H;
points = {
};
segmentType = line;
unicodes = (
);
width = "1457";
x = "294";
y = "836";
};
vertWidth = 0;
width = 1514;
},
{
anchors = (
{
name = top;
position = "{731, 1464}";
}
);
layerId = "E322F6D1-BA90-436B-BB35-51D9BD3EA9D1";
paths = (
{
closed = 1;
nodes = (
"292 0 LINE",
"292 725 LINE",
"1170 725 LINE",
"1170 0 LINE",
"1308 0 LINE",
"1308 1464 LINE",
"1170 1464 LINE",
"1170 835 LINE",
"292 835 LINE",
"292 1464 LINE",
"154 1464 LINE",
"154 0 LINE"
);
}
);
userData = {
anchors = (
);
b = {
};
com.typemytype.robofont.layerData = {
b = {
anchors = (
);
components = (
);
contours = (
);
lib = {
};
name = H;
unicodes = (
);
width = 1462;
};
};
components = (
);
contours = {
};
lib = {
};
name = H;
points = {
};
segmentType = line;
unicodes = (
);
width = "1457";
x = "294";
y = "836";
};
vertWidth = 0;
width = 1462;
}
);
unicode = 0048;
},
{
glyphname = Hbar;
layers = (
{
components = (
{
name = H;
}
);
layerId = "8E6A00A3-5EF9-4E6D-9A7B-9C1BBC7D44AD";
paths = (
{
closed = 1;
nodes = (
"1423 1144 LINE",
"1423 1240 LINE",
"48 1240 LINE",
"48 1144 LINE"
);
}
);
vertWidth = 0;
width = 1457;
},
{
components = (
{
name = H;
}
);
layerId = "8DE4C137-4DC6-43A7-909D-C9F8072E6A1C";
paths = (
{
closed = 1;
nodes = (
"1446 1144 LINE",
"1446 1249 LINE",
"48 1249 LINE",
"48 1144 LINE"
);
}
);
vertWidth = 0;
width = 1457;
},
{
components = (
{
name = H;
}
);
layerId = "28683A17-BAD2-44EA-B42B-E882FFDD4FE1";
paths = (
{
closed = 1;
nodes = (
"1467 1144 LINE",
"1467 1258 LINE",
"48 1258 LINE",
"48 1144 LINE"
);
}
);
vertWidth = 0;
width = 1457;
},
{
components = (
{
name = H;
}
);
layerId = "E322F6D1-BA90-436B-BB35-51D9BD3EA9D1";
paths = (
{
closed = 1;
nodes = (
"1394 1144 LINE",
"1394 1228 LINE",
"48 1228 LINE",
"48 1144 LINE"
);
}
);
vertWidth = 0;
width = 1457;
}
);
unicode = 0126;
},
{
glyphname = I;
layers = (
{
anchors = (
{
name = ogonek;
position = "{237, 0}";
},
{
name = top;
position = "{232, 1464}";
}
);
layerId = "8E6A00A3-5EF9-4E6D-9A7B-9C1BBC7D44AD";
paths = (
{
closed = 1;
nodes = (
"323 0 LINE",
"323 1464 LINE",
"148 1464 LINE",
"148 0 LINE"
);
}
);
userData = {
com.typemytype.robofont.layerData = {
};
};
vertWidth = 0;
width = 464;
},
{
anchors = (
{
name = ogonek;
position = "{231, 0}";
},
{
name = top;
position = "{232, 1464}";
}
);
layerId = "8DE4C137-4DC6-43A7-909D-C9F8072E6A1C";
paths = (
{
closed = 1;
nodes = (
"338 0 LINE",
"338 1464 LINE",
"133 1464 LINE",
"133 0 LINE"
);
}
);
userData = {
com.typemytype.robofont.layerData = {
};
};
vertWidth = 0;
width = 464;
},
{
anchors = (
{
name = bot;
position = "{232, 0}";
},
{
name = ogonek;
position = "{232, 0}";
},
{
name = top;
position = "{232, 1464}";
}
);
layerId = "28683A17-BAD2-44EA-B42B-E882FFDD4FE1";
paths = (
{
closed = 1;
nodes = (
"350 0 LINE",
"350 1464 LINE",
"119 1464 LINE",
"119 0 LINE"
);
}
);
userData = {
com.typemytype.robofont.layerData = {
};
};
vertWidth = 0;
width = 464;
},
{
anchors = (
{
name = ogonek;
position = "{247, 0}";
},
{
name = top;
position = "{232, 1464}";
}
);
layerId = "E322F6D1-BA90-436B-BB35-51D9BD3EA9D1";
paths = (
{
closed = 1;
nodes = (
"305 0 LINE",
"305 1464 LINE",
"167 1464 LINE",
"167 0 LINE"
);
}
);
userData = {
com.typemytype.robofont.layerData = {
b = {
anchors = (
);
components = (
);
contours = (
);
lib = {
};
name = I;
unicodes = (
);
width = 464;
};
};
};
vertWidth = 0;
width = 464;
}
);
unicode = 0049;
},
{
glyphname = J;
layers = (
{
anchors = (
{
name = top;
position = "{776, 1464}";
}
);
layerId = "8E6A00A3-5EF9-4E6D-9A7B-9C1BBC7D44AD";
paths = (
{
closed = 1;
nodes = (
"740 -23 OFFCURVE",
"861 166 OFFCURVE",
"861 544 CURVE SMOOTH",
"861 1464 LINE",
"686 1464 LINE",
"686 541 LINE SMOOTH",
"686 294 OFFCURVE",
"653 120 OFFCURVE",
"435 119 CURVE SMOOTH",
"299 119 OFFCURVE",
"222 205 OFFCURVE",
"184 376 CURVE",
"27 333 LINE",
"70 116 OFFCURVE",
"198 -23 OFFCURVE",
"426 -23 CURVE SMOOTH"
);
}
);
userData = {
com.typemytype.robofont.layerData = {
};
};
vertWidth = 0;
width = 997;
},
{
anchors = (
{
name = top;
position = "{805, 1464}";
}
);
layerId = "8DE4C137-4DC6-43A7-909D-C9F8072E6A1C";
paths = (
{
closed = 1;
nodes = (
"763 -21 OFFCURVE",
"904 166 OFFCURVE",
"904 544 CURVE SMOOTH",
"904 1464 LINE",
"699 1464 LINE",
"699 541 LINE SMOOTH",
"699 281 OFFCURVE",
"648 145 OFFCURVE",
"454 145 CURVE SMOOTH",
"344 145 OFFCURVE",
"255 212 OFFCURVE",
"217 383 CURVE",
"32 332 LINE",
"75 115 OFFCURVE",
"217 -21 OFFCURVE",
"447 -21 CURVE SMOOTH"
);
}
);
userData = {
com.typemytype.robofont.layerData = {
};
};
vertWidth = 0;
width = 1040;
},
{
anchors = (
{
name = bot;
position = "{538.5, 0}";
},
{
name = top;
position = "{803, 1464}";
}
);
layerId = "28683A17-BAD2-44EA-B42B-E882FFDD4FE1";
paths = (
{
closed = 1;
nodes = (
"782 -19 OFFCURVE",
"941 166 OFFCURVE",
"941 544 CURVE SMOOTH",
"941 1464 LINE",
"710 1464 LINE",
"710 541 LINE SMOOTH",
"710 270 OFFCURVE",
"644 167 OFFCURVE",
"470 168 CURVE SMOOTH",
"383 168 OFFCURVE",
"284 219 OFFCURVE",
"246 390 CURVE",
"37 332 LINE",
"80 115 OFFCURVE",
"234 -19 OFFCURVE",
"465 -19 CURVE SMOOTH"
);
}
);
userData = {
com.typemytype.robofont.layerData = {
};
};
vertWidth = 0;
width = 1077;
},
{
anchors = (
{
name = top;
position = "{739, 1464}";
}
);
layerId = "E322F6D1-BA90-436B-BB35-51D9BD3EA9D1";
paths = (
{
closed = 1;
nodes = (
"712 -26 OFFCURVE",
"807 166 OFFCURVE",
"807 544 CURVE SMOOTH",
"807 1464 LINE",
"670 1464 LINE",
"670 541 LINE SMOOTH",
"670 309 OFFCURVE",
"658 89 OFFCURVE",
"412 87 CURVE SMOOTH",
"244 87 OFFCURVE",
"181 196 OFFCURVE",
"143 367 CURVE",
"20 334 LINE",
"63 117 OFFCURVE",
"174 -26 OFFCURVE",
"400 -26 CURVE SMOOTH"
);
}
);
userData = {
com.typemytype.robofont.layerData = {
b = {
anchors = (
);
components = (
);
contours = (
);
lib = {
};
name = J;
unicodes = (
);
width = 943;
};
};
};
vertWidth = 0;
width = 943;
}
);
unicode = 004A;
},
{
glyphname = K;
layers = (
{
anchors = (
{
name = top;
position = "{637, 1464}";
}
);
layerId = "8E6A00A3-5EF9-4E6D-9A7B-9C1BBC7D44AD";
paths = (
{
closed = 1;
nodes = (
"321 0 LINE",
"321 545 LINE",
"563 795 LINE",
"1072 0 LINE",
"1272 0 LINE",
"683 918 LINE",
"1212 1464 LINE",
"1000 1464 LINE",
"321 754 LINE",
"321 1464 LINE",
"146 1464 LINE",
"146 0 LINE"
);
}
);
userData = {
anchors = (
);
b = {
};
com.typemytype.robofont.layerData = {
};
components = (
);
contours = {
};
lib = {
};
name = K;
points = {
};
segmentType = line;
unicodes = (
);
width = "1252";
x = "1003";
y = "1464";
};
vertWidth = 0;
width = 1274;
},
{
anchors = (
{
name = top;
position = "{645.5, 1464}";
}
);
layerId = "8DE4C137-4DC6-43A7-909D-C9F8072E6A1C";
paths = (
{
closed = 1;
nodes = (
"344 0 LINE",
"344 540 LINE",
"572 776 LINE",
"1063 0 LINE",
"1296 0 LINE",
"712 920 LINE",
"1240 1464 LINE",
"993 1464 LINE",
"344 783 LINE",
"344 1464 LINE",
"139 1464 LINE",
"139 0 LINE"
);
}
);
userData = {
anchors = (
);
b = {
};
com.typemytype.robofont.layerData = {
};
components = (
);
contours = {
};
lib = {
};
name = K;
points = {
};
segmentType = line;
unicodes = (
);
width = "1252";
x = "1003";
y = "1464";
};
vertWidth = 0;
width = 1291;
},
{
anchors = (
{
name = bot;
position = "{653.5, 0}";
},
{
name = top;
position = "{653.5, 1464}";
}
);
layerId = "28683A17-BAD2-44EA-B42B-E882FFDD4FE1";
paths = (
{
closed = 1;
nodes = (
"365 0 LINE",
"365 536 LINE",
"580 759 LINE",
"1056 0 LINE",
"1317 0 LINE",
"738 922 LINE",
"1265 1464 LINE",
"987 1464 LINE",
"365 809 LINE",
"365 1464 LINE",
"134 1464 LINE",
"134 0 LINE"
);
}
);
userData = {
anchors = (
);
b = {
};
com.typemytype.robofont.layerData = {
};
components = (
);
contours = {
};
lib = {
};
name = K;
points = {
};
segmentType = line;
unicodes = (
);
width = "1252";
x = "1003";
y = "1464";
};
vertWidth = 0;
width = 1307;
},
{
anchors = (
{
name = top;
position = "{626, 1464}";
}
);
layerId = "E322F6D1-BA90-436B-BB35-51D9BD3EA9D1";
paths = (
{
closed = 1;
nodes = (
"292 0 LINE",
"292 551 LINE",
"552 819 LINE",
"1083 0 LINE",
"1242 0 LINE",
"646 916 LINE",
"1177 1464 LINE",
"1009 1464 LINE",
"292 717 LINE",
"292 1464 LINE",
"154 1464 LINE",
"154 0 LINE"
);
}
);
userData = {
anchors = (
);
b = {
};
com.typemytype.robofont.layerData = {
b = {
anchors = (
);
components = (
);
contours = (
);
lib = {
};
name = K;
unicodes = (
);
width = 1252;
};
};
components = (
);
contours = {
};
lib = {
};
name = K;
points = {
};
segmentType = line;
unicodes = (
);
width = "1252";
x = "1003";
y = "1464";
};
vertWidth = 0;
width = 1252;
}
);
unicode = 004B;
},
{
glyphname = L;
layers = (
{
anchors = (
{
name = caron.alt;
position = "{472, 1023}";
},
{
name = top;
position = "{522.5, 1464}";
}
);
layerId = "8E6A00A3-5EF9-4E6D-9A7B-9C1BBC7D44AD";
paths = (
{
closed = 1;
nodes = (
"1060 0 LINE",
"1060 133 LINE",
"321 133 LINE",
"321 1464 LINE",
"146 1464 LINE",
"146 0 LINE"
);
}
);
userData = {
anchors = (
);
b = {
};
com.typemytype.robofont.layerData = {
};
components = (
);
contours = {
};
lib = {
};
name = L;
points = {
};
segmentType = line;
unicodes = (
);
width = "1020";
x = "1041";
y = "112";
};
vertWidth = 0;
width = 1045;
},
{
anchors = (
{
name = caron.alt;
position = "{520, 1023}";
},
{
name = top;
position = "{533, 1464}";
}
);
layerId = "8DE4C137-4DC6-43A7-909D-C9F8072E6A1C";
paths = (
{
closed = 1;
nodes = (
"1075 0 LINE",
"1075 154 LINE",
"344 154 LINE",
"344 1464 LINE",
"139 1464 LINE",
"139 0 LINE"
);
}
);
userData = {
anchors = (
);
b = {
};
com.typemytype.robofont.layerData = {
};
components = (
);
contours = {
};
lib = {
};
name = L;
points = {
};
segmentType = line;
unicodes = (
);
width = "1020";
x = "1041";
y = "112";
};
vertWidth = 0;
width = 1066;
},
{
anchors = (
{
name = bot;
position = "{542.5, 0}";
},
{
name = caron.alt;
position = "{562, 1023}";
},
{
name = mid;
position = "{542.5, 1023}";
},
{
name = top;
position = "{542.5, 1464}";
}
);
layerId = "28683A17-BAD2-44EA-B42B-E882FFDD4FE1";
paths = (
{
closed = 1;
nodes = (
"1089 0 LINE",
"1089 172 LINE",
"365 172 LINE",
"365 1464 LINE",
"134 1464 LINE",
"134 0 LINE"
);
}
);
userData = {
anchors = (
);
b = {
};
com.typemytype.robofont.layerData = {
};
components = (
);
contours = {
};
lib = {
};
name = L;
points = {
};
segmentType = line;
unicodes = (
);
width = "1020";
x = "1041";
y = "112";
};
vertWidth = 0;
width = 1085;
},
{
anchors = (
{
name = caron.alt;
position = "{412, 1023}";
},
{
name = top;
position = "{510, 1464}";
}
);
layerId = "E322F6D1-BA90-436B-BB35-51D9BD3EA9D1";
paths = (
{
closed = 1;
nodes = (
"1041 0 LINE",
"1041 107 LINE",
"292 107 LINE",
"292 1464 LINE",
"154 1464 LINE",
"154 0 LINE"
);
}
);
userData = {
anchors = (
);
b = {
};
com.typemytype.robofont.layerData = {
b = {
anchors = (
);
components = (
);
contours = (
);
lib = {
};
name = L;
unicodes = (
);
width = 1019;
};
};
components = (
);
contours = {
};
lib = {
};
name = L;
points = {
};
segmentType = line;
unicodes = (
);
width = "1020";
x = "1041";
y = "112";
};
vertWidth = 0;
width = 1019;
}
);
unicode = 004C;
},
{
glyphname = Lslash;
layers = (
{
components = (
{
name = L;
}
);
layerId = "8E6A00A3-5EF9-4E6D-9A7B-9C1BBC7D44AD";
paths = (
{
closed = 1;
nodes = (
"610 878 LINE",
"610 1024 LINE",
"-25 764 LINE",
"-25 618 LINE"
);
}
);
userData = {
anchors = (
);
b = {
};
com.typemytype.robofont.layerData = {
};
components = (
);
contours = (
);
lib = {
};
name = Lslash;
unicodes = (
);
width = "1055";
};
vertWidth = 0;
width = 1055;
},
{
components = (
{
name = L;
}
);
layerId = "8DE4C137-4DC6-43A7-909D-C9F8072E6A1C";
paths = (
{
closed = 1;
nodes = (
"631 854 LINE",
"631 1024 LINE",
"-29 764 LINE",
"-29 594 LINE"
);
}
);
userData = {
anchors = (
);
b = {
};
com.typemytype.robofont.layerData = {
};
components = (
);
contours = (
);
lib = {
};
name = Lslash;
unicodes = (
);
width = "1055";
};
vertWidth = 0;
width = 1055;
},
{
components = (
{
name = L;
}
);
layerId = "28683A17-BAD2-44EA-B42B-E882FFDD4FE1";
paths = (
{
closed = 1;
nodes = (
"650 833 LINE",
"650 1024 LINE",
"-33 764 LINE",
"-33 573 LINE"
);
}
);
userData = {
anchors = (
);
b = {
};
com.typemytype.robofont.layerData = {
};
components = (
);
contours = (
);
lib = {
};
name = Lslash;
unicodes = (
);
width = "1055";
};
vertWidth = 0;
width = 1055;
},
{
components = (
{
name = L;
}
);
layerId = "E322F6D1-BA90-436B-BB35-51D9BD3EA9D1";
paths = (
{
closed = 1;
nodes = (
"584 908 LINE",
"584 1024 LINE",
"-20 764 LINE",
"-20 648 LINE"
);
}
);
userData = {
anchors = (
);
b = {
};
com.typemytype.robofont.layerData = {
b = {
anchors = (
);
components = (
);
contours = (
);
lib = {
};
name = Lslash;
unicodes = (
);
width = 1055;
};
};
components = (
);
contours = (
);
lib = {
};
name = Lslash;
unicodes = (
);
width = "1055";
};
vertWidth = 0;
width = 1055;
}
);
unicode = 0141;
},
{
glyphname = M;
layers = (
{
anchors = (
{
name = top;
position = "{831, 1464}";
}
);
layerId = "8E6A00A3-5EF9-4E6D-9A7B-9C1BBC7D44AD";
paths = (
{
closed = 1;
nodes = (
"313 0 LINE",
"313 1246 LINE",
"748 250 LINE",
"909 250 LINE",
"1355 1239 LINE",
"1355 0 LINE",
"1516 0 LINE",
"1516 1464 LINE",
"1286 1464 LINE",
"835 437 LINE",
"400 1464 LINE",
"146 1464 LINE",
"146 0 LINE"
);
}
);
userData = {
com.typemytype.robofont.layerData = {
};
};
vertWidth = 0;
width = 1662;
},
{
anchors = (
{
name = top;
position = "{835.5, 1464}";
}
);
layerId = "8DE4C137-4DC6-43A7-909D-C9F8072E6A1C";
paths = (
{
closed = 1;
nodes = (
"334 0 LINE",
"334 1210 LINE",
"739 250 LINE",
"926 250 LINE",
"1343 1201 LINE",
"1343 0 LINE",
"1531 0 LINE",
"1531 1464 LINE",
"1263 1464 LINE",
"840 469 LINE",
"437 1464 LINE",
"139 1464 LINE",
"139 0 LINE"
);
}
);
userData = {
com.typemytype.robofont.layerData = {
};
};
vertWidth = 0;
width = 1671;
},
{
anchors = (
{
name = bot;
position = "{839, 0}";
},
{
name = top;
position = "{839, 1464}";
}
);
layerId = "28683A17-BAD2-44EA-B42B-E882FFDD4FE1";
paths = (
{
closed = 1;
nodes = (
"353 0 LINE",
"353 1179 LINE",
"731 250 LINE",
"941 250 LINE",
"1333 1168 LINE",
"1333 0 LINE",
"1545 0 LINE",
"1545 1464 LINE",
"1242 1464 LINE",
"845 497 LINE",
"469 1464 LINE",
"134 1464 LINE",
"134 0 LINE"
);
}
);
userData = {
com.typemytype.robofont.layerData = {
};
};
vertWidth = 0;
width = 1678;
},
{
anchors = (
{
name = top;
position = "{856, 1464}";
}
);
layerId = "E322F6D1-BA90-436B-BB35-51D9BD3EA9D1";
paths = (
{
closed = 1;
nodes = (
"286 0 LINE",
"286 1291 LINE",
"759 250 LINE",
"888 250 LINE",
"1370 1287 LINE",
"1370 0 LINE",
"1497 0 LINE",
"1497 1464 LINE",
"1316 1464 LINE",
"829 397 LINE",
"354 1464 LINE",
"154 1464 LINE",
"154 0 LINE"
);
}
);
userData = {
com.typemytype.robofont.layerData = {
b = {
anchors = (
);
components = (
);
contours = (
);
lib = {
};
name = M;
unicodes = (
);
width = 1651;
};
};
};
vertWidth = 0;
width = 1651;
}
);
unicode = 004D;
},
{
glyphname = N;
layers = (
{
anchors = (
{
name = top;
position = "{749, 1464}";
}
);
layerId = "8E6A00A3-5EF9-4E6D-9A7B-9C1BBC7D44AD";
paths = (
{
closed = 1;
nodes = (
"304 0 LINE",
"304 1256 LINE",
"1197 0 LINE",
"1352 0 LINE",
"1352 1464 LINE",
"1199 1464 LINE",
"1199 267 LINE",
"340 1464 LINE",
"146 1464 LINE",
"146 0 LINE"
);
}
);
userData = {
com.typemytype.robofont.layerData = {
};
};
vertWidth = 0;
width = 1498;
},
{
anchors = (
{
name = top;
position = "{748.5, 1464}";
}
);
layerId = "8DE4C137-4DC6-43A7-909D-C9F8072E6A1C";
paths = (
{
closed = 1;
nodes = (
"323 0 LINE",
"323 1221 LINE",
"1178 0 LINE",
"1357 0 LINE",
"1357 1464 LINE",
"1180 1464 LINE",
"1180 312 LINE",
"365 1464 LINE",
"139 1464 LINE",
"139 0 LINE"
);
}
);
userData = {
com.typemytype.robofont.layerData = {
};
};
vertWidth = 0;
width = 1497;
},
{
anchors = (
{
name = bot;
position = "{748, 0}";
},
{
name = top;
position = "{748, 1464}";
}
);
layerId = "28683A17-BAD2-44EA-B42B-E882FFDD4FE1";
paths = (
{
closed = 1;
nodes = (
"340 0 LINE",
"340 1191 LINE",
"1162 0 LINE",
"1362 0 LINE",
"1362 1464 LINE",
"1163 1464 LINE",
"1163 352 LINE",
"386 1464 LINE",
"134 1464 LINE",
"134 0 LINE"
);
}
);
userData = {
com.typemytype.robofont.layerData = {
};
};
vertWidth = 0;
width = 1496;
},
{
anchors = (
{
name = top;
position = "{750, 1464}";
}
);
layerId = "E322F6D1-BA90-436B-BB35-51D9BD3EA9D1";
paths = (
{
closed = 1;
nodes = (
"280 0 LINE",
"280 1299 LINE",
"1220 0 LINE",
"1346 0 LINE",
"1346 1464 LINE",
"1223 1464 LINE",
"1223 210 LINE",
"309 1464 LINE",
"154 1464 LINE",
"154 0 LINE"
);
}
);
userData = {
com.typemytype.robofont.layerData = {
b = {
anchors = (
);
components = (
);
contours = (
);
lib = {
};
name = N;
unicodes = (
);
width = 1499;
};
};
};
vertWidth = 0;
width = 1499;
}
);
unicode = 004E;
},
{
glyphname = Eng;
layers = (
{
layerId = "8E6A00A3-5EF9-4E6D-9A7B-9C1BBC7D44AD";
paths = (
{
closed = 1;
nodes = (
"1185 -517 OFFCURVE",
"1352 -371 OFFCURVE",
"1352 -57 CURVE SMOOTH",
"1352 1464 LINE",
"1199 1464 LINE",
"1199 267 LINE",
"340 1464 LINE",
"146 1464 LINE",
"146 0 LINE",
"304 0 LINE",
"304 1256 LINE",
"1197 0 LINE",
"1199 0 LINE",
"1199 -58 LINE SMOOTH",
"1199 -277 OFFCURVE",
"1106 -390 OFFCURVE",
"903 -391 CURVE",
"902 -519 LINE"
);
}
);
vertWidth = 0;
width = 1498;
},
{
layerId = "8DE4C137-4DC6-43A7-909D-C9F8072E6A1C";
paths = (
{
closed = 1;
nodes = (
"1172 -490 OFFCURVE",
"1357 -377 OFFCURVE",
"1357 -36 CURVE SMOOTH",
"1357 1464 LINE",
"1180 1464 LINE",
"1180 312 LINE",
"365 1464 LINE",
"139 1464 LINE",
"139 0 LINE",
"323 0 LINE",
"323 1221 LINE",
"609.046 814.38 OFFCURVE",
"891.998 404.664 OFFCURVE",
"1180 0 CURVE",
"1180 -33 LINE SMOOTH",
"1180 -250 OFFCURVE",
"1095 -339 OFFCURVE",
"890 -342 CURVE",
"888 -490 LINE"
);
}
);
vertWidth = 0;
width = 1497;
},
{
layerId = "28683A17-BAD2-44EA-B42B-E882FFDD4FE1";
paths = (
{
closed = 1;
nodes = (
"1160 -466 OFFCURVE",
"1362 -382 OFFCURVE",
"1362 -17 CURVE SMOOTH",
"1362 1464 LINE",
"1163 1464 LINE",
"1163 352 LINE",
"386 1464 LINE",
"134 1464 LINE",
"134 0 LINE",
"340 0 LINE",
"340 1191 LINE",
"1162 0 LINE",
"1163 0 LINE",
"1163 -12 LINE SMOOTH",
"1163 -226 OFFCURVE",
"1086 -295 OFFCURVE",
"879 -299 CURVE",
"876 -465 LINE"
);
}
);
vertWidth = 0;
width = 1496;
},
{
layerId = "E322F6D1-BA90-436B-BB35-51D9BD3EA9D1";
paths = (
{
closed = 1;
nodes = (
"1201 -551 OFFCURVE",
"1346 -364 OFFCURVE",
"1346 -83 CURVE SMOOTH",
"1346 1464 LINE",
"1223 1464 LINE",
"1223 210 LINE",
"309 1464 LINE",
"154 1464 LINE",
"154 0 LINE",
"280 0 LINE",
"280 1299 LINE",
"1220 0 LINE",
"1223 0 LINE",
"1223 -88 LINE SMOOTH",
"1223 -310.22 OFFCURVE",
"1120.72 -452.005 OFFCURVE",
"920.117 -452.005 CURVE SMOOTH",
"918 -452.005 LINE SMOOTH",
"920 -554 LINE"
);
}
);
vertWidth = 0;
width = 1499;
}
);
unicode = 014A;
},
{
glyphname = O;
layers = (
{
anchors = (
{
name = ogonek;
position = "{800, 0}";
},
{
name = top;
position = "{743, 1464}";
}
);
layerId = "8E6A00A3-5EF9-4E6D-9A7B-9C1BBC7D44AD";
paths = (
{
closed = 1;
nodes = (
"1135 -24 OFFCURVE",
"1369 189 OFFCURVE",
"1369 741 CURVE SMOOTH",
"1369 1285 OFFCURVE",
"1125 1488 OFFCURVE",
"741 1488 CURVE SMOOTH",
"358 1488 OFFCURVE",
"116 1286 OFFCURVE",
"116 740 CURVE SMOOTH",
"116 182 OFFCURVE",
"353 -24 OFFCURVE",
"740 -24 CURVE SMOOTH"
);
},
{
closed = 1;
nodes = (
"412 115 OFFCURVE",
"302 317 OFFCURVE",
"302 741 CURVE SMOOTH",
"302 1116 OFFCURVE",
"398 1348 OFFCURVE",
"741 1348 CURVE SMOOTH",
"1086 1348 OFFCURVE",
"1184 1117 OFFCURVE",
"1184 740 CURVE SMOOTH",
"1184 312 OFFCURVE",
"1074 115 OFFCURVE",
"742 115 CURVE SMOOTH"
);
}
);
userData = {
angle = "90";
com.typemytype.robofont.guides = {
};
com.typemytype.robofont.layerData = {
};
magnetic = "5";
x = "723";
y = "1471";
};
vertWidth = 0;
width = 1486;
},
{
anchors = (
{
name = ogonek;
position = "{815, 0}";
},
{
name = top;
position = "{757.5, 1464}";
}
);
layerId = "8DE4C137-4DC6-43A7-909D-C9F8072E6A1C";
paths = (
{
closed = 1;
nodes = (
"1154 -24 OFFCURVE",
"1400 185 OFFCURVE",
"1400 741 CURVE SMOOTH",
"1400 1289 OFFCURVE",
"1144 1488 OFFCURVE",
"756 1488 CURVE SMOOTH",
"369 1488 OFFCURVE",
"115 1290 OFFCURVE",
"115 740 CURVE SMOOTH",
"115 178 OFFCURVE",
"364 -24 OFFCURVE",
"755 -24 CURVE SMOOTH"
);
},
{
closed = 1;
nodes = (
"436 138 OFFCURVE",
"331 332 OFFCURVE",
"331 740 CURVE SMOOTH",
"331 1101 OFFCURVE",
"421 1325 OFFCURVE",
"756 1325 CURVE SMOOTH",
"1091 1325 OFFCURVE",
"1183 1102 OFFCURVE",
"1183 739 CURVE SMOOTH",
"1183 327 OFFCURVE",
"1081 138 OFFCURVE",
"756 138 CURVE SMOOTH"
);
}
);
userData = {
angle = "90";
com.typemytype.robofont.guides = {
};
com.typemytype.robofont.layerData = {
};
magnetic = "5";
x = "723";
y = "1471";
};
vertWidth = 0;
width = 1515;
},
{
anchors = (
{
name = bot;
position = "{770, 0}";
},
{
name = ogonek;
position = "{829, 0}";
},
{
name = top;
position = "{770, 1464}";
}
);
layerId = "28683A17-BAD2-44EA-B42B-E882FFDD4FE1";
paths = (
{
closed = 1;
nodes = (
"1170 -24 OFFCURVE",
"1426 182 OFFCURVE",
"1426 741 CURVE SMOOTH",
"1426 1293 OFFCURVE",
"1160 1488 OFFCURVE",
"768 1488 CURVE SMOOTH",
"378 1488 OFFCURVE",
"113 1294 OFFCURVE",
"113 740 CURVE SMOOTH",
"113 175 OFFCURVE",
"373 -24 OFFCURVE",
"767 -24 CURVE SMOOTH"
);
},
{
closed = 1;
nodes = (
"457 159 OFFCURVE",
"357 345 OFFCURVE",
"357 740 CURVE SMOOTH",
"357 1088 OFFCURVE",
"442 1304 OFFCURVE",
"768 1304 CURVE SMOOTH",
"1096 1304 OFFCURVE",
"1183 1090 OFFCURVE",
"1183 739 CURVE SMOOTH",
"1183 339 OFFCURVE",
"1086 159 OFFCURVE",
"768 159 CURVE SMOOTH"
);
}
);
userData = {
angle = "90";
com.typemytype.robofont.guides = {
};
com.typemytype.robofont.layerData = {
};
magnetic = "5";
x = "723";
y = "1471";
};
vertWidth = 0;
width = 1540;
},
{
anchors = (
{
name = ogonek;
position = "{781, 0}";
},
{
name = top;
position = "{725, 1464}";
}
);
layerId = "E322F6D1-BA90-436B-BB35-51D9BD3EA9D1";
paths = (
{
closed = 1;
nodes = (
"1112 -24 OFFCURVE",
"1331 194 OFFCURVE",
"1331 741 CURVE SMOOTH",
"1331 1280 OFFCURVE",
"1102 1488 OFFCURVE",
"723 1488 CURVE SMOOTH",
"345 1488 OFFCURVE",
"118 1281 OFFCURVE",
"118 740 CURVE SMOOTH",
"118 187 OFFCURVE",
"340 -24 OFFCURVE",
"722 -24 CURVE SMOOTH"
);
},
{
closed = 1;
nodes = (
"382 86 OFFCURVE",
"265 298 OFFCURVE",
"265 741 CURVE SMOOTH",
"265 1135 OFFCURVE",
"368 1378 OFFCURVE",
"723 1378 CURVE SMOOTH",
"1080 1378 OFFCURVE",
"1185 1135 OFFCURVE",
"1185 740 CURVE SMOOTH",
"1185 294 OFFCURVE",
"1066 86 OFFCURVE",
"725 86 CURVE SMOOTH"
);
}
);
userData = {
angle = "90";
com.typemytype.robofont.guides = {
};
com.typemytype.robofont.layerData = {
b = {
anchors = (
);
components = (
);
contours = (
);
lib = {
};
name = O;
unicodes = (
);
width = 1450;
};
};
magnetic = "5";
x = "723";
y = "1471";
};
vertWidth = 0;
width = 1450;
}
);
unicode = 004F;
},
{
glyphname = Oslash;
layers = (
{
anchors = (
{
name = top;
position = "{748.5, 1464}";
}
);
components = (
{
name = O;
}
);
layerId = "8E6A00A3-5EF9-4E6D-9A7B-9C1BBC7D44AD";
paths = (
{
closed = 1;
nodes = (
"1227 1610 LINE",
"1126 1663 LINE",
"235 -155 LINE",
"337 -208 LINE"
);
}
);
userData = {
anchors = (
);
b = {
};
com.typemytype.robofont.layerData = {
};
components = (
);
contours = (
);
lib = {
};
name = Oslash;
unicodes = (
);
width = "1497";
};
vertWidth = 0;
width = 1497;
},
{
anchors = (
{
name = top;
position = "{748.5, 1464}";
}
);
components = (
{
name = O;
}
);
layerId = "8DE4C137-4DC6-43A7-909D-C9F8072E6A1C";
paths = (
{
closed = 1;
nodes = (
"1244 1606 LINE",
"1126 1668 LINE",
"235 -150 LINE",
"354 -212 LINE"
);
}
);
userData = {
anchors = (
);
b = {
};
com.typemytype.robofont.layerData = {
};
components = (
);
contours = (
);
lib = {
};
name = Oslash;
unicodes = (
);
width = "1497";
};
vertWidth = 0;
width = 1497;
},
{
anchors = (
{
name = top;
position = "{748.5, 1464}";
}
);
components = (
{
name = O;
}
);
layerId = "28683A17-BAD2-44EA-B42B-E882FFDD4FE1";
paths = (
{
closed = 1;
nodes = (
"1258 1603 LINE",
"1126 1672 LINE",
"235 -146 LINE",
"368 -216 LINE"
);
}
);
userData = {
anchors = (
);
b = {
};
com.typemytype.robofont.layerData = {
};
components = (
);
contours = (
);
lib = {
};
name = Oslash;
unicodes = (
);
width = "1497";
};
vertWidth = 0;
width = 1497;
},
{
anchors = (
{
name = top;
position = "{748, 1464}";
}
);
components = (
{
name = O;
}
);
layerId = "E322F6D1-BA90-436B-BB35-51D9BD3EA9D1";
paths = (
{
closed = 1;
nodes = (
"1206 1615 LINE",
"1126 1657 LINE",
"235 -161 LINE",
"316 -203 LINE"
);
}
);
userData = {
anchors = (
);
b = {
};
com.typemytype.robofont.layerData = {
b = {
anchors = (
);
components = (
);
contours = (
);
lib = {
};
name = Oslash;
unicodes = (
);
width = 1497;
};
};
components = (
);
contours = (
);
lib = {
};
name = Oslash;
unicodes = (
);
width = "1497";
};
vertWidth = 0;
width = 1497;
}
);
unicode = 00D8;
},
{
glyphname = OE;
layers = (
{
layerId = "8E6A00A3-5EF9-4E6D-9A7B-9C1BBC7D44AD";
paths = (
{
closed = 1;
nodes = (
"965 -25 OFFCURVE",
"1107 71 OFFCURVE",
"1164 224 CURVE",
"1164 0 LINE",
"2121 0 LINE",
"2121 134 LINE",
"1340 134 LINE",
"1340 711 LINE",
"2004 711 LINE",
"2004 848 LINE",
"1340 848 LINE",
"1340 1330 LINE",
"2110 1330 LINE",
"2110 1464 LINE",
"1163 1464 LINE",
"1164 1256 LINE",
"1093 1406 OFFCURVE",
"952 1491 OFFCURVE",
"715 1491 CURVE SMOOTH",
"336 1491 OFFCURVE",
"107 1282 OFFCURVE",
"107 740 CURVE SMOOTH",
"107 186 OFFCURVE",
"329 -25 OFFCURVE",
"712 -25 CURVE SMOOTH"
);
},
{
closed = 1;
nodes = (
"393.661 116.927 OFFCURVE",
"291 310.107 OFFCURVE",
"291 741 CURVE SMOOTH",
"291 1139.54 OFFCURVE",
"391.21 1350.17 OFFCURVE",
"733.417 1350.17 CURVE SMOOTH",
"1064.86 1350.17 OFFCURVE",
"1164 1195.76 OFFCURVE",
"1164 716 CURVE SMOOTH",
"1164 279.335 OFFCURVE",
"1046.88 116.927 OFFCURVE",
"724.893 116.927 CURVE SMOOTH"
);
}
);
userData = {
anchors = (
);
b = {
};
com.typemytype.robofont.layerData = {
};
components = (
);
contours = {
};
lib = {
};
name = OE;
points = {
};
segmentType = curve;
unicodes = (
);
width = "2171";
x = "368";
y = "1374";
};
vertWidth = 0;
width = 2171;
},
{
layerId = "8DE4C137-4DC6-43A7-909D-C9F8072E6A1C";
paths = (
{
closed = 1;
nodes = (
"974 -25 OFFCURVE",
"1098 62 OFFCURVE",
"1164 188 CURVE",
"1164 0 LINE",
"2121 0 LINE",
"2121 155 LINE",
"1369 155 LINE",
"1369 700 LINE",
"2012 700 LINE",
"2012 857 LINE",
"1369 857 LINE",
"1369 1309 LINE",
"2110 1309 LINE",
"2110 1464 LINE",
"1163 1464 LINE",
"1163 1284 LINE",
"1086 1415 OFFCURVE",
"948 1491 OFFCURVE",
"719 1491 CURVE SMOOTH",
"340 1491 OFFCURVE",
"102 1282 OFFCURVE",
"102 740 CURVE SMOOTH",
"102 186 OFFCURVE",
"334 -25 OFFCURVE",
"717 -25 CURVE SMOOTH"
);
},
{
closed = 1;
nodes = (
"417.111 139.763 OFFCURVE",
"316 319.508 OFFCURVE",
"316 741 CURVE SMOOTH",
"316 1140.96 OFFCURVE",
"420.815 1327.28 OFFCURVE",
"741.971 1327.28 CURVE SMOOTH",
"1066.76 1327.28 OFFCURVE",
"1164 1164.54 OFFCURVE",
"1164 732 CURVE SMOOTH",
"1164 290.161 OFFCURVE",
"1050.29 139.763 OFFCURVE",
"739.738 139.763 CURVE SMOOTH"
);
}
);
userData = {
anchors = (
);
b = {
};
com.typemytype.robofont.layerData = {
};
components = (
);
contours = {
};
lib = {
};
name = OE;
points = {
};
segmentType = curve;
unicodes = (
);
width = "2171";
x = "368";
y = "1374";
};
vertWidth = 0;
width = 2171;
},
{
layerId = "28683A17-BAD2-44EA-B42B-E882FFDD4FE1";
paths = (
{
closed = 1;
nodes = (
"982 -25 OFFCURVE",
"1091 54 OFFCURVE",
"1164 157 CURVE",
"1164 0 LINE",
"2121 0 LINE",
"2121 174 LINE",
"1395 174 LINE",
"1395 690 LINE",
"2019 690 LINE",
"2019 866 LINE",
"1395 866 LINE",
"1395 1290 LINE",
"2110 1290 LINE",
"2110 1464 LINE",
"1163 1464 LINE",
"1163 1309 LINE",
"1080 1423 OFFCURVE",
"945 1491 OFFCURVE",
"723 1491 CURVE SMOOTH",
"344 1491 OFFCURVE",
"97 1282 OFFCURVE",
"97 740 CURVE SMOOTH",
"97 186 OFFCURVE",
"339 -25 OFFCURVE",
"722 -25 CURVE SMOOTH"
);
},
{
closed = 1;
nodes = (
"433 170 OFFCURVE",
"339 341 OFFCURVE",
"339 741 CURVE SMOOTH",
"339 1130 OFFCURVE",
"443 1297 OFFCURVE",
"722 1306 CURVE SMOOTH",
"1062 1317 OFFCURVE",
"1164 1149 OFFCURVE",
"1164 746 CURVE SMOOTH",
"1164 285 OFFCURVE",
"1046 151 OFFCURVE",
"723 161 CURVE SMOOTH"
);
}
);
userData = {
anchors = (
);
b = {
};
com.typemytype.robofont.layerData = {
};
components = (
);
contours = {
};
lib = {
};
name = OE;
points = {
};
segmentType = curve;
unicodes = (
);
width = "2171";
x = "368";
y = "1374";
};
vertWidth = 0;
width = 2171;
},
{
layerId = "E322F6D1-BA90-436B-BB35-51D9BD3EA9D1";
paths = (
{
closed = 1;
nodes = (
"954 -25 OFFCURVE",
"1118 82 OFFCURVE",
"1164 269 CURVE",
"1164 0 LINE",
"2121 0 LINE",
"2121 108 LINE",
"1303 108 LINE",
"1303 726 LINE",
"1994 726 LINE",
"1994 836 LINE",
"1303 836 LINE",
"1303 1357 LINE",
"2110 1357 LINE",
"2110 1464 LINE",
"1163 1464 LINE",
"1164 1221 LINE",
"1102 1395 OFFCURVE",
"957 1491 OFFCURVE",
"710 1491 CURVE SMOOTH",
"331 1491 OFFCURVE",
"113 1282 OFFCURVE",
"113 740 CURVE SMOOTH",
"113 186 OFFCURVE",
"323 -25 OFFCURVE",
"706 -25 CURVE SMOOTH"
);
},
{
closed = 1;
nodes = (
"364.505 86.996 OFFCURVE",
"259 300.033 OFFCURVE",
"259 741 CURVE SMOOTH",
"259 1132.91 OFFCURVE",
"352.222 1380.02 OFFCURVE",
"716.403 1380.02 CURVE SMOOTH",
"1062.45 1380.02 OFFCURVE",
"1164 1239.15 OFFCURVE",
"1164 696 CURVE SMOOTH",
"1164 266.185 OFFCURVE",
"1042.56 86.996 OFFCURVE",
"704.607 86.996 CURVE SMOOTH"
);
}
);
userData = {
anchors = (
);
b = {
};
com.typemytype.robofont.layerData = {
b = {
anchors = (
);
components = (
);
contours = (
);
lib = {
};
name = OE;
unicodes = (
);
width = 2171;
};
};
components = (
);
contours = {
};
lib = {
};
name = OE;
points = {
};
segmentType = curve;
unicodes = (
);
width = "2171";
x = "368";
y = "1374";
};
vertWidth = 0;
width = 2171;
}
);
unicode = 0152;
},
{
glyphname = P;
layers = (
{
anchors = (
{
name = top;
position = "{634.5, 1464}";
}
);
layerId = "8E6A00A3-5EF9-4E6D-9A7B-9C1BBC7D44AD";
paths = (
{
closed = 1;
nodes = (
"321 0 LINE",
"321 631 LINE",
"504 631 LINE SMOOTH",
"1016 631 OFFCURVE",
"1210 724 OFFCURVE",
"1210 1063 CURVE SMOOTH",
"1210 1360 OFFCURVE",
"1027 1464 OFFCURVE",
"551 1464 CURVE SMOOTH",
"146 1464 LINE",
"146 0 LINE"
);
},
{
closed = 1;
nodes = (
"321 1330 LINE",
"532 1330 LINE SMOOTH",
"881 1330 OFFCURVE",
"1032 1297 OFFCURVE",
"1032 1055 CURVE SMOOTH",
"1032 816 OFFCURVE",
"896 767 OFFCURVE",
"552 766 CURVE",
"321 766 LINE"
);
}
);
userData = {
com.typemytype.robofont.layerData = {
};
};
vertWidth = 0;
width = 1269;
},
{
anchors = (
{
name = top;
position = "{643, 1464}";
}
);
layerId = "8DE4C137-4DC6-43A7-909D-C9F8072E6A1C";
paths = (
{
closed = 1;
nodes = (
"344 0 LINE",
"344 627 LINE",
"529 627 LINE SMOOTH",
"1041 627 OFFCURVE",
"1231 724 OFFCURVE",
"1231 1063 CURVE SMOOTH",
"1231 1360 OFFCURVE",
"1040 1464 OFFCURVE",
"564 1464 CURVE SMOOTH",
"139 1464 LINE",
"139 0 LINE"
);
},
{
closed = 1;
nodes = (
"344 1309 LINE",
"549 1309 LINE SMOOTH",
"864 1309 OFFCURVE",
"1022 1288 OFFCURVE",
"1022 1055 CURVE SMOOTH",
"1022 825 OFFCURVE",
"893 785 OFFCURVE",
"569 785 CURVE SMOOTH",
"344 785 LINE"
);
}
);
userData = {
com.typemytype.robofont.layerData = {
};
};
vertWidth = 0;
width = 1286;
},
{
anchors = (
{
name = bot;
position = "{650.5, 0}";
},
{
name = top;
position = "{650.5, 1464}";
}
);
layerId = "28683A17-BAD2-44EA-B42B-E882FFDD4FE1";
paths = (
{
closed = 1;
nodes = (
"365 0 LINE",
"365 624 LINE",
"550 624 LINE SMOOTH",
"1062 624 OFFCURVE",
"1249 724 OFFCURVE",
"1249 1063 CURVE SMOOTH",
"1249 1360 OFFCURVE",
"1051 1464 OFFCURVE",
"575 1464 CURVE SMOOTH",
"134 1464 LINE",
"134 0 LINE"
);
},
{
closed = 1;
nodes = (
"365 1290 LINE",
"563 1290 LINE SMOOTH",
"850 1290 OFFCURVE",
"1013 1280 OFFCURVE",
"1013 1055 CURVE SMOOTH",
"1013 833 OFFCURVE",
"891 801 OFFCURVE",
"583 801 CURVE SMOOTH",
"365 801 LINE"
);
}
);
userData = {
com.typemytype.robofont.layerData = {
};
};
vertWidth = 0;
width = 1301;
},
{
anchors = (
{
name = top;
position = "{624, 1464}";
}
);
layerId = "E322F6D1-BA90-436B-BB35-51D9BD3EA9D1";
paths = (
{
closed = 1;
nodes = (
"292 0 LINE",
"292 636 LINE",
"473 636 LINE SMOOTH",
"985 636 OFFCURVE",
"1185 724 OFFCURVE",
"1185 1063 CURVE SMOOTH",
"1185 1360 OFFCURVE",
"1011 1464 OFFCURVE",
"535 1464 CURVE SMOOTH",
"154 1464 LINE",
"154 0 LINE"
);
},
{
closed = 1;
nodes = (
"292 1357 LINE",
"511 1357 LINE SMOOTH",
"902 1357 OFFCURVE",
"1045 1308 OFFCURVE",
"1045 1055 CURVE SMOOTH",
"1045 805 OFFCURVE",
"899 745 OFFCURVE",
"531 743 CURVE",
"292 743 LINE"
);
}
);
userData = {
com.typemytype.robofont.layerData = {
b = {
anchors = (
);
components = (
);
contours = (
);
lib = {
};
name = P;
unicodes = (
);
width = 1248;
};
};
};
vertWidth = 0;
width = 1248;
}
);
unicode = 0050;
},
{
glyphname = Thorn;
layers = (
{
layerId = "8E6A00A3-5EF9-4E6D-9A7B-9C1BBC7D44AD";
paths = (
{
closed = 1;
nodes = (
"328 0 LINE",
"328 335 LINE",
"508 335 LINE SMOOTH",
"1022 335 OFFCURVE",
"1211 445 OFFCURVE",
"1211 776 CURVE SMOOTH",
"1211 1065 OFFCURVE",
"1039 1198 OFFCURVE",
"567 1198 CURVE SMOOTH",
"328 1198 LINE",
"328 1464 LINE",
"140 1464 LINE",
"140 0 LINE"
);
},
{
closed = 1;
nodes = (
"328 1061 LINE",
"544 1061 LINE SMOOTH",
"896 1061 OFFCURVE",
"1033 997 OFFCURVE",
"1033 771 CURVE SMOOTH",
"1033 532 OFFCURVE",
"896 472 OFFCURVE",
"564 471 CURVE",
"328 471 LINE"
);
}
);
userData = {
com.typemytype.robofont.layerData = {
};
};
vertWidth = 0;
width = 1261;
},
{
layerId = "8DE4C137-4DC6-43A7-909D-C9F8072E6A1C";
paths = (
{
closed = 1;
nodes = (
"360 0 LINE",
"360 335 LINE",
"513 335 LINE SMOOTH",
"1037 335 OFFCURVE",
"1220 448 OFFCURVE",
"1220 779 CURVE SMOOTH",
"1220 1068 OFFCURVE",
"1048 1202 OFFCURVE",
"572 1202 CURVE SMOOTH",
"360 1202 LINE",
"360 1464 LINE",
"140 1464 LINE",
"140 0 LINE"
);
},
{
closed = 1;
nodes = (
"360 1042 LINE",
"549 1042 LINE SMOOTH",
"877 1042 OFFCURVE",
"1012 990 OFFCURVE",
"1012 777 CURVE SMOOTH",
"1012 538 OFFCURVE",
"878 494 OFFCURVE",
"569 494 CURVE SMOOTH",
"360 494 LINE"
);
}
);
userData = {
com.typemytype.robofont.layerData = {
};
};
vertWidth = 0;
width = 1261;
},
{
layerId = "28683A17-BAD2-44EA-B42B-E882FFDD4FE1";
paths = (
{
closed = 1;
nodes = (
"388 0 LINE",
"388 335 LINE",
"518 335 LINE SMOOTH",
"1050 335 OFFCURVE",
"1227 450 OFFCURVE",
"1227 781 CURVE SMOOTH",
"1227 1070 OFFCURVE",
"1055 1206 OFFCURVE",
"577 1206 CURVE SMOOTH",
"388 1206 LINE",
"388 1464 LINE",
"140 1464 LINE",
"140 0 LINE"
);
},
{
closed = 1;
nodes = (
"388 1026 LINE",
"554 1026 LINE SMOOTH",
"861 1026 OFFCURVE",
"993 983 OFFCURVE",
"993 782 CURVE SMOOTH",
"993 543 OFFCURVE",
"862 513 OFFCURVE",
"574 513 CURVE SMOOTH",
"388 513 LINE"
);
}
);
userData = {
com.typemytype.robofont.layerData = {
};
};
vertWidth = 0;
width = 1261;
},
{
layerId = "E322F6D1-BA90-436B-BB35-51D9BD3EA9D1";
paths = (
{
closed = 1;
nodes = (
"288 0 LINE",
"288 335 LINE",
"501 335 LINE SMOOTH",
"1003 335 OFFCURVE",
"1201 441 OFFCURVE",
"1201 772 CURVE SMOOTH",
"1201 1061 OFFCURVE",
"1028 1193 OFFCURVE",
"560 1193 CURVE SMOOTH",
"288 1193 LINE",
"288 1464 LINE",
"140 1464 LINE",
"140 0 LINE"
);
},
{
closed = 1;
nodes = (
"288 1085 LINE",
"537 1085 LINE SMOOTH",
"919 1085 OFFCURVE",
"1060 1007 OFFCURVE",
"1060 764 CURVE SMOOTH",
"1060 525 OFFCURVE",
"919 445 OFFCURVE",
"557 443 CURVE",
"288 443 LINE"
);
}
);
userData = {
com.typemytype.robofont.layerData = {
b = {
anchors = (
);
components = (
);
contours = (
);
lib = {
};
name = Thorn;
unicodes = (
);
width = 1261;
};
};
};
vertWidth = 0;
width = 1261;
}
);
unicode = 00DE;
},
{
glyphname = Q;
layers = (
{
layerId = "8E6A00A3-5EF9-4E6D-9A7B-9C1BBC7D44AD";
paths = (
{
closed = 1;
nodes = (
"1406 -255 LINE",
"1144 96 LINE",
"1290 211 OFFCURVE",
"1369 418 OFFCURVE",
"1369 741 CURVE SMOOTH",
"1369 1285 OFFCURVE",
"1125 1488 OFFCURVE",
"741 1488 CURVE SMOOTH",
"358 1488 OFFCURVE",
"116 1286 OFFCURVE",
"116 740 CURVE SMOOTH",
"116 182 OFFCURVE",
"353 -24 OFFCURVE",
"740 -24 CURVE SMOOTH",
"845 -24 OFFCURVE",
"938 -9 OFFCURVE",
"1018 23 CURVE",
"1276 -353 LINE"
);
},
{
closed = 1;
nodes = (
"412 115 OFFCURVE",
"302 317 OFFCURVE",
"302 741 CURVE SMOOTH",
"302 1116 OFFCURVE",
"398 1348 OFFCURVE",
"741 1348 CURVE SMOOTH",
"1086 1348 OFFCURVE",
"1184 1117 OFFCURVE",
"1184 740 CURVE SMOOTH",
"1184 312 OFFCURVE",
"1074 115 OFFCURVE",
"742 115 CURVE SMOOTH"
);
}
);
userData = {
anchors = (
);
b = {
};
com.typemytype.robofont.layerData = {
};
components = (
);
contours = {
};
lib = {
};
name = Q;
points = {
};
segmentType = curve;
unicodes = (
);
width = "1434";
x = "1076";
y = "1374";
};
vertWidth = 0;
width = 1496;
},
{
layerId = "8DE4C137-4DC6-43A7-909D-C9F8072E6A1C";
paths = (
{
closed = 1;
nodes = (
"1437 -247 LINE",
"1175 101 LINE",
"1319 218 OFFCURVE",
"1400 422 OFFCURVE",
"1400 741 CURVE SMOOTH",
"1400 1289 OFFCURVE",
"1144 1488 OFFCURVE",
"756 1488 CURVE SMOOTH",
"369 1488 OFFCURVE",
"115 1290 OFFCURVE",
"115 740 CURVE SMOOTH",
"115 178 OFFCURVE",
"364 -24 OFFCURVE",
"755 -24 CURVE SMOOTH",
"856 -24 OFFCURVE",
"947 -10 OFFCURVE",
"1027 18 CURVE",
"1285 -360 LINE"
);
},
{
closed = 1;
nodes = (
"436 138 OFFCURVE",
"331 332 OFFCURVE",
"331 740 CURVE SMOOTH",
"331 1101 OFFCURVE",
"421 1325 OFFCURVE",
"756 1325 CURVE SMOOTH",
"1091 1325 OFFCURVE",
"1183 1102 OFFCURVE",
"1183 739 CURVE SMOOTH",
"1183 327 OFFCURVE",
"1081 138 OFFCURVE",
"756 138 CURVE SMOOTH"
);
}
);
userData = {
anchors = (
);
b = {
};
com.typemytype.robofont.layerData = {
};
components = (
);
contours = {
};
lib = {
};
name = Q;
points = {
};
segmentType = curve;
unicodes = (
);
width = "1434";
x = "1076";
y = "1374";
};
vertWidth = 0;
width = 1529;
},
{
layerId = "28683A17-BAD2-44EA-B42B-E882FFDD4FE1";
paths = (
{
closed = 1;
nodes = (
"1465 -240 LINE",
"1201 106 LINE",
"1345 223 OFFCURVE",
"1426 426 OFFCURVE",
"1426 741 CURVE SMOOTH",
"1426 1293 OFFCURVE",
"1160 1488 OFFCURVE",
"768 1488 CURVE SMOOTH",
"378 1488 OFFCURVE",
"113 1294 OFFCURVE",
"113 740 CURVE SMOOTH",
"113 175 OFFCURVE",
"373 -24 OFFCURVE",
"767 -24 CURVE SMOOTH",
"865 -24 OFFCURVE",
"955 -11 OFFCURVE",
"1034 14 CURVE",
"1294 -367 LINE"
);
},
{
closed = 1;
nodes = (
"457 159 OFFCURVE",
"357 345 OFFCURVE",
"357 740 CURVE SMOOTH",
"357 1088 OFFCURVE",
"442 1304 OFFCURVE",
"768 1304 CURVE SMOOTH",
"1096 1304 OFFCURVE",
"1183 1090 OFFCURVE",
"1183 739 CURVE SMOOTH",
"1183 339 OFFCURVE",
"1086 159 OFFCURVE",
"768 159 CURVE SMOOTH"
);
}
);
userData = {
anchors = (
);
b = {
};
com.typemytype.robofont.layerData = {
};
components = (
);
contours = {
};
lib = {
};
name = Q;
points = {
};
segmentType = curve;
unicodes = (
);
width = "1434";
x = "1076";
y = "1374";
};
vertWidth = 0;
width = 1559;
},
{
layerId = "E322F6D1-BA90-436B-BB35-51D9BD3EA9D1";
paths = (
{
closed = 1;
nodes = (
"1366 -265 LINE",
"1106 89 LINE",
"1253 203 OFFCURVE",
"1331 413 OFFCURVE",
"1331 741 CURVE SMOOTH",
"1331 1280 OFFCURVE",
"1102 1488 OFFCURVE",
"723 1488 CURVE SMOOTH",
"345 1488 OFFCURVE",
"118 1281 OFFCURVE",
"118 740 CURVE SMOOTH",
"118 187 OFFCURVE",
"340 -24 OFFCURVE",
"722 -24 CURVE SMOOTH",
"831 -24 OFFCURVE",
"927 -8 OFFCURVE",
"1008 29 CURVE",
"1264 -343 LINE"
);
},
{
closed = 1;
nodes = (
"382 86 OFFCURVE",
"265 298 OFFCURVE",
"265 741 CURVE SMOOTH",
"265 1135 OFFCURVE",
"368 1378 OFFCURVE",
"723 1378 CURVE SMOOTH",
"1080 1378 OFFCURVE",
"1185 1135 OFFCURVE",
"1185 740 CURVE SMOOTH",
"1185 294 OFFCURVE",
"1066 86 OFFCURVE",
"725 86 CURVE SMOOTH"
);
}
);
userData = {
anchors = (
);
b = {
};
com.typemytype.robofont.layerData = {
b = {
anchors = (
);
components = (
);
contours = (
);
lib = {
};
name = Q;
unicodes = (
);
width = 1454;
};
};
components = (
);
contours = {
};
lib = {
};
name = Q;
points = {
};
segmentType = curve;
unicodes = (
);
width = "1434";
x = "1076";
y = "1374";
};
vertWidth = 0;
width = 1454;
}
);
unicode = 0051;
},
{
glyphname = R;
layers = (
{
anchors = (
{
name = top;
position = "{658, 1464}";
}
);
layerId = "8E6A00A3-5EF9-4E6D-9A7B-9C1BBC7D44AD";
paths = (
{
closed = 1;
nodes = (
"321 0 LINE",
"321 670 LINE",
"741 670 LINE",
"1073 0 LINE",
"1262 0 LINE",
"918 694 LINE",
"1122 733 OFFCURVE",
"1233 872 OFFCURVE",
"1233 1079 CURVE SMOOTH",
"1233 1342 OFFCURVE",
"1081 1464 OFFCURVE",
"694 1464 CURVE SMOOTH",
"146 1464 LINE",
"146 0 LINE"
);
},
{
closed = 1;
nodes = (
"321 1330 LINE",
"685 1330 LINE SMOOTH",
"886 1330 OFFCURVE",
"1054 1306 OFFCURVE",
"1054 1077 CURVE SMOOTH",
"1054 845 OFFCURVE",
"892 803 OFFCURVE",
"678 803 CURVE SMOOTH",
"321 803 LINE"
);
}
);
userData = {
com.typemytype.robofont.layerData = {
};
};
vertWidth = 0;
width = 1316;
},
{
anchors = (
{
name = top;
position = "{666, 1464}";
}
);
layerId = "8DE4C137-4DC6-43A7-909D-C9F8072E6A1C";
paths = (
{
closed = 1;
nodes = (
"344 0 LINE",
"344 665 LINE",
"728 665 LINE",
"1060 0 LINE",
"1281 0 LINE",
"934 693 LINE",
"1133 732 OFFCURVE",
"1248 875 OFFCURVE",
"1248 1076 CURVE SMOOTH",
"1248 1339 OFFCURVE",
"1094 1464 OFFCURVE",
"707 1464 CURVE SMOOTH",
"139 1464 LINE",
"139 0 LINE"
);
},
{
closed = 1;
nodes = (
"344 1309 LINE",
"698 1309 LINE SMOOTH",
"899 1309 OFFCURVE",
"1039 1276 OFFCURVE",
"1039 1074 CURVE SMOOTH",
"1039 864 OFFCURVE",
"891 820 OFFCURVE",
"677 820 CURVE SMOOTH",
"344 820 LINE"
);
}
);
userData = {
com.typemytype.robofont.layerData = {
};
};
vertWidth = 0;
width = 1332;
},
{
anchors = (
{
name = bot;
position = "{673, 0}";
},
{
name = top;
position = "{673, 1464}";
}
);
layerId = "28683A17-BAD2-44EA-B42B-E882FFDD4FE1";
paths = (
{
closed = 1;
nodes = (
"365 0 LINE",
"365 660 LINE",
"717 660 LINE",
"1049 0 LINE",
"1298 0 LINE",
"948 692 LINE",
"1142 732 OFFCURVE",
"1262 877 OFFCURVE",
"1262 1074 CURVE SMOOTH",
"1262 1336 OFFCURVE",
"1105 1464 OFFCURVE",
"718 1464 CURVE SMOOTH",
"134 1464 LINE",
"134 0 LINE"
);
},
{
closed = 1;
nodes = (
"365 1290 LINE",
"709 1290 LINE SMOOTH",
"910 1290 OFFCURVE",
"1026 1250 OFFCURVE",
"1026 1072 CURVE SMOOTH",
"1026 881 OFFCURVE",
"891 834 OFFCURVE",
"677 834 CURVE SMOOTH",
"365 834 LINE"
);
}
);
userData = {
com.typemytype.robofont.layerData = {
};
};
vertWidth = 0;
width = 1346;
},
{
anchors = (
{
name = top;
position = "{648, 1464}";
}
);
layerId = "E322F6D1-BA90-436B-BB35-51D9BD3EA9D1";
paths = (
{
closed = 1;
nodes = (
"292 0 LINE",
"292 676 LINE",
"757 676 LINE",
"1089 0 LINE",
"1237 0 LINE",
"898 695 LINE",
"1108 733 OFFCURVE",
"1214 868 OFFCURVE",
"1214 1082 CURVE SMOOTH",
"1214 1347 OFFCURVE",
"1065 1464 OFFCURVE",
"678 1464 CURVE SMOOTH",
"154 1464 LINE",
"154 0 LINE"
);
},
{
closed = 1;
nodes = (
"292 1357 LINE",
"669 1357 LINE SMOOTH",
"870 1357 OFFCURVE",
"1073 1344 OFFCURVE",
"1073 1080 CURVE SMOOTH",
"1073 820 OFFCURVE",
"892 782 OFFCURVE",
"678 782 CURVE SMOOTH",
"292 782 LINE"
);
}
);
userData = {
com.typemytype.robofont.layerData = {
b = {
anchors = (
);
components = (
);
contours = (
);
lib = {
};
name = R;
unicodes = (
);
width = 1296;
};
};
};
vertWidth = 0;
width = 1296;
}
);
unicode = 0052;
},
{
glyphname = S;
layers = (
{
anchors = (
{
name = top;
position = "{611, 1464}";
}
);
layerId = "8E6A00A3-5EF9-4E6D-9A7B-9C1BBC7D44AD";
paths = (
{
closed = 1;
nodes = (
"955 -25 OFFCURVE",
"1160 123 OFFCURVE",
"1160 393 CURVE SMOOTH",
"1160 658 OFFCURVE",
"1000 752 OFFCURVE",
"719 844 CURVE SMOOTH",
"476 923 OFFCURVE",
"303 947 OFFCURVE",
"303 1138 CURVE SMOOTH",
"303 1287 OFFCURVE",
"443 1351 OFFCURVE",
"641 1351 CURVE SMOOTH",
"794 1351 OFFCURVE",
"916 1286 OFFCURVE",
"998 1145 CURVE",
"1123 1240 LINE",
"1002 1422 OFFCURVE",
"855 1491 OFFCURVE",
"618 1491 CURVE SMOOTH",
"335 1491 OFFCURVE",
"119 1373 OFFCURVE",
"119 1125 CURVE SMOOTH",
"119 869 OFFCURVE",
"313 799 OFFCURVE",
"566 718 CURVE SMOOTH",
"871 621 OFFCURVE",
"976 579 OFFCURVE",
"977 387 CURVE SMOOTH",
"977 189 OFFCURVE",
"817 117 OFFCURVE",
"632 117 CURVE SMOOTH",
"390 117 OFFCURVE",
"258 212 OFFCURVE",
"193 437 CURVE",
"45 373 LINE",
"98 86 OFFCURVE",
"350 -25 OFFCURVE",
"615 -25 CURVE SMOOTH"
);
}
);
userData = {
anchors = (
);
b = {
};
com.typemytype.robofont.layerData = {
};
components = (
);
contours = {
};
lib = {
};
name = S;
points = {
};
segmentType = curve;
unicodes = (
);
width = "1216";
x = "372";
y = "1491";
};
vertWidth = 0;
width = 1222;
},
{
anchors = (
{
name = top;
position = "{615.5, 1464}";
}
);
layerId = "8DE4C137-4DC6-43A7-909D-C9F8072E6A1C";
paths = (
{
closed = 1;
nodes = (
"972 -25 OFFCURVE",
"1165 120 OFFCURVE",
"1165 393 CURVE SMOOTH",
"1165 670 OFFCURVE",
"1001 769 OFFCURVE",
"728 859 CURVE SMOOTH",
"463 945 OFFCURVE",
"324 960 OFFCURVE",
"324 1139 CURVE SMOOTH",
"324 1266 OFFCURVE",
"442 1328 OFFCURVE",
"646 1328 CURVE SMOOTH",
"793 1328 OFFCURVE",
"895 1269 OFFCURVE",
"979 1130 CURVE",
"1122 1240 LINE",
"998 1425 OFFCURVE",
"864 1491 OFFCURVE",
"621 1491 CURVE SMOOTH",
"300 1491 OFFCURVE",
"110 1368 OFFCURVE",
"110 1125 CURVE SMOOTH",
"110 858 OFFCURVE",
"302 792 OFFCURVE",
"570 705 CURVE SMOOTH",
"864 611 OFFCURVE",
"951 574 OFFCURVE",
"952 386 CURVE SMOOTH",
"952 218 OFFCURVE",
"830 140 OFFCURVE",
"637 140 CURVE SMOOTH",
"403 140 OFFCURVE",
"290 224 OFFCURVE",
"221 448 CURVE",
"48 373 LINE",
"98 103 OFFCURVE",
"313 -25 OFFCURVE",
"618 -25 CURVE SMOOTH"
);
}
);
userData = {
anchors = (
);
b = {
};
com.typemytype.robofont.layerData = {
};
components = (
);
contours = {
};
lib = {
};
name = S;
points = {
};
segmentType = curve;
unicodes = (
);
width = "1216";
x = "372";
y = "1491";
};
vertWidth = 0;
width = 1231;
},
{
anchors = (
{
name = bot;
position = "{619, 0}";
},
{
name = top;
position = "{619, 1464}";
}
);
layerId = "28683A17-BAD2-44EA-B42B-E882FFDD4FE1";
paths = (
{
closed = 1;
nodes = (
"986 -25 OFFCURVE",
"1170 117 OFFCURVE",
"1170 393 CURVE SMOOTH",
"1170 681 OFFCURVE",
"1003 784 OFFCURVE",
"735 872 CURVE SMOOTH",
"452 964 OFFCURVE",
"343 971 OFFCURVE",
"343 1139 CURVE SMOOTH",
"343 1247 OFFCURVE",
"442 1307 OFFCURVE",
"650 1307 CURVE SMOOTH",
"793 1307 OFFCURVE",
"877 1255 OFFCURVE",
"963 1117 CURVE",
"1122 1240 LINE",
"995 1427 OFFCURVE",
"871 1491 OFFCURVE",
"624 1491 CURVE SMOOTH",
"270 1491 OFFCURVE",
"103 1364 OFFCURVE",
"103 1125 CURVE SMOOTH",
"103 848 OFFCURVE",
"292 785 OFFCURVE",
"574 694 CURVE SMOOTH",
"857 602 OFFCURVE",
"928 569 OFFCURVE",
"930 386 CURVE SMOOTH",
"931 243 OFFCURVE",
"842 161 OFFCURVE",
"641 161 CURVE SMOOTH",
"415 161 OFFCURVE",
"318 235 OFFCURVE",
"246 458 CURVE",
"51 373 LINE",
"98 117 OFFCURVE",
"280 -25 OFFCURVE",
"621 -25 CURVE SMOOTH"
);
}
);
userData = {
anchors = (
);
b = {
};
com.typemytype.robofont.layerData = {
};
components = (
);
contours = {
};
lib = {
};
name = S;
points = {
};
segmentType = curve;
unicodes = (
);
width = "1216";
x = "372";
y = "1491";
};
vertWidth = 0;
width = 1238;
},
{
anchors = (
{
name = top;
position = "{606, 1464}";
}
);
layerId = "E322F6D1-BA90-436B-BB35-51D9BD3EA9D1";
paths = (
{
closed = 1;
nodes = (
"934 -25 OFFCURVE",
"1154 127 OFFCURVE",
"1154 393 CURVE SMOOTH",
"1154 643 OFFCURVE",
"998 731 OFFCURVE",
"708 825 CURVE SMOOTH",
"492 896 OFFCURVE",
"276 931 OFFCURVE",
"276 1137 CURVE SMOOTH",
"276 1313 OFFCURVE",
"443 1380 OFFCURVE",
"635 1380 CURVE SMOOTH",
"794 1380 OFFCURVE",
"941 1307 OFFCURVE",
"1021 1164 CURVE",
"1124 1240 LINE",
"1007 1419 OFFCURVE",
"845 1491 OFFCURVE",
"614 1491 CURVE SMOOTH",
"378 1491 OFFCURVE",
"130 1379 OFFCURVE",
"130 1125 CURVE SMOOTH",
"130 883 OFFCURVE",
"328 808 OFFCURVE",
"561 734 CURVE SMOOTH",
"881 634 OFFCURVE",
"1008 585 OFFCURVE",
"1008 388 CURVE SMOOTH",
"1008 154 OFFCURVE",
"800 87 OFFCURVE",
"626 87 CURVE SMOOTH",
"374 87 OFFCURVE",
"218 197 OFFCURVE",
"158 423 CURVE",
"41 373 LINE",
"98 65 OFFCURVE",
"396 -25 OFFCURVE",
"611 -25 CURVE SMOOTH"
);
}
);
userData = {
anchors = (
);
b = {
};
com.typemytype.robofont.layerData = {
b = {
anchors = (
);
components = (
);
contours = (
);
lib = {
};
name = S;
unicodes = (
);
width = 1211;
};
};
components = (
);
contours = {
};
lib = {
};
name = S;
points = {
};
segmentType = curve;
unicodes = (
);
width = "1216";
x = "372";
y = "1491";
};
vertWidth = 0;
width = 1211;
}
);
unicode = 0053;
},
{
glyphname = T;
layers = (
{
anchors = (
{
name = top;
position = "{559.5, 1464}";
}
);
layerId = "8E6A00A3-5EF9-4E6D-9A7B-9C1BBC7D44AD";
paths = (
{
closed = 1;
nodes = (
"656 0 LINE",
"656 1331 LINE",
"1110 1331 LINE",
"1110 1464 LINE",
"9 1464 LINE",
"9 1331 LINE",
"481 1331 LINE",
"481 0 LINE"
);
}
);
userData = {
anchors = (
);
b = {
};
com.typemytype.robofont.layerData = {
};
components = (
);
contours = {
};
lib = {
};
name = T;
points = {
};
segmentType = line;
unicodes = (
);
width = "1119";
x = "483";
y = "1352";
};
vertWidth = 0;
width = 1119;
},
{
anchors = (
{
name = top;
position = "{559.5, 1464}";
}
);
layerId = "8DE4C137-4DC6-43A7-909D-C9F8072E6A1C";
paths = (
{
closed = 1;
nodes = (
"673 0 LINE",
"673 1310 LINE",
"1110 1310 LINE",
"1110 1464 LINE",
"9 1464 LINE",
"9 1310 LINE",
"468 1310 LINE",
"468 0 LINE"
);
}
);
userData = {
anchors = (
);
b = {
};
com.typemytype.robofont.layerData = {
};
components = (
);
contours = {
};
lib = {
};
name = T;
points = {
};
segmentType = line;
unicodes = (
);
width = "1119";
x = "483";
y = "1352";
};
vertWidth = 0;
width = 1119;
},
{
anchors = (
{
name = bot;
position = "{559.5, 0}";
},
{
name = mid;
position = "{559.5, 1023}";
},
{
name = top;
position = "{559.5, 1464}";
}
);
layerId = "28683A17-BAD2-44EA-B42B-E882FFDD4FE1";
paths = (
{
closed = 1;
nodes = (
"688 0 LINE",
"688 1292 LINE",
"1110 1292 LINE",
"1110 1464 LINE",
"9 1464 LINE",
"9 1292 LINE",
"457 1292 LINE",
"457 0 LINE"
);
}
);
userData = {
anchors = (
);
b = {
};
com.typemytype.robofont.layerData = {
};
components = (
);
contours = {
};
lib = {
};
name = T;
points = {
};
segmentType = line;
unicodes = (
);
width = "1119";
x = "483";
y = "1352";
};
vertWidth = 0;
width = 1119;
},
{
anchors = (
{
name = top;
position = "{560, 1464}";
}
);
layerId = "E322F6D1-BA90-436B-BB35-51D9BD3EA9D1";
paths = (
{
closed = 1;
nodes = (
"635 0 LINE",
"635 1357 LINE",
"1110 1357 LINE",
"1110 1464 LINE",
"9 1464 LINE",
"9 1357 LINE",
"496 1357 LINE",
"496 0 LINE"
);
}
);
userData = {
anchors = (
);
b = {
};
com.typemytype.robofont.layerData = {
b = {
anchors = (
);
components = (
);
contours = (
);
lib = {
};
name = T;
unicodes = (
);
width = 1119;
};
};
components = (
);
contours = {
};
lib = {
};
name = T;
points = {
};
segmentType = line;
unicodes = (
);
width = "1119";
x = "483";
y = "1352";
};
vertWidth = 0;
width = 1119;
}
);
unicode = 0054;
},
{
glyphname = Tbar;
layers = (
{
components = (
{
name = T;
}
);
layerId = "8E6A00A3-5EF9-4E6D-9A7B-9C1BBC7D44AD";
paths = (
{
closed = 1;
nodes = (
"884 723 LINE",
"884 843 LINE",
"243 843 LINE",
"243 723 LINE"
);
}
);
vertWidth = 0;
width = 1119;
},
{
components = (
{
name = T;
}
);
layerId = "8DE4C137-4DC6-43A7-909D-C9F8072E6A1C";
paths = (
{
closed = 1;
nodes = (
"885 682 LINE",
"885 822 LINE",
"247 822 LINE",
"247 682 LINE"
);
}
);
vertWidth = 0;
width = 1119;
},
{
components = (
{
name = T;
}
);
layerId = "28683A17-BAD2-44EA-B42B-E882FFDD4FE1";
paths = (
{
closed = 1;
nodes = (
"885 646 LINE",
"885 803 LINE",
"251 803 LINE",
"251 646 LINE"
);
}
);
vertWidth = 0;
width = 1119;
},
{
components = (
{
name = T;
}
);
layerId = "E322F6D1-BA90-436B-BB35-51D9BD3EA9D1";
paths = (
{
closed = 1;
nodes = (
"883 774 LINE",
"883 869 LINE",
"238 869 LINE",
"238 774 LINE"
);
}
);
vertWidth = 0;
width = 1119;
}
);
unicode = 0166;
},
{
glyphname = U;
layers = (
{
anchors = (
{
name = ogonek;
position = "{804, 0}";
},
{
name = top;
position = "{682, 1464}";
}
);
layerId = "8E6A00A3-5EF9-4E6D-9A7B-9C1BBC7D44AD";
paths = (
{
closed = 1;
nodes = (
"1058 -24 OFFCURVE",
"1244 159 OFFCURVE",
"1244 579 CURVE SMOOTH",
"1244 1464 LINE",
"1069 1464 LINE",
"1069 584 LINE SMOOTH",
"1069 289 OFFCURVE",
"996 115 OFFCURVE",
"684 115 CURVE SMOOTH",
"370 115 OFFCURVE",
"296 287 OFFCURVE",
"296 584 CURVE SMOOTH",
"296 1464 LINE",
"120 1464 LINE",
"120 572 LINE SMOOTH",
"120 150 OFFCURVE",
"312 -24 OFFCURVE",
"678 -24 CURVE SMOOTH"
);
}
);
userData = {
com.typemytype.robofont.layerData = {
};
};
vertWidth = 0;
width = 1364;
},
{
anchors = (
{
name = ogonek;
position = "{803, 0}";
},
{
name = top;
position = "{691.5, 1464}";
}
);
layerId = "8DE4C137-4DC6-43A7-909D-C9F8072E6A1C";
paths = (
{
closed = 1;
nodes = (
"1071 -24 OFFCURVE",
"1265 160 OFFCURVE",
"1265 580 CURVE SMOOTH",
"1265 1464 LINE",
"1060 1464 LINE",
"1060 593 LINE SMOOTH",
"1060 298 OFFCURVE",
"991 138 OFFCURVE",
"693 138 CURVE SMOOTH",
"393 138 OFFCURVE",
"323 301 OFFCURVE",
"323 593 CURVE SMOOTH",
"323 1464 LINE",
"117 1464 LINE",
"117 573 LINE SMOOTH",
"117 151 OFFCURVE",
"317 -24 OFFCURVE",
"687 -24 CURVE SMOOTH"
);
}
);
userData = {
com.typemytype.robofont.layerData = {
};
};
vertWidth = 0;
width = 1383;
},
{
anchors = (
{
name = bot;
position = "{699.5, 0}";
},
{
name = ogonek;
position = "{803, 0}";
},
{
name = top;
position = "{699.5, 1464}";
}
);
layerId = "28683A17-BAD2-44EA-B42B-E882FFDD4FE1";
paths = (
{
closed = 1;
nodes = (
"1082 -24 OFFCURVE",
"1284 162 OFFCURVE",
"1284 582 CURVE SMOOTH",
"1284 1464 LINE",
"1053 1464 LINE",
"1053 602 LINE SMOOTH",
"1053 307 OFFCURVE",
"986 159 OFFCURVE",
"700 159 CURVE SMOOTH",
"412 159 OFFCURVE",
"346 313 OFFCURVE",
"346 602 CURVE SMOOTH",
"346 1464 LINE",
"115 1464 LINE",
"115 575 LINE SMOOTH",
"115 152 OFFCURVE",
"321 -24 OFFCURVE",
"694 -24 CURVE SMOOTH"
);
}
);
userData = {
com.typemytype.robofont.layerData = {
};
};
vertWidth = 0;
width = 1399;
},
{
anchors = (
{
name = ogonek;
position = "{805, 0}";
},
{
name = top;
position = "{670, 1464}";
}
);
layerId = "E322F6D1-BA90-436B-BB35-51D9BD3EA9D1";
paths = (
{
closed = 1;
nodes = (
"1043 -24 OFFCURVE",
"1218 157 OFFCURVE",
"1218 577 CURVE SMOOTH",
"1218 1464 LINE",
"1079 1464 LINE",
"1079 572 LINE SMOOTH",
"1079 277 OFFCURVE",
"1003 86 OFFCURVE",
"674 86 CURVE SMOOTH",
"342 86 OFFCURVE",
"262 270 OFFCURVE",
"262 572 CURVE SMOOTH",
"262 1464 LINE",
"124 1464 LINE",
"124 570 LINE SMOOTH",
"124 149 OFFCURVE",
"307 -24 OFFCURVE",
"668 -24 CURVE SMOOTH"
);
}
);
userData = {
com.typemytype.robofont.layerData = {
b = {
anchors = (
);
components = (
);
contours = (
);
lib = {
};
name = U;
unicodes = (
);
width = 1341;
};
};
};
vertWidth = 0;
width = 1341;
}
);
unicode = 0055;
},
{
glyphname = V;
layers = (
{
layerId = "8E6A00A3-5EF9-4E6D-9A7B-9C1BBC7D44AD";
paths = (
{
closed = 1;
nodes = (
"666 0 LINE",
"1168 1464 LINE",
"995 1464 LINE",
"587 231 LINE",
"172 1464 LINE",
"-10 1464 LINE",
"499 0 LINE"
);
}
);
userData = {
com.typemytype.robofont.layerData = {
};
};
vertWidth = 0;
width = 1164;
},
{
layerId = "8DE4C137-4DC6-43A7-909D-C9F8072E6A1C";
paths = (
{
closed = 1;
nodes = (
"681 0 LINE",
"1174 1464 LINE",
"972 1464 LINE",
"588 268 LINE",
"201 1464 LINE",
"-12 1464 LINE",
"484 0 LINE"
);
}
);
userData = {
com.typemytype.robofont.layerData = {
};
};
vertWidth = 0;
width = 1164;
},
{
layerId = "28683A17-BAD2-44EA-B42B-E882FFDD4FE1";
paths = (
{
closed = 1;
nodes = (
"694 0 LINE",
"1179 1464 LINE",
"951 1464 LINE",
"589 301 LINE",
"226 1464 LINE",
"-14 1464 LINE",
"472 0 LINE"
);
}
);
userData = {
com.typemytype.robofont.layerData = {
};
};
vertWidth = 0;
width = 1164;
},
{
layerId = "E322F6D1-BA90-436B-BB35-51D9BD3EA9D1";
paths = (
{
closed = 1;
nodes = (
"647 0 LINE",
"1161 1464 LINE",
"1024 1464 LINE",
"586 184 LINE",
"136 1464 LINE",
"-8 1464 LINE",
"517 0 LINE"
);
}
);
userData = {
com.typemytype.robofont.layerData = {
b = {
anchors = (
);
components = (
);
contours = (
);
lib = {
};
name = V;
unicodes = (
);
width = 1164;
};
};
};
vertWidth = 0;
width = 1164;
}
);
unicode = 0056;
},
{
glyphname = W;
layers = (
{
anchors = (
{
name = top;
position = "{917.5, 1464}";
}
);
layerId = "8E6A00A3-5EF9-4E6D-9A7B-9C1BBC7D44AD";
paths = (
{
closed = 1;
nodes = (
"563 0 LINE",
"924 1129 LINE",
"1246 0 LINE",
"1398 0 LINE",
"1823 1464 LINE",
"1656 1464 LINE",
"1333 260 LINE",
"998 1464 LINE",
"874 1464 LINE",
"503 281 LINE",
"195 1464 LINE",
"12 1464 LINE",
"429 0 LINE"
);
}
);
userData = {
anchors = (
);
b = {
};
com.typemytype.robofont.layerData = {
};
components = (
);
contours = (
);
lib = {
};
name = W;
unicodes = (
);
width = "1797";
};
vertWidth = 0;
width = 1835;
},
{
anchors = (
{
name = top;
position = "{949, 1464}";
}
);
layerId = "8DE4C137-4DC6-43A7-909D-C9F8072E6A1C";
paths = (
{
closed = 1;
nodes = (
"578 0 LINE",
"933 1070 LINE",
"1241 0 LINE",
"1417 0 LINE",
"1854 1464 LINE",
"1659 1464 LINE",
"1342 303 LINE",
"1019 1464 LINE",
"875 1464 LINE",
"508 328 LINE",
"218 1464 LINE",
"4 1464 LINE",
"421 0 LINE"
);
}
);
userData = {
anchors = (
);
b = {
};
com.typemytype.robofont.layerData = {
};
components = (
);
contours = (
);
lib = {
};
name = W;
unicodes = (
);
width = "1797";
};
vertWidth = 0;
width = 1858;
},
{
anchors = (
{
name = bot;
position = "{938.5, 0}";
},
{
name = top;
position = "{938.5, 1464}";
}
);
layerId = "28683A17-BAD2-44EA-B42B-E882FFDD4FE1";
paths = (
{
closed = 1;
nodes = (
"592 0 LINE",
"941 1019 LINE",
"1236 0 LINE",
"1434 0 LINE",
"1880 1464 LINE",
"1661 1464 LINE",
"1349 341 LINE",
"1038 1464 LINE",
"876 1464 LINE",
"513 369 LINE",
"238 1464 LINE",
"-3 1464 LINE",
"414 0 LINE"
);
}
);
userData = {
anchors = (
);
b = {
};
com.typemytype.robofont.layerData = {
};
components = (
);
contours = (
);
lib = {
};
name = W;
unicodes = (
);
width = "1797";
};
vertWidth = 0;
width = 1877;
},
{
anchors = (
{
name = top;
position = "{904, 1464}";
}
);
layerId = "E322F6D1-BA90-436B-BB35-51D9BD3EA9D1";
paths = (
{
closed = 1;
nodes = (
"544 0 LINE",
"913 1202 LINE",
"1253 0 LINE",
"1373 0 LINE",
"1785 1464 LINE",
"1653 1464 LINE",
"1322 206 LINE",
"972 1464 LINE",
"873 1464 LINE",
"497 222 LINE",
"166 1464 LINE",
"22 1464 LINE",
"439 0 LINE"
);
}
);
userData = {
anchors = (
);
b = {
};
com.typemytype.robofont.layerData = {
b = {
anchors = (
);
components = (
);
contours = (
);
lib = {
};
name = W;
unicodes = (
);
width = 1807;
};
};
components = (
);
contours = (
);
lib = {
};
name = W;
unicodes = (
);
width = "1797";
};
vertWidth = 0;
width = 1807;
}
);
unicode = 0057;
},
{
glyphname = X;
layers = (
{
layerId = "8E6A00A3-5EF9-4E6D-9A7B-9C1BBC7D44AD";
paths = (
{
closed = 1;
nodes = (
"202 0 LINE",
"631 618 LINE",
"1060 0 LINE",
"1267 0 LINE",
"736 769 LINE",
"1225 1464 LINE",
"1025 1464 LINE",
"638 910 LINE",
"254 1464 LINE",
"45 1464 LINE",
"533 759 LINE",
"2 0 LINE"
);
}
);
userData = {
anchors = (
);
b = {
};
com.typemytype.robofont.layerData = {
};
components = (
);
contours = {
};
lib = {
};
name = X;
points = {
};
segmentType = line;
unicodes = (
);
width = "1245";
x = "1239";
y = "0";
};
vertWidth = 0;
width = 1269;
},
{
layerId = "8DE4C137-4DC6-43A7-909D-C9F8072E6A1C";
paths = (
{
closed = 1;
nodes = (
"231 0 LINE",
"642 593 LINE",
"1053 0 LINE",
"1296 0 LINE",
"765 768 LINE",
"1254 1464 LINE",
"1022 1464 LINE",
"651 933 LINE",
"283 1464 LINE",
"38 1464 LINE",
"528 757 LINE",
"-2 0 LINE"
);
}
);
userData = {
anchors = (
);
b = {
};
com.typemytype.robofont.layerData = {
};
components = (
);
contours = {
};
lib = {
};
name = X;
points = {
};
segmentType = line;
unicodes = (
);
width = "1245";
x = "1239";
y = "0";
};
vertWidth = 0;
width = 1294;
},
{
layerId = "28683A17-BAD2-44EA-B42B-E882FFDD4FE1";
paths = (
{
closed = 1;
nodes = (
"257 0 LINE",
"652 571 LINE",
"1048 0 LINE",
"1321 0 LINE",
"790 768 LINE",
"1280 1464 LINE",
"1019 1464 LINE",
"662 953 LINE",
"308 1464 LINE",
"33 1464 LINE",
"524 755 LINE",
"-6 0 LINE"
);
}
);
userData = {
anchors = (
);
b = {
};
com.typemytype.robofont.layerData = {
};
components = (
);
contours = {
};
lib = {
};
name = X;
points = {
};
segmentType = line;
unicodes = (
);
width = "1245";
x = "1239";
y = "0";
};
vertWidth = 0;
width = 1315;
},
{
layerId = "E322F6D1-BA90-436B-BB35-51D9BD3EA9D1";
paths = (
{
closed = 1;
nodes = (
"166 0 LINE",
"617 649 LINE",
"1068 0 LINE",
"1232 0 LINE",
"700 769 LINE",
"1188 1464 LINE",
"1030 1464 LINE",
"622 881 LINE",
"219 1464 LINE",
"53 1464 LINE",
"539 762 LINE",
"7 0 LINE"
);
}
);
userData = {
anchors = (
);
b = {
};
com.typemytype.robofont.layerData = {
b = {
anchors = (
);
components = (
);
contours = (
);
lib = {
};
name = X;
unicodes = (
);
width = 1239;
};
};
components = (
);
contours = {
};
lib = {
};
name = X;
points = {
};
segmentType = line;
unicodes = (
);
width = "1245";
x = "1239";
y = "0";
};
vertWidth = 0;
width = 1239;
}
);
unicode = 0058;
},
{
glyphname = Y;
layers = (
{
anchors = (
{
name = top;
position = "{592, 1464}";
}
);
layerId = "8E6A00A3-5EF9-4E6D-9A7B-9C1BBC7D44AD";
paths = (
{
closed = 1;
nodes = (
"680 0 LINE",
"680 548 LINE",
"1186 1464 LINE",
"999 1464 LINE",
"595 707 LINE",
"186 1464 LINE",
"-3 1464 LINE",
"506 549 LINE",
"506 0 LINE"
);
}
);
userData = {
com.typemytype.robofont.layerData = {
};
};
vertWidth = 0;
width = 1184;
},
{
anchors = (
{
name = top;
position = "{639, 1464}";
}
);
layerId = "8DE4C137-4DC6-43A7-909D-C9F8072E6A1C";
paths = (
{
closed = 1;
nodes = (
"706 0 LINE",
"706 548 LINE",
"1207 1464 LINE",
"988 1464 LINE",
"606 734 LINE",
"218 1464 LINE",
"-2 1464 LINE",
"503 549 LINE",
"503 0 LINE"
);
}
);
userData = {
com.typemytype.robofont.layerData = {
};
};
vertWidth = 0;
width = 1205;
},
{
anchors = (
{
name = bot;
position = "{612, 0}";
},
{
name = top;
position = "{612, 1464}";
}
);
layerId = "28683A17-BAD2-44EA-B42B-E882FFDD4FE1";
paths = (
{
closed = 1;
nodes = (
"729 0 LINE",
"729 548 LINE",
"1226 1464 LINE",
"979 1464 LINE",
"616 757 LINE",
"246 1464 LINE",
"-2 1464 LINE",
"500 549 LINE",
"500 0 LINE"
);
}
);
userData = {
com.typemytype.robofont.layerData = {
};
};
vertWidth = 0;
width = 1224;
},
{
anchors = (
{
name = top;
position = "{578, 1464}";
}
);
layerId = "E322F6D1-BA90-436B-BB35-51D9BD3EA9D1";
paths = (
{
closed = 1;
nodes = (
"648 0 LINE",
"648 548 LINE",
"1160 1464 LINE",
"1012 1464 LINE",
"580 674 LINE",
"146 1464 LINE",
"-3 1464 LINE",
"510 549 LINE",
"510 0 LINE"
);
}
);
userData = {
com.typemytype.robofont.layerData = {
b = {
anchors = (
);
components = (
);
contours = (
);
lib = {
};
name = Y;
unicodes = (
);
width = 1157;
};
};
};
vertWidth = 0;
width = 1157;
}
);
unicode = 0059;
},
{
glyphname = Z;
layers = (
{
anchors = (
{
name = top;
position = "{588, 1464}";
}
);
layerId = "8E6A00A3-5EF9-4E6D-9A7B-9C1BBC7D44AD";
paths = (
{
closed = 1;
nodes = (
"1134 0 LINE",
"1140 132 LINE",
"269 132 LINE",
"1134 1351 LINE",
"1134 1464 LINE",
"128 1464 LINE",
"128 1332 LINE",
"909 1332 LINE",
"45 118 LINE",
"45 0 LINE"
);
}
);
userData = {
com.typemytype.robofont.layerData = {
};
};
vertWidth = 0;
width = 1176;
},
{
anchors = (
{
name = top;
position = "{618, 1464}";
}
);
layerId = "8DE4C137-4DC6-43A7-909D-C9F8072E6A1C";
paths = (
{
closed = 1;
nodes = (
"1134 0 LINE",
"1141 154 LINE",
"304 154 LINE",
"1135 1334 LINE",
"1135 1464 LINE",
"126 1464 LINE",
"126 1309 LINE",
"872 1309 LINE",
"43 138 LINE",
"43 0 LINE"
);
}
);
userData = {
com.typemytype.robofont.layerData = {
};
};
vertWidth = 0;
width = 1176;
},
{
anchors = (
{
name = bot;
position = "{588, 0}";
},
{
name = top;
position = "{588, 1464}";
}
);
layerId = "28683A17-BAD2-44EA-B42B-E882FFDD4FE1";
paths = (
{
closed = 1;
nodes = (
"1134 0 LINE",
"1141 173 LINE",
"335 173 LINE",
"1137 1318 LINE",
"1137 1464 LINE",
"124 1464 LINE",
"124 1290 LINE",
"839 1290 LINE",
"41 156 LINE",
"41 0 LINE"
);
}
);
userData = {
com.typemytype.robofont.layerData = {
};
};
vertWidth = 0;
width = 1176;
},
{
anchors = (
{
name = top;
position = "{588, 1464}";
}
);
layerId = "E322F6D1-BA90-436B-BB35-51D9BD3EA9D1";
paths = (
{
closed = 1;
nodes = (
"1134 0 LINE",
"1139 105 LINE",
"225 105 LINE",
"1132 1373 LINE",
"1132 1464 LINE",
"131 1464 LINE",
"131 1360 LINE",
"955 1360 LINE",
"48 93 LINE",
"48 0 LINE"
);
}
);
userData = {
com.typemytype.robofont.layerData = {
b = {
anchors = (
);
components = (
);
contours = (
);
lib = {
};
name = Z;
unicodes = (
);
width = 1176;
};
};
};
vertWidth = 0;
width = 1176;
}
);
unicode = 005A;
},
{
glyphname = a;
layers = (
{
anchors = (
{
name = ogonek;
position = "{822, 0}";
},
{
name = top;
position = "{501, 1023}";
}
);
layerId = "8E6A00A3-5EF9-4E6D-9A7B-9C1BBC7D44AD";
paths = (
{
closed = 1;
nodes = (
"541 -25 OFFCURVE",
"654 28 OFFCURVE",
"726 128 CURVE",
"741 0 LINE",
"887 0 LINE",
"887 676 LINE SMOOTH",
"887 929 OFFCURVE",
"755 1045 OFFCURVE",
"513 1045 CURVE SMOOTH",
"345 1045 OFFCURVE",
"229 1001 OFFCURVE",
"119 919 CURVE",
"119 919 OFFCURVE",
"187 819 OFFCURVE",
"187 818 CURVE",
"281 887 OFFCURVE",
"380 924 OFFCURVE",
"505 924 CURVE SMOOTH",
"676 924 OFFCURVE",
"717 856 OFFCURVE",
"717 645 CURVE SMOOTH",
"717 594 LINE",
"604 577 LINE SMOOTH",
"288 530 OFFCURVE",
"90 491 OFFCURVE",
"90 235 CURVE SMOOTH",
"90 57 OFFCURVE",
"225 -25 OFFCURVE",
"394 -25 CURVE SMOOTH"
);
},
{
closed = 1;
nodes = (
"294.895 95 OFFCURVE",
"247.988 146.875 OFFCURVE",
"247.988 253.123 CURVE SMOOTH",
"247.988 377.676 OFFCURVE",
"308.316 418.379 OFFCURVE",
"587 464 CURVE",
"717 486 LINE",
"717 243 LINE",
"637 147 OFFCURVE",
"542 95 OFFCURVE",
"421 95 CURVE SMOOTH"
);
}
);
userData = {
anchors = (
);
b = {
};
com.typemytype.robofont.layerData = {
};
components = (
);
contours = {
};
lib = {
};
name = a;
points = {
};
segmentType = line;
unicodes = (
);
width = "999";
x = "736";
y = "500";
};
vertWidth = 0;
width = 1002;
},
{
anchors = (
{
name = ogonek;
position = "{813, 0}";
},
{
name = top;
position = "{501.5, 1023}";
}
);
layerId = "8DE4C137-4DC6-43A7-909D-C9F8072E6A1C";
paths = (
{
closed = 1;
nodes = (
"528 -24 OFFCURVE",
"639 26 OFFCURVE",
"709 123 CURVE",
"726 0 LINE",
"896 0 LINE",
"896 679 LINE SMOOTH",
"896 932 OFFCURVE",
"747 1046 OFFCURVE",
"504 1046 CURVE SMOOTH",
"330 1046 OFFCURVE",
"218 1002 OFFCURVE",
"106 920 CURVE",
"106 920 OFFCURVE",
"184 804 OFFCURVE",
"184 803 CURVE",
"273 864 OFFCURVE",
"359 905 OFFCURVE",
"496 905 CURVE SMOOTH",
"667 905 OFFCURVE",
"698 833 OFFCURVE",
"698 643 CURVE SMOOTH",
"698 599 LINE",
"581 580 LINE",
"285 535 OFFCURVE",
"77 498 OFFCURVE",
"77 242 CURVE SMOOTH",
"77 64 OFFCURVE",
"213 -24 OFFCURVE",
"391 -24 CURVE SMOOTH"
);
},
{
closed = 1;
nodes = (
"295.095 115 OFFCURVE",
"260.893 171.368 OFFCURVE",
"260.893 265.147 CURVE SMOOTH",
"260.893 375.472 OFFCURVE",
"322.881 406.063 OFFCURVE",
"566 450 CURVE SMOOTH",
"698 474 LINE",
"698 256 LINE",
"624 171 OFFCURVE",
"539 115 OFFCURVE",
"418 115 CURVE SMOOTH"
);
}
);
userData = {
anchors = (
);
b = {
};
com.typemytype.robofont.layerData = {
};
components = (
);
contours = {
};
lib = {
};
name = a;
points = {
};
segmentType = line;
unicodes = (
);
width = "999";
x = "736";
y = "500";
};
vertWidth = 0;
width = 1003;
},
{
anchors = (
{
name = bot;
position = "{502, 0}";
},
{
name = ogonek;
position = "{792, 0}";
},
{
name = top;
position = "{502, 1023}";
}
);
layerId = "28683A17-BAD2-44EA-B42B-E882FFDD4FE1";
paths = (
{
closed = 1;
nodes = (
"517 -24 OFFCURVE",
"627 24 OFFCURVE",
"694 118 CURVE",
"712 0 LINE",
"903 0 LINE",
"903 681 LINE SMOOTH",
"903 935 OFFCURVE",
"740 1047 OFFCURVE",
"496 1047 CURVE SMOOTH",
"317 1047 OFFCURVE",
"209 1004 OFFCURVE",
"94 921 CURVE",
"94 921 OFFCURVE",
"181 790 OFFCURVE",
"181 789 CURVE",
"266 845 OFFCURVE",
"341 889 OFFCURVE",
"488 889 CURVE SMOOTH",
"658 889 OFFCURVE",
"681 812 OFFCURVE",
"681 641 CURVE SMOOTH",
"681 603 LINE",
"560 583 LINE SMOOTH",
"283 539 OFFCURVE",
"65 503 OFFCURVE",
"65 247 CURVE SMOOTH",
"65 71 OFFCURVE",
"203 -24 OFFCURVE",
"388 -24 CURVE SMOOTH"
);
},
{
closed = 1;
nodes = (
"301 133 OFFCURVE",
"274 188 OFFCURVE",
"272 264 CURVE SMOOTH",
"268 372 OFFCURVE",
"327 394 OFFCURVE",
"547 438 CURVE SMOOTH",
"681 464 LINE",
"681 268 LINE",
"613 192 OFFCURVE",
"537 133 OFFCURVE",
"416 133 CURVE SMOOTH"
);
}
);
userData = {
anchors = (
);
b = {
};
com.typemytype.robofont.layerData = {
};
components = (
);
contours = {
};
lib = {
};
name = a;
points = {
};
segmentType = line;
unicodes = (
);
width = "999";
x = "736";
y = "500";
};
vertWidth = 0;
width = 1004;
},
{
anchors = (
{
name = ogonek;
position = "{820, 0}";
},
{
name = top;
position = "{500, 1023}";
}
);
layerId = "E322F6D1-BA90-436B-BB35-51D9BD3EA9D1";
paths = (
{
closed = 1;
nodes = (
"556 -25 OFFCURVE",
"672 31 OFFCURVE",
"747 134 CURVE",
"760 0 LINE",
"876 0 LINE",
"876 672 LINE SMOOTH",
"876 925 OFFCURVE",
"765 1044 OFFCURVE",
"524 1044 CURVE SMOOTH",
"364 1044 OFFCURVE",
"242 999 OFFCURVE",
"136 918 CURVE",
"136 918 OFFCURVE",
"191 838 OFFCURVE",
"191 837 CURVE",
"291 915 OFFCURVE",
"405 947 OFFCURVE",
"516 947 CURVE SMOOTH",
"688 947 OFFCURVE",
"741 885 OFFCURVE",
"741 648 CURVE SMOOTH",
"741 588 LINE",
"634 572 LINE",
"291 525 OFFCURVE",
"106 483 OFFCURVE",
"106 227 CURVE SMOOTH",
"106 48 OFFCURVE",
"240 -25 OFFCURVE",
"399 -25 CURVE SMOOTH"
);
},
{
closed = 1;
nodes = (
"292 70 OFFCURVE",
"232 118 OFFCURVE",
"232 241 CURVE SMOOTH",
"232 381 OFFCURVE",
"291 434 OFFCURVE",
"614 482 CURVE SMOOTH",
"741 501 LINE",
"741 227 LINE",
"652 117 OFFCURVE",
"545 70 OFFCURVE",
"424 70 CURVE SMOOTH"
);
}
);
userData = {
anchors = (
);
b = {
};
com.typemytype.robofont.layerData = {
b = {
anchors = (
);
components = (
);
contours = (
);
lib = {
};
name = a;
unicodes = (
);
width = 1001;
};
};
components = (
);
contours = {
};
lib = {
};
name = a;
points = {
};
segmentType = line;
unicodes = (
);
width = "999";
x = "736";
y = "500";
};
vertWidth = 0;
width = 1001;
}
);
unicode = 0061;
},
{
glyphname = ae;
layers = (
{
anchors = (
{
name = top;
position = "{858, 1023}";
}
);
layerId = "8E6A00A3-5EF9-4E6D-9A7B-9C1BBC7D44AD";
paths = (
{
closed = 1;
nodes = (
"617 -24 OFFCURVE",
"757 37 OFFCURVE",
"829 203 CURVE",
"888 40 OFFCURVE",
"1044 -24 OFFCURVE",
"1195 -24 CURVE SMOOTH",
"1375 -23 OFFCURVE",
"1515 83 OFFCURVE",
"1570 234 CURVE",
"1453 283 LINE",
"1426 218 OFFCURVE",
"1358 100 OFFCURVE",
"1195 100 CURVE SMOOTH",
"995 101 OFFCURVE",
"920 249 OFFCURVE",
"913 487 CURVE",
"1588 499 LINE",
"1590 516 OFFCURVE",
"1591 563 OFFCURVE",
"1591 572 CURVE SMOOTH",
"1591 844 OFFCURVE",
"1477 1045 OFFCURVE",
"1192 1045 CURVE SMOOTH",
"1049 1045 OFFCURVE",
"914 978 OFFCURVE",
"848 831 CURVE",
"801 991 OFFCURVE",
"671 1045 OFFCURVE",
"518 1045 CURVE SMOOTH",
"366 1045 OFFCURVE",
"245 1008 OFFCURVE",
"131 929 CURVE",
"197 824 LINE",
"277.12 875.572 OFFCURVE",
"369.961 922.054 OFFCURVE",
"497.393 922.054 CURVE SMOOTH",
"702.646 922.054 OFFCURVE",
"740.817 832.762 OFFCURVE",
"744 594 CURVE",
"578 592 LINE",
"264.584 586.196 OFFCURVE",
"79.364 507.405 OFFCURVE",
"79.364 273.257 CURVE SMOOTH",
"79.364 62.083 OFFCURVE",
"237.355 -24 OFFCURVE",
"429 -24 CURVE SMOOTH"
);
},
{
closed = 1;
nodes = (
"324.135 99.858 OFFCURVE",
"250.126 153.51 OFFCURVE",
"250.126 275.787 CURVE SMOOTH",
"250.126 425.051 OFFCURVE",
"380.841 467.225 OFFCURVE",
"590 472 CURVE SMOOTH",
"744 475 LINE",
"744 396 LINE SMOOTH",
"744 181.197 OFFCURVE",
"630.556 99.858 OFFCURVE",
"454.861 99.858 CURVE SMOOTH"
);
},
{
closed = 1;
nodes = (
"925 786 OFFCURVE",
"1021 922 OFFCURVE",
"1192 922 CURVE SMOOTH",
"1363 922 OFFCURVE",
"1430 814 OFFCURVE",
"1441 610 CURVE",
"915 600 LINE"
);
}
);
userData = {
anchors = (
);
b = {
};
com.typemytype.robofont.layerData = {
};
components = (
);
contours = {
};
lib = {
};
name = ae;
points = {
};
segmentType = curve;
unicodes = (
);
width = "1667";
x = "771";
y = "158";
};
vertWidth = 0;
width = 1667;
},
{
anchors = (
{
name = top;
position = "{833.5, 1023}";
}
);
layerId = "8DE4C137-4DC6-43A7-909D-C9F8072E6A1C";
paths = (
{
closed = 1;
nodes = (
"598 -24 OFFCURVE",
"737 24 OFFCURVE",
"827 186 CURVE",
"890 35 OFFCURVE",
"1035 -24 OFFCURVE",
"1195 -24 CURVE SMOOTH",
"1371 -22 OFFCURVE",
"1515 83 OFFCURVE",
"1570 234 CURVE",
"1432 290 LINE",
"1408.11 233.253 OFFCURVE",
"1342.59 121.993 OFFCURVE",
"1193.99 121.993 CURVE SMOOTH",
"1002.33 121.993 OFFCURVE",
"932.995 248.171 OFFCURVE",
"926 480 CURVE",
"1592 492 LINE",
"1594 509 OFFCURVE",
"1595 563 OFFCURVE",
"1595 572 CURVE SMOOTH",
"1595 844 OFFCURVE",
"1476 1046 OFFCURVE",
"1191 1046 CURVE SMOOTH",
"1052 1046 OFFCURVE",
"917 987 OFFCURVE",
"848 848 CURVE",
"798 1005 OFFCURVE",
"648 1046 OFFCURVE",
"518 1046 CURVE SMOOTH",
"366 1046 OFFCURVE",
"243 1010 OFFCURVE",
"129 931 CURVE",
"206 807 LINE",
"284.534 857.55 OFFCURVE",
"381.809 901.582 OFFCURVE",
"494.883 901.582 CURVE SMOOTH",
"687.806 901.582 OFFCURVE",
"723.777 812.365 OFFCURVE",
"727 605 CURVE",
"593 603 LINE SMOOTH",
"267.198 597.217 OFFCURVE",
"75.19 507.812 OFFCURVE",
"75.19 273.885 CURVE SMOOTH",
"75.19 60.663 OFFCURVE",
"241.127 -24 OFFCURVE",
"429 -24 CURVE SMOOTH"
);
},
{
closed = 1;
nodes = (
"339.347 120.694 OFFCURVE",
"274.828 172.016 OFFCURVE",
"274.828 275.313 CURVE SMOOTH",
"274.828 411.306 OFFCURVE",
"402.443 458.261 OFFCURVE",
"610 463 CURVE",
"729 465 LINE",
"729 377 LINE SMOOTH",
"729 203.125 OFFCURVE",
"616.094 120.694 OFFCURVE",
"459.687 120.694 CURVE SMOOTH"
);
},
{
closed = 1;
nodes = (
"942 771 OFFCURVE",
"1022 901 OFFCURVE",
"1189 901 CURVE SMOOTH",
"1350 901 OFFCURVE",
"1407 796 OFFCURVE",
"1418 620 CURVE",
"929 611 LINE"
);
}
);
userData = {
anchors = (
);
b = {
};
com.typemytype.robofont.layerData = {
};
components = (
);
contours = {
};
lib = {
};
name = ae;
points = {
};
segmentType = curve;
unicodes = (
);
width = "1667";
x = "771";
y = "158";
};
vertWidth = 0;
width = 1667;
},
{
anchors = (
{
name = top;
position = "{833.5, 1023}";
}
);
layerId = "28683A17-BAD2-44EA-B42B-E882FFDD4FE1";
paths = (
{
closed = 1;
nodes = (
"582 -24 OFFCURVE",
"720 12 OFFCURVE",
"825 171 CURVE",
"892 30 OFFCURVE",
"1027 -24 OFFCURVE",
"1195 -24 CURVE SMOOTH",
"1368 -22 OFFCURVE",
"1515 83 OFFCURVE",
"1570 234 CURVE",
"1414 296 LINE",
"1392 245 OFFCURVE",
"1328 140 OFFCURVE",
"1190 141 CURVE SMOOTH",
"1007 144 OFFCURVE",
"945 248 OFFCURVE",
"938 473 CURVE",
"1596 485 LINE",
"1598 502 OFFCURVE",
"1599 563 OFFCURVE",
"1599 572 CURVE SMOOTH",
"1599 844 OFFCURVE",
"1476 1047 OFFCURVE",
"1191 1047 CURVE SMOOTH",
"1054 1047 OFFCURVE",
"919 995 OFFCURVE",
"848 863 CURVE",
"795 1017 OFFCURVE",
"627 1047 OFFCURVE",
"518 1047 CURVE SMOOTH",
"366 1047 OFFCURVE",
"241 1012 OFFCURVE",
"127 933 CURVE",
"215 793 LINE",
"302 849 OFFCURVE",
"417 895 OFFCURVE",
"533 882 CURVE SMOOTH",
"684 866 OFFCURVE",
"710 779 OFFCURVE",
"713 614 CURVE",
"606 612 LINE SMOOTH",
"255 606 OFFCURVE",
"56 500 OFFCURVE",
"73 245 CURVE SMOOTH",
"85 52 OFFCURVE",
"256 -24 OFFCURVE",
"429 -24 CURVE SMOOTH"
);
},
{
closed = 1;
nodes = (
"353 146 OFFCURVE",
"305 189 OFFCURVE",
"297 250 CURVE SMOOTH",
"281 392 OFFCURVE",
"409 449 OFFCURVE",
"628 454 CURVE SMOOTH",
"715 456 LINE",
"715 361 LINE SMOOTH",
"715 216 OFFCURVE",
"593 131 OFFCURVE",
"445 140 CURVE SMOOTH"
);
},
{
closed = 1;
nodes = (
"956 757 OFFCURVE",
"1023 883 OFFCURVE",
"1186 883 CURVE SMOOTH",
"1339 883 OFFCURVE",
"1386 780 OFFCURVE",
"1398 629 CURVE",
"941 620 LINE"
);
}
);
userData = {
anchors = (
);
b = {
};
com.typemytype.robofont.layerData = {
};
components = (
);
contours = {
};
lib = {
};
name = ae;
points = {
};
segmentType = curve;
unicodes = (
);
width = "1667";
x = "771";
y = "158";
};
vertWidth = 0;
width = 1667;
},
{
anchors = (
{
name = top;
position = "{834, 1023}";
}
);
layerId = "E322F6D1-BA90-436B-BB35-51D9BD3EA9D1";
paths = (
{
closed = 1;
nodes = (
"640 -24 OFFCURVE",
"782 53 OFFCURVE",
"832 224 CURVE",
"886 47 OFFCURVE",
"1055 -24 OFFCURVE",
"1195 -24 CURVE SMOOTH",
"1380 -23 OFFCURVE",
"1515 83 OFFCURVE",
"1570 234 CURVE",
"1479 274 LINE",
"1449 200 OFFCURVE",
"1378 73 OFFCURVE",
"1199 73 CURVE SMOOTH",
"1198.41 72.997 OFFCURVE",
"1197.82 72.996 OFFCURVE",
"1197.22 72.996 CURVE SMOOTH",
"986.531 72.996 OFFCURVE",
"902.983 250.688 OFFCURVE",
"897 496 CURVE",
"1583 508 LINE",
"1585 525 OFFCURVE",
"1586 563 OFFCURVE",
"1586 572 CURVE SMOOTH",
"1586 844 OFFCURVE",
"1478 1044 OFFCURVE",
"1193 1044 CURVE SMOOTH",
"1046 1044 OFFCURVE",
"911 967 OFFCURVE",
"848 810 CURVE",
"805 974 OFFCURVE",
"701 1044 OFFCURVE",
"518 1044 CURVE SMOOTH",
"366 1044 OFFCURVE",
"248 1006 OFFCURVE",
"134 927 CURVE",
"185 844 LINE",
"267.464 897.08 OFFCURVE",
"356.217 947.465 OFFCURVE",
"504.91 947.465 CURVE SMOOTH",
"722.239 947.465 OFFCURVE",
"760.87 857.447 OFFCURVE",
"764 581 CURVE",
"559 578 LINE SMOOTH",
"262.105 573.133 OFFCURVE",
"84.602 506.674 OFFCURVE",
"84.602 271.628 CURVE SMOOTH",
"84.602 63.961 OFFCURVE",
"233.117 -24 OFFCURVE",
"429 -24 CURVE SMOOTH"
);
},
{
closed = 1;
nodes = (
"301.508 72.987 OFFCURVE",
"219.383 136.243 OFFCURVE",
"219.383 276.973 CURVE SMOOTH",
"219.383 442.875 OFFCURVE",
"354.207 479.187 OFFCURVE",
"565 484 CURVE SMOOTH",
"764 488 LINE",
"764 419 LINE SMOOTH",
"764 149 OFFCURVE",
"646 73 OFFCURVE",
"440 73 CURVE SMOOTH",
"438.88 72.991 OFFCURVE",
"437.764 72.987 OFFCURVE",
"436.652 72.987 CURVE SMOOTH"
);
},
{
closed = 1;
nodes = (
"905 806 OFFCURVE",
"1020 947 OFFCURVE",
"1197 947 CURVE SMOOTH",
"1378 947 OFFCURVE",
"1460 837 OFFCURVE",
"1470 598 CURVE",
"898 587 LINE"
);
}
);
userData = {
anchors = (
);
b = {
};
com.typemytype.robofont.layerData = {
b = {
anchors = (
);
components = (
);
contours = (
);
lib = {
};
name = ae;
unicodes = (
);
width = 1667;
};
};
components = (
);
contours = {
};
lib = {
};
name = ae;
points = {
};
segmentType = curve;
unicodes = (
);
width = "1667";
x = "771";
y = "158";
};
vertWidth = 0;
width = 1667;
}
);
unicode = 00E6;
},
{
glyphname = b;
layers = (
{
anchors = (
{
name = top;
position = "{556.5, 1023}";
}
);
layerId = "8E6A00A3-5EF9-4E6D-9A7B-9C1BBC7D44AD";
paths = (
{
closed = 1;
nodes = (
"865 -24 OFFCURVE",
"1017 182 OFFCURVE",
"1017 510 CURVE SMOOTH",
"1017 857 OFFCURVE",
"850 1045 OFFCURVE",
"598 1045 CURVE SMOOTH",
"464 1045 OFFCURVE",
"362 983 OFFCURVE",
"296 882 CURVE",
"296 1473 LINE",
"126 1473 LINE",
"126 -1 LINE",
"258 -1 LINE",
"266 166 LINE",
"325 49 OFFCURVE",
"432 -24 OFFCURVE",
"594 -24 CURVE SMOOTH"
);
},
{
closed = 1;
nodes = (
"360 97 OFFCURVE",
"291 233 OFFCURVE",
"291 521 CURVE SMOOTH",
"291 820 OFFCURVE",
"423 925 OFFCURVE",
"586 925 CURVE SMOOTH",
"756 925 OFFCURVE",
"844 780 OFFCURVE",
"844 516 CURVE SMOOTH",
"844 239 OFFCURVE",
"759 97 OFFCURVE",
"585 97 CURVE SMOOTH"
);
}
);
userData = {
anchors = (
);
b = {
};
com.typemytype.robofont.layerData = {
};
components = (
);
contours = {
};
lib = {
};
name = b;
points = {
};
segmentType = curve;
unicodes = (
);
width = "1079";
x = "436";
y = "940";
};
vertWidth = 0;
width = 1113;
},
{
anchors = (
{
name = top;
position = "{631, 1296}";
}
);
layerId = "8DE4C137-4DC6-43A7-909D-C9F8072E6A1C";
paths = (
{
closed = 1;
nodes = (
"890 -24 OFFCURVE",
"1048 173 OFFCURVE",
"1048 517 CURVE SMOOTH",
"1048 864 OFFCURVE",
"871 1046 OFFCURVE",
"612 1046 CURVE SMOOTH",
"483 1046 OFFCURVE",
"387 988 OFFCURVE",
"323 900 CURVE",
"323 1474 LINE",
"125 1474 LINE",
"125 0 LINE",
"277 0 LINE",
"287 152 LINE",
"350 41 OFFCURVE",
"459 -24 OFFCURVE",
"611 -24 CURVE SMOOTH"
);
},
{
closed = 1;
nodes = (
"369 116 OFFCURVE",
"316 261 OFFCURVE",
"316 522 CURVE SMOOTH",
"316 829 OFFCURVE",
"458 906 OFFCURVE",
"599 906 CURVE SMOOTH",
"766 906 OFFCURVE",
"845 767 OFFCURVE",
"845 517 CURVE SMOOTH",
"845 249 OFFCURVE",
"771 116 OFFCURVE",
"598 116 CURVE SMOOTH"
);
}
);
userData = {
anchors = (
);
b = {
};
com.typemytype.robofont.layerData = {
};
components = (
);
contours = {
};
lib = {
};
name = b;
points = {
};
segmentType = curve;
unicodes = (
);
width = "1079";
x = "436";
y = "940";
};
vertWidth = 0;
width = 1139;
},
{
anchors = (
{
name = top;
position = "{581, 1023}";
}
);
layerId = "28683A17-BAD2-44EA-B42B-E882FFDD4FE1";
paths = (
{
closed = 1;
nodes = (
"912 -24 OFFCURVE",
"1074 166 OFFCURVE",
"1074 524 CURVE SMOOTH",
"1074 871 OFFCURVE",
"889 1047 OFFCURVE",
"624 1047 CURVE SMOOTH",
"500 1047 OFFCURVE",
"410 993 OFFCURVE",
"346 916 CURVE",
"346 1474 LINE",
"123 1474 LINE",
"123 0 LINE",
"294 0 LINE",
"305 140 LINE",
"371 34 OFFCURVE",
"483 -24 OFFCURVE",
"626 -24 CURVE SMOOTH"
);
},
{
closed = 1;
nodes = (
"376 133 OFFCURVE",
"339 286 OFFCURVE",
"339 522 CURVE SMOOTH",
"339 837 OFFCURVE",
"489 890 OFFCURVE",
"611 890 CURVE SMOOTH",
"775 890 OFFCURVE",
"846 756 OFFCURVE",
"846 519 CURVE SMOOTH",
"846 258 OFFCURVE",
"782 133 OFFCURVE",
"610 133 CURVE SMOOTH"
);
}
);
userData = {
anchors = (
);
b = {
};
com.typemytype.robofont.layerData = {
};
components = (
);
contours = {
};
lib = {
};
name = b;
points = {
};
segmentType = curve;
unicodes = (
);
width = "1079";
x = "436";
y = "940";
};
vertWidth = 0;
width = 1162;
},
{
anchors = (
{
name = top;
position = "{540, 1023}";
}
);
layerId = "E322F6D1-BA90-436B-BB35-51D9BD3EA9D1";
paths = (
{
closed = 1;
nodes = (
"834 -24 OFFCURVE",
"979 192 OFFCURVE",
"979 500 CURVE SMOOTH",
"979 847 OFFCURVE",
"824 1044 OFFCURVE",
"581 1044 CURVE SMOOTH",
"439 1044 OFFCURVE",
"330 977 OFFCURVE",
"263 860 CURVE",
"263 1473 LINE",
"128 1473 LINE",
"128 -1 LINE",
"233 -1 LINE",
"241 184 LINE",
"294 59 OFFCURVE",
"397 -24 OFFCURVE",
"573 -24 CURVE SMOOTH"
);
},
{
closed = 1;
nodes = (
"349 72 OFFCURVE",
"259 198 OFFCURVE",
"259 520 CURVE SMOOTH",
"259 809 OFFCURVE",
"378 948 OFFCURVE",
"570 948 CURVE SMOOTH",
"744 948 OFFCURVE",
"843 795 OFFCURVE",
"843 514 CURVE SMOOTH",
"843 227 OFFCURVE",
"744 72 OFFCURVE",
"569 72 CURVE SMOOTH"
);
}
);
userData = {
anchors = (
);
b = {
};
com.typemytype.robofont.layerData = {
b = {
anchors = (
);
components = (
);
contours = (
);
lib = {
};
name = b;
unicodes = (
);
width = 1081;
};
};
components = (
);
contours = {
};
lib = {
};
name = b;
points = {
};
segmentType = curve;
unicodes = (
);
width = "1079";
x = "436";
y = "940";
};
vertWidth = 0;
width = 1081;
}
);
unicode = 0062;
},
{
glyphname = c;
layers = (
{
anchors = (
{
name = top;
position = "{499.5, 1023}";
}
);
layerId = "8E6A00A3-5EF9-4E6D-9A7B-9C1BBC7D44AD";
paths = (
{
closed = 1;
nodes = (
"717 -24 OFFCURVE",
"879 50 OFFCURVE",
"934 287 CURVE",
"799 328 LINE",
"759 172 OFFCURVE",
"674 98 OFFCURVE",
"543 98 CURVE SMOOTH",
"358 98 OFFCURVE",
"269 253 OFFCURVE",
"269 513 CURVE SMOOTH",
"269 768 OFFCURVE",
"355 924 OFFCURVE",
"543 924 CURVE SMOOTH",
"671 924 OFFCURVE",
"754 852 OFFCURVE",
"795 695 CURVE",
"935 730 LINE",
"879 973 OFFCURVE",
"709 1045 OFFCURVE",
"538 1045 CURVE SMOOTH",
"242 1045 OFFCURVE",
"96 818 OFFCURVE",
"96 510 CURVE SMOOTH",
"96 199 OFFCURVE",
"244 -24 OFFCURVE",
"538 -24 CURVE SMOOTH"
);
}
);
userData = {
com.typemytype.robofont.layerData = {
};
};
vertWidth = 0;
width = 999;
},
{
anchors = (
{
name = top;
position = "{536, 1023}";
}
);
layerId = "8DE4C137-4DC6-43A7-909D-C9F8072E6A1C";
paths = (
{
closed = 1;
nodes = (
"732 -24 OFFCURVE",
"894 48 OFFCURVE",
"949 294 CURVE",
"792 341 LINE",
"754 185 OFFCURVE",
"675 117 OFFCURVE",
"547 117 CURVE SMOOTH",
"385 117 OFFCURVE",
"294 250 OFFCURVE",
"294 514 CURVE SMOOTH",
"294 769 OFFCURVE",
"382 905 OFFCURVE",
"547 905 CURVE SMOOTH",
"673 905 OFFCURVE",
"749 839 OFFCURVE",
"788 686 CURVE",
"951 727 LINE",
"895 971 OFFCURVE",
"730 1046 OFFCURVE",
"541 1046 CURVE SMOOTH",
"245 1046 OFFCURVE",
"91 819 OFFCURVE",
"91 511 CURVE SMOOTH",
"91 202 OFFCURVE",
"245 -24 OFFCURVE",
"540 -24 CURVE SMOOTH"
);
}
);
userData = {
com.typemytype.robofont.layerData = {
};
};
vertWidth = 0;
width = 1012;
},
{
anchors = (
{
name = bot;
position = "{512, 0}";
},
{
name = top;
position = "{512, 1023}";
}
);
layerId = "28683A17-BAD2-44EA-B42B-E882FFDD4FE1";
paths = (
{
closed = 1;
nodes = (
"745 -24 OFFCURVE",
"907 46 OFFCURVE",
"963 299 CURVE",
"786 353 LINE",
"750 197 OFFCURVE",
"677 134 OFFCURVE",
"551 134 CURVE SMOOTH",
"409 134 OFFCURVE",
"315 248 OFFCURVE",
"315 514 CURVE SMOOTH",
"315 769 OFFCURVE",
"406 889 OFFCURVE",
"551 889 CURVE SMOOTH",
"675 889 OFFCURVE",
"744 827 OFFCURVE",
"781 679 CURVE",
"965 724 LINE",
"909 969 OFFCURVE",
"748 1047 OFFCURVE",
"543 1047 CURVE SMOOTH",
"247 1047 OFFCURVE",
"87 819 OFFCURVE",
"87 511 CURVE SMOOTH",
"87 204 OFFCURVE",
"245 -24 OFFCURVE",
"542 -24 CURVE SMOOTH"
);
}
);
userData = {
com.typemytype.robofont.layerData = {
};
};
vertWidth = 0;
width = 1024;
},
{
anchors = (
{
name = top;
position = "{492, 1023}";
}
);
layerId = "E322F6D1-BA90-436B-BB35-51D9BD3EA9D1";
paths = (
{
closed = 1;
nodes = (
"698 -24 OFFCURVE",
"860 53 OFFCURVE",
"914 279 CURVE",
"808 312 LINE",
"765 155 OFFCURVE",
"672 73 OFFCURVE",
"538 73 CURVE SMOOTH",
"324 73 OFFCURVE",
"239 256 OFFCURVE",
"239 512 CURVE SMOOTH",
"239 767 OFFCURVE",
"320 947 OFFCURVE",
"538 947 CURVE SMOOTH",
"669 947 OFFCURVE",
"761 868 OFFCURVE",
"804 706 CURVE",
"915 734 LINE",
"859 976 OFFCURVE",
"684 1044 OFFCURVE",
"534 1044 CURVE SMOOTH",
"238 1044 OFFCURVE",
"101 817 OFFCURVE",
"101 509 CURVE SMOOTH",
"101 196 OFFCURVE",
"244 -24 OFFCURVE",
"536 -24 CURVE SMOOTH"
);
}
);
userData = {
com.typemytype.robofont.layerData = {
b = {
anchors = (
);
components = (
);
contours = (
);
lib = {
};
name = c;
unicodes = (
);
width = 983;
};
};
};
vertWidth = 0;
width = 983;
}
);
unicode = 0063;
},
{
glyphname = d;
layers = (
{
anchors = (
{
name = caron.alt;
position = "{947, 1023}";
},
{
name = top;
position = "{555.5, 1023}";
}
);
layerId = "8E6A00A3-5EF9-4E6D-9A7B-9C1BBC7D44AD";
paths = (
{
closed = 1;
nodes = (
"682 -24 OFFCURVE",
"786 51 OFFCURVE",
"845 166 CURVE",
"853 2 LINE",
"985 2 LINE",
"985 1476 LINE",
"815 1476 LINE",
"815 891 LINE",
"751 987 OFFCURVE",
"652 1045 OFFCURVE",
"522 1045 CURVE SMOOTH",
"268 1045 OFFCURVE",
"96 863 OFFCURVE",
"96 510 CURVE SMOOTH",
"96 182 OFFCURVE",
"249 -24 OFFCURVE",
"520 -24 CURVE SMOOTH"
);
},
{
closed = 1;
nodes = (
"355.725 96.536 OFFCURVE",
"268 234.843 OFFCURVE",
"268 518 CURVE SMOOTH",
"268 782.93 OFFCURVE",
"357.391 924.027 OFFCURVE",
"533.49 924.027 CURVE SMOOTH",
"695.366 924.027 OFFCURVE",
"823 816.275 OFFCURVE",
"823 521 CURVE SMOOTH",
"823 247.73 OFFCURVE",
"737.547 96.536 OFFCURVE",
"547.533 96.536 CURVE SMOOTH"
);
}
);
userData = {
anchors = (
);
b = {
};
com.typemytype.robofont.layerData = {
};
components = (
);
contours = {
};
lib = {
};
name = b;
points = {
};
segmentType = curve;
unicodes = (
);
width = "1077";
x = "407";
y = "940";
};
vertWidth = 0;
width = 1111;
},
{
anchors = (
{
name = caron.alt;
position = "{940, 1023}";
},
{
name = top;
position = "{568.5, 1023}";
}
);
layerId = "8DE4C137-4DC6-43A7-909D-C9F8072E6A1C";
paths = (
{
closed = 1;
nodes = (
"680 -24 OFFCURVE",
"787 41 OFFCURVE",
"851 149 CURVE",
"860 3 LINE",
"1012 3 LINE",
"1012 1477 LINE",
"814 1477 LINE",
"814 908 LINE",
"752 992 OFFCURVE",
"659 1046 OFFCURVE",
"533 1046 CURVE SMOOTH",
"274 1046 OFFCURVE",
"91 870 OFFCURVE",
"91 519 CURVE SMOOTH",
"91 175 OFFCURVE",
"251 -24 OFFCURVE",
"530 -24 CURVE SMOOTH"
);
},
{
closed = 1;
nodes = (
"368.726 115.576 OFFCURVE",
"293 247.505 OFFCURVE",
"293 521 CURVE SMOOTH",
"293 775.156 OFFCURVE",
"372.963 906.135 OFFCURVE",
"549.521 906.135 CURVE SMOOTH",
"688.277 906.135 OFFCURVE",
"824 819.205 OFFCURVE",
"824 522 CURVE SMOOTH",
"824 281.021 OFFCURVE",
"757.907 115.576 OFFCURVE",
"560.583 115.576 CURVE SMOOTH"
);
}
);
userData = {
anchors = (
);
b = {
};
com.typemytype.robofont.layerData = {
};
components = (
);
contours = {
};
lib = {
};
name = b;
points = {
};
segmentType = curve;
unicodes = (
);
width = "1077";
x = "407";
y = "940";
};
vertWidth = 0;
width = 1137;
},
{
anchors = (
{
name = caron.alt;
position = "{933, 1023}";
},
{
name = mid;
position = "{580, 1023}";
},
{
name = top;
position = "{580, 1023}";
}
);
layerId = "28683A17-BAD2-44EA-B42B-E882FFDD4FE1";
paths = (
{
closed = 1;
nodes = (
"678 -24 OFFCURVE",
"788 32 OFFCURVE",
"856 134 CURVE",
"865 5 LINE",
"1036 5 LINE",
"1036 1479 LINE",
"814 1479 LINE",
"814 922 LINE",
"752 997 OFFCURVE",
"664 1047 OFFCURVE",
"543 1047 CURVE SMOOTH",
"279 1047 OFFCURVE",
"87 876 OFFCURVE",
"87 526 CURVE SMOOTH",
"87 168 OFFCURVE",
"253 -24 OFFCURVE",
"539 -24 CURVE SMOOTH"
);
},
{
closed = 1;
nodes = (
"379 142 OFFCURVE",
"314 264 OFFCURVE",
"314 524 CURVE SMOOTH",
"314 766 OFFCURVE",
"386 882 OFFCURVE",
"550 890 CURVE SMOOTH",
"672 896 OFFCURVE",
"824 833 OFFCURVE",
"824 522 CURVE SMOOTH",
"824 304 OFFCURVE",
"773 122 OFFCURVE",
"555 133 CURVE SMOOTH"
);
}
);
userData = {
anchors = (
);
b = {
};
com.typemytype.robofont.layerData = {
};
components = (
);
contours = {
};
lib = {
};
name = b;
points = {
};
segmentType = curve;
unicodes = (
);
width = "1077";
x = "407";
y = "940";
};
vertWidth = 0;
width = 1160;
},
{
anchors = (
{
name = caron.alt;
position = "{957, 1023}";
},
{
name = top;
position = "{540, 1023}";
}
);
layerId = "E322F6D1-BA90-436B-BB35-51D9BD3EA9D1";
paths = (
{
closed = 1;
nodes = (
"685 -24 OFFCURVE",
"785 64 OFFCURVE",
"838 187 CURVE",
"845 0 LINE",
"950 0 LINE",
"950 1474 LINE",
"815 1474 LINE",
"815 870 LINE",
"750 981 OFFCURVE",
"644 1044 OFFCURVE",
"507 1044 CURVE SMOOTH",
"261 1044 OFFCURVE",
"101 854 OFFCURVE",
"101 500 CURVE SMOOTH",
"101 192 OFFCURVE",
"247 -24 OFFCURVE",
"508 -24 CURVE SMOOTH"
);
},
{
closed = 1;
nodes = (
"338.764 72.478 OFFCURVE",
"238 218.916 OFFCURVE",
"238 513 CURVE SMOOTH",
"238 793 OFFCURVE",
"337 947 OFFCURVE",
"515 947 CURVE SMOOTH",
"707 946 OFFCURVE",
"822 809 OFFCURVE",
"822 520 CURVE SMOOTH",
"822 207.263 OFFCURVE",
"712.993 72.478 OFFCURVE",
"531.85 72.478 CURVE SMOOTH"
);
}
);
userData = {
anchors = (
);
b = {
};
com.typemytype.robofont.layerData = {
b = {
anchors = (
);
components = (
);
contours = (
);
lib = {
};
name = d;
unicodes = (
);
width = 1079;
};
};
components = (
);
contours = {
};
lib = {
};
name = b;
points = {
};
segmentType = curve;
unicodes = (
);
width = "1077";
x = "407";
y = "940";
};
vertWidth = 0;
width = 1079;
}
);
unicode = 0064;
},
{
glyphname = eth;
layers = (
{
layerId = "8E6A00A3-5EF9-4E6D-9A7B-9C1BBC7D44AD";
paths = (
{
closed = 1;
nodes = (
"840.552 -24.003 OFFCURVE",
"972 213.662 OFFCURVE",
"972 529 CURVE SMOOTH",
"972 775 OFFCURVE",
"914 1038 OFFCURVE",
"745 1216 CURVE",
"927 1335 LINE",
"864 1424 LINE",
"660 1291 LINE",
"541 1378 OFFCURVE",
"380 1432 OFFCURVE",
"169 1432 CURVE",
"169 1320 LINE",
"327 1320 OFFCURVE",
"448 1278 OFFCURVE",
"541 1213 CURVE",
"378 1107 LINE",
"441 1018 LINE",
"627 1140 LINE",
"731 1032 OFFCURVE",
"781 891 OFFCURVE",
"796 773 CURVE",
"722.84 864.944 OFFCURVE",
"617.426 908.017 OFFCURVE",
"506.813 908.017 CURVE SMOOTH",
"289.982 908.017 OFFCURVE",
"82 747.569 OFFCURVE",
"82 454 CURVE SMOOTH",
"82 207.441 OFFCURVE",
"226.573 -24.003 OFFCURVE",
"520.02 -24.003 CURVE SMOOTH"
);
},
{
closed = 1;
nodes = (
"371.313 105.934 OFFCURVE",
"252 228.91 OFFCURVE",
"252 442 CURVE SMOOTH",
"252 652 OFFCURVE",
"372 776 OFFCURVE",
"523 776 CURVE SMOOTH",
"625 776 OFFCURVE",
"710 728 OFFCURVE",
"802 628 CURVE",
"808 602 OFFCURVE",
"809 535 OFFCURVE",
"809 511 CURVE SMOOTH",
"809 282.548 OFFCURVE",
"727.821 105.934 OFFCURVE",
"528.708 105.934 CURVE SMOOTH"
);
}
);
userData = {
anchors = (
);
b = {
};
com.typemytype.robofont.layerData = {
};
components = (
);
contours = {
};
lib = {
};
name = eth;
points = {
};
segmentType = line;
unicodes = (
);
width = "1053";
x = "421";
y = "1026";
};
vertWidth = 0;
width = 1053;
},
{
layerId = "8DE4C137-4DC6-43A7-909D-C9F8072E6A1C";
paths = (
{
closed = 1;
nodes = (
"846.161 -24.012 OFFCURVE",
"985 214.313 OFFCURVE",
"985 529 CURVE SMOOTH",
"985 774 OFFCURVE",
"925 1031 OFFCURVE",
"760 1207 CURVE",
"934 1321 LINE",
"861 1424 LINE",
"661 1294 LINE",
"541 1379 OFFCURVE",
"379 1432 OFFCURVE",
"169 1432 CURVE",
"169 1302 LINE",
"316 1302 OFFCURVE",
"433 1264 OFFCURVE",
"524 1204 CURVE",
"375 1107 LINE",
"448 1004 LINE",
"624 1119 LINE",
"719 1017 OFFCURVE",
"768 888 OFFCURVE",
"783 774 CURVE",
"715 865 OFFCURVE",
"612 908 OFFCURVE",
"503 908 CURVE SMOOTH",
"284 908 OFFCURVE",
"70 746 OFFCURVE",
"70 454 CURVE SMOOTH",
"70 206.906 OFFCURVE",
"222.223 -24.012 OFFCURVE",
"522.067 -24.012 CURVE SMOOTH"
);
},
{
closed = 1;
nodes = (
"382.49 126.743 OFFCURVE",
"268 243.283 OFFCURVE",
"268 443 CURVE SMOOTH",
"268 633 OFFCURVE",
"378 755 OFFCURVE",
"523 755 CURVE SMOOTH",
"621 755 OFFCURVE",
"697 707 OFFCURVE",
"789 607 CURVE",
"795 581 OFFCURVE",
"796 535 OFFCURVE",
"796 511 CURVE SMOOTH",
"796 303.551 OFFCURVE",
"718.44 126.743 OFFCURVE",
"531.464 126.743 CURVE SMOOTH"
);
}
);
userData = {
anchors = (
);
b = {
};
com.typemytype.robofont.layerData = {
};
components = (
);
contours = {
};
lib = {
};
name = eth;
points = {
};
segmentType = line;
unicodes = (
);
width = "1053";
x = "421";
y = "1026";
};
vertWidth = 0;
width = 1053;
},
{
layerId = "28683A17-BAD2-44EA-B42B-E882FFDD4FE1";
paths = (
{
closed = 1;
nodes = (
"849 -27 OFFCURVE",
"996 213 OFFCURVE",
"996 529 CURVE SMOOTH",
"996 774 OFFCURVE",
"935 1024 OFFCURVE",
"774 1200 CURVE",
"941 1309 LINE",
"859 1424 LINE",
"663 1296 LINE",
"541 1380 OFFCURVE",
"379 1432 OFFCURVE",
"169 1432 CURVE",
"169 1286 LINE",
"307 1286 OFFCURVE",
"419 1252 OFFCURVE",
"508 1195 CURVE",
"373 1107 LINE",
"455 992 LINE",
"621 1100 LINE",
"709 1005 OFFCURVE",
"757 885 OFFCURVE",
"771 774 CURVE",
"708 864 OFFCURVE",
"610 908 OFFCURVE",
"503 908 CURVE SMOOTH",
"280 908 OFFCURVE",
"60 746 OFFCURVE",
"60 454 CURVE SMOOTH",
"60 208 OFFCURVE",
"217 -21 OFFCURVE",
"518 -24 CURVE SMOOTH"
);
},
{
closed = 1;
nodes = (
"389 155 OFFCURVE",
"282 259 OFFCURVE",
"282 444 CURVE SMOOTH",
"282 617 OFFCURVE",
"383 736 OFFCURVE",
"523 736 CURVE SMOOTH",
"618 736 OFFCURVE",
"685 689 OFFCURVE",
"777 588 CURVE",
"783 562 OFFCURVE",
"784 535 OFFCURVE",
"784 511 CURVE SMOOTH",
"784 315 OFFCURVE",
"706 133 OFFCURVE",
"517 146 CURVE SMOOTH"
);
}
);
userData = {
anchors = (
);
b = {
};
com.typemytype.robofont.layerData = {
};
components = (
);
contours = {
};
lib = {
};
name = eth;
points = {
};
segmentType = line;
unicodes = (
);
width = "1053";
x = "421";
y = "1026";
};
vertWidth = 0;
width = 1053;
},
{
layerId = "E322F6D1-BA90-436B-BB35-51D9BD3EA9D1";
paths = (
{
closed = 1;
nodes = (
"834 -24 OFFCURVE",
"956 213 OFFCURVE",
"956 529 CURVE SMOOTH",
"956 775 OFFCURVE",
"900 1047 OFFCURVE",
"725 1227 CURVE",
"918 1353 LINE",
"868 1424 LINE",
"658 1287 LINE",
"541 1377 OFFCURVE",
"381 1432 OFFCURVE",
"169 1432 CURVE",
"169 1343 LINE",
"340 1343 OFFCURVE",
"468 1296 OFFCURVE",
"563 1225 CURVE",
"382 1107 LINE",
"432 1036 LINE",
"632 1166 LINE",
"746 1050 OFFCURVE",
"797 896 OFFCURVE",
"813 772 CURVE",
"732.941 865.897 OFFCURVE",
"620.643 908.017 OFFCURVE",
"507.006 908.017 CURVE SMOOTH",
"295.953 908.017 OFFCURVE",
"97 746.97 OFFCURVE",
"97 454 CURVE SMOOTH",
"97 208 OFFCURVE",
"232 -24 OFFCURVE",
"518 -24 CURVE SMOOTH"
);
},
{
closed = 1;
nodes = (
"357.061 79.994 OFFCURVE",
"232 212.855 OFFCURVE",
"232 441 CURVE SMOOTH",
"232 675 OFFCURVE",
"365 803 OFFCURVE",
"523 803 CURVE SMOOTH",
"630 803 OFFCURVE",
"727 753 OFFCURVE",
"819 655 CURVE",
"825 629 OFFCURVE",
"826 535 OFFCURVE",
"826 511 CURVE SMOOTH",
"826 256.419 OFFCURVE",
"738.74 79.994 OFFCURVE",
"524.12 79.994 CURVE SMOOTH"
);
}
);
userData = {
anchors = (
);
b = {
};
com.typemytype.robofont.layerData = {
b = {
anchors = (
);
components = (
);
contours = (
);
lib = {
};
name = eth;
unicodes = (
);
width = 1053;
};
};
components = (
);
contours = {
};
lib = {
};
name = eth;
points = {
};
segmentType = line;
unicodes = (
);
width = "1053";
x = "421";
y = "1026";
};
vertWidth = 0;
width = 1053;
}
);
unicode = 00F0;
},
{
glyphname = dcroat;
layers = (
{
components = (
{
name = d;
}
);
layerId = "8E6A00A3-5EF9-4E6D-9A7B-9C1BBC7D44AD";
paths = (
{
closed = 1;
nodes = (
"1112 1191 LINE",
"1112 1294 LINE",
"580 1294 LINE",
"580 1191 LINE"
);
}
);
userData = {
anchors = (
);
b = {
};
com.typemytype.robofont.layerData = {
};
components = (
);
contours = (
);
lib = {
};
name = dcroat;
unicodes = (
);
width = "1137";
};
vertWidth = 0;
width = 1137;
},
{
components = (
{
name = d;
}
);
layerId = "8DE4C137-4DC6-43A7-909D-C9F8072E6A1C";
paths = (
{
closed = 1;
nodes = (
"1130 1181 LINE",
"1130 1301 LINE",
"586 1301 LINE",
"586 1181 LINE"
);
}
);
userData = {
anchors = (
);
b = {
};
com.typemytype.robofont.layerData = {
};
components = (
);
contours = (
);
lib = {
};
name = dcroat;
unicodes = (
);
width = "1137";
};
vertWidth = 0;
width = 1137;
},
{
components = (
{
name = d;
}
);
layerId = "28683A17-BAD2-44EA-B42B-E882FFDD4FE1";
paths = (
{
closed = 1;
nodes = (
"1146 1172 LINE",
"1146 1307 LINE",
"591 1307 LINE",
"591 1172 LINE"
);
}
);
userData = {
anchors = (
);
b = {
};
com.typemytype.robofont.layerData = {
};
components = (
);
contours = (
);
lib = {
};
name = dcroat;
unicodes = (
);
width = "1137";
};
vertWidth = 0;
width = 1137;
},
{
components = (
{
name = d;
}
);
layerId = "E322F6D1-BA90-436B-BB35-51D9BD3EA9D1";
paths = (
{
closed = 1;
nodes = (
"1090 1204 LINE",
"1090 1285 LINE",
"573 1285 LINE",
"573 1204 LINE"
);
}
);
userData = {
anchors = (
);
b = {
};
com.typemytype.robofont.layerData = {
b = {
anchors = (
);
components = (
);
contours = (
);
lib = {
};
name = dcroat;
unicodes = (
);
width = 1137;
};
};
components = (
);
contours = (
);
lib = {
};
name = dcroat;
unicodes = (
);
width = "1137";
};
vertWidth = 0;
width = 1137;
}
);
unicode = 0111;
},
{
glyphname = e;
layers = (
{
anchors = (
{
name = ogonek;
position = "{640, 0}";
},
{
name = top;
position = "{513.5, 1023}";
}
);
layerId = "8E6A00A3-5EF9-4E6D-9A7B-9C1BBC7D44AD";
paths = (
{
closed = 1;
nodes = (
"727 -23 OFFCURVE",
"884 78 OFFCURVE",
"931 256 CURVE",
"804 285 LINE",
"769 181 OFFCURVE",
"687 98 OFFCURVE",
"548 98 CURVE SMOOTH",
"347 98 OFFCURVE",
"267 283 OFFCURVE",
"266 487 CURVE",
"950 487 LINE",
"952 504 OFFCURVE",
"953 555 OFFCURVE",
"953 564 CURVE SMOOTH",
"953 837 OFFCURVE",
"827 1045 OFFCURVE",
"542 1045 CURVE SMOOTH",
"257 1045 OFFCURVE",
"96 832 OFFCURVE",
"96 512 CURVE SMOOTH",
"96 224 OFFCURVE",
"232 -24 OFFCURVE",
"551 -24 CURVE SMOOTH"
);
},
{
closed = 1;
nodes = (
"277 758 OFFCURVE",
"355 924 OFFCURVE",
"539 924 CURVE SMOOTH",
"722 924 OFFCURVE",
"792 804 OFFCURVE",
"794 599 CURVE",
"266 599 LINE"
);
}
);
userData = {
com.typemytype.robofont.layerData = {
};
};
vertWidth = 0;
width = 1027;
},
{
anchors = (
{
name = ogonek;
position = "{645, 0}";
},
{
name = top;
position = "{515, 1023}";
}
);
layerId = "8DE4C137-4DC6-43A7-909D-C9F8072E6A1C";
paths = (
{
closed = 1;
nodes = (
"742 -24 OFFCURVE",
"893 89 OFFCURVE",
"940 267 CURVE",
"791 300 LINE",
"756 202 OFFCURVE",
"688 117 OFFCURVE",
"549 117 CURVE SMOOTH",
"360 117 OFFCURVE",
"292 297 OFFCURVE",
"289 474 CURVE",
"956 474 LINE",
"958 491 OFFCURVE",
"959 558 OFFCURVE",
"959 567 CURVE SMOOTH",
"959 840 OFFCURVE",
"828 1046 OFFCURVE",
"543 1046 CURVE SMOOTH",
"256 1046 OFFCURVE",
"91 839 OFFCURVE",
"91 512 CURVE SMOOTH",
"91 219 OFFCURVE",
"231 -24 OFFCURVE",
"552 -24 CURVE SMOOTH"
);
},
{
closed = 1;
nodes = (
"296 733 OFFCURVE",
"358 905 OFFCURVE",
"540 905 CURVE SMOOTH",
"709 905 OFFCURVE",
"773 799 OFFCURVE",
"773 604 CURVE",
"289 604 LINE"
);
}
);
userData = {
com.typemytype.robofont.layerData = {
};
};
vertWidth = 0;
width = 1030;
},
{
anchors = (
{
name = bot;
position = "{550, 0}";
},
{
name = ogonek;
position = "{650, 0}";
},
{
name = top;
position = "{516.5, 1023}";
}
);
layerId = "28683A17-BAD2-44EA-B42B-E882FFDD4FE1";
paths = (
{
closed = 1;
nodes = (
"756 -24 OFFCURVE",
"900 98 OFFCURVE",
"947 276 CURVE",
"780 313 LINE",
"745 220 OFFCURVE",
"688 134 OFFCURVE",
"550 134 CURVE SMOOTH",
"371 134 OFFCURVE",
"313 309 OFFCURVE",
"310 463 CURVE",
"961 463 LINE",
"963 480 OFFCURVE",
"964 560 OFFCURVE",
"964 569 CURVE SMOOTH",
"964 842 OFFCURVE",
"830 1047 OFFCURVE",
"545 1047 CURVE SMOOTH",
"255 1047 OFFCURVE",
"87 846 OFFCURVE",
"87 512 CURVE SMOOTH",
"87 215 OFFCURVE",
"229 -24 OFFCURVE",
"553 -24 CURVE SMOOTH"
);
},
{
closed = 1;
nodes = (
"313 712 OFFCURVE",
"360 889 OFFCURVE",
"540 889 CURVE SMOOTH",
"697 889 OFFCURVE",
"756 794 OFFCURVE",
"755 609 CURVE",
"310 609 LINE"
);
}
);
userData = {
com.typemytype.robofont.layerData = {
};
};
vertWidth = 0;
width = 1033;
},
{
anchors = (
{
name = ogonek;
position = "{634, 0}";
},
{
name = top;
position = "{511, 1023}";
}
);
layerId = "E322F6D1-BA90-436B-BB35-51D9BD3EA9D1";
paths = (
{
closed = 1;
nodes = (
"707 -23 OFFCURVE",
"874 65 OFFCURVE",
"921 243 CURVE",
"819 266 LINE",
"784 155 OFFCURVE",
"687 73 OFFCURVE",
"547 73 CURVE SMOOTH",
"332 73 OFFCURVE",
"236 266 OFFCURVE",
"236 503 CURVE",
"943 503 LINE",
"945 520 OFFCURVE",
"946 552 OFFCURVE",
"946 561 CURVE SMOOTH",
"946 833 OFFCURVE",
"825 1044 OFFCURVE",
"540 1044 CURVE SMOOTH",
"258 1044 OFFCURVE",
"101 822 OFFCURVE",
"101 512 CURVE SMOOTH",
"101 230 OFFCURVE",
"234 -24 OFFCURVE",
"550 -24 CURVE SMOOTH"
);
},
{
closed = 1;
nodes = (
"253 788 OFFCURVE",
"352 947 OFFCURVE",
"539 947 CURVE SMOOTH",
"738 947 OFFCURVE",
"816 810 OFFCURVE",
"819 593 CURVE",
"236 593 LINE"
);
}
);
userData = {
com.typemytype.robofont.layerData = {
b = {
anchors = (
);
components = (
);
contours = (
);
lib = {
};
name = e;
unicodes = (
);
width = 1022;
};
};
};
vertWidth = 0;
width = 1022;
}
);
unicode = 0065;
},
{
glyphname = f;
layers = (
{
anchors = (
{
name = top;
position = "{315, 1344}";
}
);
layerId = "8E6A00A3-5EF9-4E6D-9A7B-9C1BBC7D44AD";
paths = (
{
closed = 1;
nodes = (
"382 0 LINE",
"382 897 LINE",
"589 897 LINE",
"589 1023 LINE",
"382 1023 LINE",
"381.949 1159.71 LINE SMOOTH",
"381.949 1299.14 OFFCURVE",
"396.991 1344 OFFCURVE",
"484 1344 CURVE SMOOTH",
"522 1344 OFFCURVE",
"559 1332 OFFCURVE",
"591 1316 CURVE",
"634 1426 LINE",
"599 1449 OFFCURVE",
"529 1474 OFFCURVE",
"465 1474 CURVE SMOOTH",
"288 1474 OFFCURVE",
"212 1385 OFFCURVE",
"212 1139 CURVE SMOOTH",
"212 1023 LINE",
"38 1023 LINE",
"38 897 LINE",
"212 897 LINE",
"212 0 LINE"
);
}
);
userData = {
anchors = (
);
b = {
};
com.typemytype.robofont.layerData = {
};
components = (
);
contours = {
};
lib = {
};
name = f;
points = {
};
segmentType = line;
unicodes = (
);
width = "623";
x = "492";
y = "1368";
};
vertWidth = 0;
width = 630;
},
{
anchors = (
{
name = top;
position = "{311, 1296}";
}
);
layerId = "8DE4C137-4DC6-43A7-909D-C9F8072E6A1C";
paths = (
{
closed = 1;
nodes = (
"399 0 LINE",
"399 878 LINE",
"612 878 LINE",
"612 1023 LINE",
"399 1023 LINE",
"399 1144 LINE SMOOTH",
"398.967 1148.76 OFFCURVE",
"398.949 1153.4 OFFCURVE",
"398.949 1157.93 CURVE SMOOTH",
"398.949 1289.36 OFFCURVE",
"413.93 1323 OFFCURVE",
"499 1323 CURVE SMOOTH",
"533 1323 OFFCURVE",
"572 1311 OFFCURVE",
"605 1294 CURVE",
"655 1425 LINE",
"614 1448 OFFCURVE",
"536 1474 OFFCURVE",
"476 1474 CURVE SMOOTH",
"297 1474 OFFCURVE",
"201 1406 OFFCURVE",
"201 1136 CURVE SMOOTH",
"201 1023 LINE",
"27 1023 LINE",
"27 878 LINE",
"201 878 LINE",
"201 0 LINE"
);
}
);
userData = {
anchors = (
);
b = {
};
com.typemytype.robofont.layerData = {
};
components = (
);
contours = {
};
lib = {
};
name = f;
points = {
};
segmentType = line;
unicodes = (
);
width = "623";
x = "492";
y = "1368";
};
vertWidth = 0;
width = 637;
},
{
anchors = (
{
name = top;
position = "{322, 1346}";
}
);
layerId = "28683A17-BAD2-44EA-B42B-E882FFDD4FE1";
paths = (
{
closed = 1;
nodes = (
"414 0 LINE",
"414 861 LINE",
"633 861 LINE",
"633 1023 LINE",
"414 1023 LINE",
"413 1143 LINE SMOOTH",
"412 1279 OFFCURVE",
"426 1304 OFFCURVE",
"512 1304 CURVE SMOOTH",
"542 1304 OFFCURVE",
"584 1292 OFFCURVE",
"617 1275 CURVE",
"673 1423 LINE",
"627 1448 OFFCURVE",
"541 1474 OFFCURVE",
"485 1474 CURVE SMOOTH",
"304 1474 OFFCURVE",
"192 1425 OFFCURVE",
"192 1134 CURVE SMOOTH",
"192 1023 LINE",
"17 1023 LINE",
"17 861 LINE",
"192 861 LINE",
"192 0 LINE"
);
}
);
userData = {
anchors = (
);
b = {
};
com.typemytype.robofont.layerData = {
};
components = (
);
contours = {
};
lib = {
};
name = f;
points = {
};
segmentType = line;
unicodes = (
);
width = "623";
x = "492";
y = "1368";
};
vertWidth = 0;
width = 643;
},
{
anchors = (
{
name = top;
position = "{311, 1324}";
}
);
layerId = "E322F6D1-BA90-436B-BB35-51D9BD3EA9D1";
paths = (
{
closed = 1;
nodes = (
"361 0 LINE",
"361 922 LINE",
"559 922 LINE",
"559 1023 LINE",
"361 1023 LINE",
"361 1146 LINE SMOOTH",
"361 1307 OFFCURVE",
"373 1371 OFFCURVE",
"465 1371 CURVE SMOOTH",
"508 1371 OFFCURVE",
"543 1358 OFFCURVE",
"574 1344 CURVE",
"609 1428 LINE",
"580 1449 OFFCURVE",
"521 1474 OFFCURVE",
"452 1474 CURVE SMOOTH",
"278 1474 OFFCURVE",
"226 1359 OFFCURVE",
"226 1143 CURVE SMOOTH",
"226 1023 LINE",
"53 1023 LINE",
"53 922 LINE",
"226 922 LINE",
"226 0 LINE"
);
}
);
userData = {
anchors = (
);
b = {
};
com.typemytype.robofont.layerData = {
b = {
anchors = (
);
components = (
);
contours = (
);
lib = {
};
name = f;
unicodes = (
);
width = 621;
};
};
components = (
);
contours = {
};
lib = {
};
name = f;
points = {
};
segmentType = line;
unicodes = (
);
width = "623";
x = "492";
y = "1368";
};
vertWidth = 0;
width = 621;
}
);
unicode = 0066;
},
{
glyphname = g;
layers = (
{
anchors = (
{
name = top;
position = "{539, 1023}";
}
);
layerId = "8E6A00A3-5EF9-4E6D-9A7B-9C1BBC7D44AD";
paths = (
{
closed = 1;
nodes = (
"829.02 -448.009 OFFCURVE",
"997 -281.538 OFFCURVE",
"997 34 CURVE SMOOTH",
"997 1023 LINE",
"852 1023 LINE",
"836 860 LINE",
"772 974 OFFCURVE",
"666 1045 OFFCURVE",
"522 1045 CURVE SMOOTH",
"269 1045 OFFCURVE",
"86 860 OFFCURVE",
"86 510 CURVE SMOOTH",
"86 186 OFFCURVE",
"253 -24 OFFCURVE",
"524 -24 CURVE SMOOTH",
"668 -24 OFFCURVE",
"766 34 OFFCURVE",
"828 127 CURVE",
"828 33 LINE SMOOTH",
"828 -188.01 OFFCURVE",
"750.082 -320.014 OFFCURVE",
"543.814 -320.014 CURVE SMOOTH",
"395.424 -320.014 OFFCURVE",
"311.378 -267.23 OFFCURVE",
"245 -185 CURVE",
"153 -279 LINE",
"223.566 -367.456 OFFCURVE",
"360.315 -448.009 OFFCURVE",
"543.612 -448.009 CURVE SMOOTH"
);
},
{
closed = 1;
nodes = (
"359 97 OFFCURVE",
"258 240 OFFCURVE",
"258 516 CURVE SMOOTH",
"258 775 OFFCURVE",
"363 925 OFFCURVE",
"532 925 CURVE SMOOTH",
"699 925 OFFCURVE",
"828 828 OFFCURVE",
"828 505 CURVE SMOOTH",
"828 227 OFFCURVE",
"753 97 OFFCURVE",
"533 97 CURVE SMOOTH"
);
}
);
userData = {
anchors = (
);
b = {
};
com.typemytype.robofont.layerData = {
};
components = (
);
contours = {
};
lib = {
};
name = g;
points = {
};
segmentType = line;
unicodes = (
);
width = "1074";
x = "805";
y = "-429";
};
vertWidth = 0;
width = 1121;
},
{
anchors = (
{
name = top;
position = "{572.5, 1023}";
}
);
layerId = "8DE4C137-4DC6-43A7-909D-C9F8072E6A1C";
paths = (
{
closed = 1;
nodes = (
"842 -466 OFFCURVE",
"1028 -314 OFFCURVE",
"1028 27 CURVE SMOOTH",
"1028 1023 LINE",
"859 1023 LINE",
"840 877 LINE",
"777 978 OFFCURVE",
"675 1046 OFFCURVE",
"535 1046 CURVE SMOOTH",
"276 1046 OFFCURVE",
"87 863 OFFCURVE",
"87 517 CURVE SMOOTH",
"87 181 OFFCURVE",
"258 -24 OFFCURVE",
"537 -24 CURVE SMOOTH",
"667 -24 OFFCURVE",
"765 24 OFFCURVE",
"830 107 CURVE",
"830 30 LINE SMOOTH",
"830 -190.536 OFFCURVE",
"764.327 -318.049 OFFCURVE",
"553.393 -318.049 CURVE SMOOTH",
"403.171 -318.049 OFFCURVE",
"318.945 -259.665 OFFCURVE",
"256 -180 CURVE",
"149 -290 LINE",
"225 -385 OFFCURVE",
"373 -467 OFFCURVE",
"558 -467 CURVE SMOOTH"
);
},
{
closed = 1;
nodes = (
"375.045 116 OFFCURVE",
"287.992 253.213 OFFCURVE",
"287.992 522.745 CURVE SMOOTH",
"287.992 765.446 OFFCURVE",
"384.832 906 OFFCURVE",
"547 906 CURVE SMOOTH",
"694 906 OFFCURVE",
"831 841 OFFCURVE",
"831 490 CURVE SMOOTH",
"831 248 OFFCURVE",
"768 116 OFFCURVE",
"548 116 CURVE SMOOTH"
);
}
);
userData = {
anchors = (
);
b = {
};
com.typemytype.robofont.layerData = {
};
components = (
);
contours = {
};
lib = {
};
name = g;
points = {
};
segmentType = line;
unicodes = (
);
width = "1074";
x = "805";
y = "-429";
};
vertWidth = 0;
width = 1145;
},
{
anchors = (
{
name = bot;
position = "{583, 0}";
},
{
name = top;
position = "{583, 1023}";
}
);
layerId = "28683A17-BAD2-44EA-B42B-E882FFDD4FE1";
paths = (
{
closed = 1;
nodes = (
"853 -484 OFFCURVE",
"1054 -344 OFFCURVE",
"1054 22 CURVE SMOOTH",
"1054 1023 LINE",
"865 1023 LINE",
"844 891 LINE",
"781 982 OFFCURVE",
"683 1047 OFFCURVE",
"547 1047 CURVE SMOOTH",
"283 1047 OFFCURVE",
"89 865 OFFCURVE",
"89 524 CURVE SMOOTH",
"89 177 OFFCURVE",
"262 -24 OFFCURVE",
"548 -24 CURVE SMOOTH",
"667 -24 OFFCURVE",
"765 15 OFFCURVE",
"832 90 CURVE",
"832 27 LINE SMOOTH",
"832 -187 OFFCURVE",
"778 -313 OFFCURVE",
"572 -316 CURVE SMOOTH",
"413 -319 OFFCURVE",
"327 -254 OFFCURVE",
"266 -176 CURVE",
"146 -300 LINE",
"225 -399 OFFCURVE",
"382 -483 OFFCURVE",
"568 -483 CURVE SMOOTH"
);
},
{
closed = 1;
nodes = (
"391 133 OFFCURVE",
"316 261 OFFCURVE",
"314 521 CURVE SMOOTH",
"313 754 OFFCURVE",
"403 890 OFFCURVE",
"561 890 CURVE SMOOTH",
"689 890 OFFCURVE",
"833 852 OFFCURVE",
"833 476 CURVE SMOOTH",
"833 267 OFFCURVE",
"780 133 OFFCURVE",
"562 133 CURVE SMOOTH"
);
}
);
userData = {
anchors = (
);
b = {
};
com.typemytype.robofont.layerData = {
};
components = (
);
contours = {
};
lib = {
};
name = g;
points = {
};
segmentType = line;
unicodes = (
);
width = "1074";
x = "805";
y = "-429";
};
vertWidth = 0;
width = 1166;
},
{
anchors = (
{
name = top;
position = "{546, 1023}";
}
);
layerId = "E322F6D1-BA90-436B-BB35-51D9BD3EA9D1";
paths = (
{
closed = 1;
nodes = (
"811.995 -424.083 OFFCURVE",
"959 -243.044 OFFCURVE",
"959 42 CURVE SMOOTH",
"959 1023 LINE",
"843 1023 LINE",
"831 840 LINE",
"767 969 OFFCURVE",
"655 1044 OFFCURVE",
"506 1044 CURVE SMOOTH",
"259 1044 OFFCURVE",
"84 856 OFFCURVE",
"84 501 CURVE SMOOTH",
"84 191 OFFCURVE",
"247 -24 OFFCURVE",
"509 -24 CURVE SMOOTH",
"668 -24 OFFCURVE",
"767 47 OFFCURVE",
"826 152 CURVE",
"826 37 LINE SMOOTH",
"826 -186 OFFCURVE",
"733 -323 OFFCURVE",
"532 -323 CURVE SMOOTH",
"386 -322 OFFCURVE",
"302 -278 OFFCURVE",
"230 -190 CURVE",
"158 -265 LINE",
"221.8 -346.468 OFFCURVE",
"343.407 -424.083 OFFCURVE",
"522.819 -424.083 CURVE SMOOTH"
);
},
{
closed = 1;
nodes = (
"339.458 72 OFFCURVE",
"220.975 222.476 OFFCURVE",
"220.975 505.872 CURVE SMOOTH",
"220.975 785.969 OFFCURVE",
"334.345 948 OFFCURVE",
"513 948 CURVE SMOOTH",
"705 948 OFFCURVE",
"825 813 OFFCURVE",
"825 524 CURVE SMOOTH",
"825 200 OFFCURVE",
"735 72 OFFCURVE",
"514 72 CURVE SMOOTH"
);
}
);
userData = {
anchors = (
);
b = {
};
com.typemytype.robofont.layerData = {
b = {
anchors = (
);
components = (
);
contours = (
);
lib = {
};
name = g;
unicodes = (
);
width = 1091;
};
};
components = (
);
contours = {
};
lib = {
};
name = g;
points = {
};
segmentType = line;
unicodes = (
);
width = "1074";
x = "805";
y = "-429";
};
vertWidth = 0;
width = 1091;
}
);
unicode = 0067;
},
{
glyphname = h;
layers = (
{
anchors = (
{
name = top;
position = "{639, 1220}";
}
);
layerId = "8E6A00A3-5EF9-4E6D-9A7B-9C1BBC7D44AD";
paths = (
{
closed = 1;
nodes = (
"297 0 LINE",
"297 538 LINE",
"305 750 OFFCURVE",
"379 924 OFFCURVE",
"607 924 CURVE SMOOTH",
"772 924 OFFCURVE",
"818 808 OFFCURVE",
"818 603 CURVE SMOOTH",
"818 0 LINE",
"988 0 LINE",
"988 588 LINE SMOOTH",
"988 794 OFFCURVE",
"960 1044 OFFCURVE",
"637 1044 CURVE SMOOTH",
"478 1044 OFFCURVE",
"366 981 OFFCURVE",
"297 866 CURVE",
"297 1474 LINE",
"126 1474 LINE",
"126 0 LINE"
);
}
);
userData = {
anchors = (
);
b = {
};
com.typemytype.robofont.guides = (
);
com.typemytype.robofont.layerData = {
};
components = (
);
contours = {
};
lib = {
};
name = h;
points = {
};
segmentType = line;
unicodes = (
);
width = "1086";
x = "783";
y = "940";
};
vertWidth = 0;
width = 1106;
},
{
anchors = (
{
name = top;
position = "{631, 1296}";
}
);
layerId = "8DE4C137-4DC6-43A7-909D-C9F8072E6A1C";
paths = (
{
closed = 1;
nodes = (
"324 0 LINE",
"324 537 LINE",
"332 733 OFFCURVE",
"399 905 OFFCURVE",
"610 905 CURVE SMOOTH",
"763 905 OFFCURVE",
"812 803 OFFCURVE",
"812 602 CURVE SMOOTH",
"812 0 LINE",
"1010 0 LINE",
"1010 593 LINE SMOOTH",
"1010 799 OFFCURVE",
"973 1044 OFFCURVE",
"650 1044 CURVE SMOOTH",
"499 1044 OFFCURVE",
"393 986 OFFCURVE",
"324 883 CURVE",
"324 1474 LINE",
"125 1474 LINE",
"125 0 LINE"
);
}
);
userData = {
anchors = (
);
b = {
};
com.typemytype.robofont.guides = (
);
com.typemytype.robofont.layerData = {
};
components = (
);
contours = {
};
lib = {
};
name = h;
points = {
};
segmentType = line;
unicodes = (
);
width = "1086";
x = "783";
y = "940";
};
vertWidth = 0;
width = 1125;
},
{
anchors = (
{
name = bot;
position = "{571, 0}";
},
{
name = mid;
position = "{571, 1023}";
},
{
name = top;
position = "{679, 1346}";
}
);
layerId = "28683A17-BAD2-44EA-B42B-E882FFDD4FE1";
paths = (
{
closed = 1;
nodes = (
"347 0 LINE",
"347 537 LINE",
"355 718 OFFCURVE",
"417 889 OFFCURVE",
"612 889 CURVE SMOOTH",
"756 889 OFFCURVE",
"807 799 OFFCURVE",
"807 602 CURVE SMOOTH",
"807 0 LINE",
"1029 0 LINE",
"1029 597 LINE SMOOTH",
"1029 803 OFFCURVE",
"985 1044 OFFCURVE",
"662 1044 CURVE SMOOTH",
"517 1044 OFFCURVE",
"416 991 OFFCURVE",
"347 897 CURVE",
"347 1474 LINE",
"123 1474 LINE",
"123 0 LINE"
);
}
);
userData = {
anchors = (
);
b = {
};
com.typemytype.robofont.guides = (
);
com.typemytype.robofont.layerData = {
};
components = (
);
contours = {
};
lib = {
};
name = h;
points = {
};
segmentType = line;
unicodes = (
);
width = "1086";
x = "783";
y = "940";
};
vertWidth = 0;
width = 1142;
},
{
anchors = (
{
name = top;
position = "{594, 1324}";
}
);
layerId = "E322F6D1-BA90-436B-BB35-51D9BD3EA9D1";
paths = (
{
closed = 1;
nodes = (
"264 0 LINE",
"264 538 LINE",
"271 771 OFFCURVE",
"354 947 OFFCURVE",
"603 947 CURVE SMOOTH",
"783 947 OFFCURVE",
"826 813 OFFCURVE",
"826 603 CURVE SMOOTH",
"826 0 LINE",
"961 0 LINE",
"961 583 LINE SMOOTH",
"961 789 OFFCURVE",
"944 1044 OFFCURVE",
"621 1044 CURVE SMOOTH",
"453 1044 OFFCURVE",
"332 974 OFFCURVE",
"263 845 CURVE",
"263 1474 LINE",
"128 1474 LINE",
"128 0 LINE"
);
}
);
userData = {
anchors = (
);
b = {
};
com.typemytype.robofont.guides = (
);
com.typemytype.robofont.layerData = {
b = {
anchors = (
);
components = (
);
contours = (
);
lib = {
};
name = h;
unicodes = (
);
width = 1082;
};
};
components = (
);
contours = {
};
lib = {
};
name = h;
points = {
};
segmentType = line;
unicodes = (
);
width = "1086";
x = "783";
y = "940";
};
vertWidth = 0;
width = 1082;
}
);
unicode = 0068;
},
{
glyphname = hbar;
layers = (
{
components = (
{
name = h;
}
);
layerId = "8E6A00A3-5EF9-4E6D-9A7B-9C1BBC7D44AD";
paths = (
{
closed = 1;
nodes = (
"527 1191 LINE",
"527 1294 LINE",
"-5 1294 LINE",
"-5 1191 LINE"
);
}
);
userData = {
anchors = (
);
b = {
};
com.typemytype.robofont.layerData = {
};
components = (
);
contours = (
);
lib = {
};
name = hbar;
unicodes = (
);
width = "1117";
};
vertWidth = 0;
width = 1117;
},
{
components = (
{
name = h;
}
);
layerId = "8DE4C137-4DC6-43A7-909D-C9F8072E6A1C";
paths = (
{
closed = 1;
nodes = (
"534 1181 LINE",
"534 1301 LINE",
"-10 1301 LINE",
"-10 1181 LINE"
);
}
);
userData = {
anchors = (
);
b = {
};
com.typemytype.robofont.layerData = {
};
components = (
);
contours = (
);
lib = {
};
name = hbar;
unicodes = (
);
width = "1117";
};
vertWidth = 0;
width = 1117;
},
{
components = (
{
name = h;
}
);
layerId = "28683A17-BAD2-44EA-B42B-E882FFDD4FE1";
paths = (
{
closed = 1;
nodes = (
"541 1172 LINE",
"541 1307 LINE",
"-14 1307 LINE",
"-14 1172 LINE"
);
}
);
userData = {
anchors = (
);
b = {
};
com.typemytype.robofont.layerData = {
};
components = (
);
contours = (
);
lib = {
};
name = hbar;
unicodes = (
);
width = "1117";
};
vertWidth = 0;
width = 1117;
},
{
components = (
{
name = h;
}
);
layerId = "E322F6D1-BA90-436B-BB35-51D9BD3EA9D1";
paths = (
{
closed = 1;
nodes = (
"518 1204 LINE",
"518 1285 LINE",
"1 1285 LINE",
"1 1204 LINE"
);
}
);
userData = {
anchors = (
);
b = {
};
com.typemytype.robofont.layerData = {
b = {
anchors = (
);
components = (
);
contours = (
);
lib = {
};
name = hbar;
unicodes = (
);
width = 1117;
};
};
components = (
);
contours = (
);
lib = {
};
name = hbar;
unicodes = (
);
width = "1117";
};
vertWidth = 0;
width = 1117;
}
);
unicode = 0127;
},
{
glyphname = i;
layers = (
{
anchors = (
{
name = ogonek;
position = "{0, 0}";
}
);
components = (
{
name = dotaccent;
transform = "{1, 0, 0, 1, 9, 0}";
},
{
name = dotlessi;
}
);
layerId = "8E6A00A3-5EF9-4E6D-9A7B-9C1BBC7D44AD";
userData = {
com.typemytype.robofont.layerData = {
};
};
vertWidth = 0;
width = 429;
},
{
anchors = (
{
name = ogonek;
position = "{244, 0}";
}
);
components = (
{
name = dotaccent;
transform = "{1, 0, 0, 1, 14, 0}";
},
{
name = dotlessi;
}
);
layerId = "8DE4C137-4DC6-43A7-909D-C9F8072E6A1C";
userData = {
com.typemytype.robofont.layerData = {
};
};
vertWidth = 0;
width = 447;
},
{
anchors = (
{
name = ogonek;
position = "{234, 0}";
}
);
layerId = "28683A17-BAD2-44EA-B42B-E882FFDD4FE1";
paths = (
{
closed = 1;
nodes = (
"358 0 LINE",
"358 1023 LINE",
"136 1023 LINE",
"136 0 LINE"
);
},
{
closed = 1;
nodes = (
"360 1234 LINE",
"360 1478 LINE",
"131 1478 LINE",
"131 1234 LINE"
);
}
);
userData = {
com.typemytype.robofont.layerData = {
};
};
vertWidth = 0;
width = 477;
},
{
anchors = (
{
name = ogonek;
position = "{213, 0}";
}
);
components = (
{
name = dotaccent;
transform = "{1, 0, 0, 1, -10, 0}";
},
{
name = dotlessi;
}
);
layerId = "E322F6D1-BA90-436B-BB35-51D9BD3EA9D1";
userData = {
com.typemytype.robofont.layerData = {
b = {
anchors = (
);
components = (
);
contours = (
);
lib = {
};
name = i;
unicodes = (
);
width = 419;
};
};
};
vertWidth = 0;
width = 407;
}
);
unicode = 0069;
},
{
glyphname = dotlessi;
layers = (
{
anchors = (
{
name = top;
position = "{237, 1023}";
}
);
layerId = "8E6A00A3-5EF9-4E6D-9A7B-9C1BBC7D44AD";
paths = (
{
closed = 1;
nodes = (
"309 0 LINE",
"309 1023 LINE",
"139 1023 LINE",
"139 0 LINE"
);
}
);
userData = {
com.typemytype.robofont.layerData = {
};
};
vertWidth = 0;
width = 429;
},
{
anchors = (
{
name = top;
position = "{232, 1023}";
}
);
layerId = "8DE4C137-4DC6-43A7-909D-C9F8072E6A1C";
paths = (
{
closed = 1;
nodes = (
"336 0 LINE",
"336 1023 LINE",
"138 1023 LINE",
"138 0 LINE"
);
}
);
userData = {
com.typemytype.robofont.layerData = {
};
};
vertWidth = 0;
width = 447;
},
{
anchors = (
{
name = top;
position = "{231.5, 1023}";
}
);
layerId = "28683A17-BAD2-44EA-B42B-E882FFDD4FE1";
paths = (
{
closed = 1;
nodes = (
"359 0 LINE",
"359 1023 LINE",
"137 1023 LINE",
"137 0 LINE"
);
}
);
userData = {
com.typemytype.robofont.layerData = {
};
};
vertWidth = 0;
width = 463;
},
{
anchors = (
{
name = top;
position = "{214, 1023}";
}
);
layerId = "E322F6D1-BA90-436B-BB35-51D9BD3EA9D1";
paths = (
{
closed = 1;
nodes = (
"275 0 LINE",
"275 1023 LINE",
"140 1023 LINE",
"140 0 LINE"
);
}
);
userData = {
com.typemytype.robofont.layerData = {
b = {
anchors = (
);
components = (
);
contours = (
);
lib = {
};
name = dotlessi;
unicodes = (
);
width = 407;
};
};
};
vertWidth = 0;
width = 407;
}
);
unicode = 0131;
},
{
glyphname = j;
layers = (
{
components = (
{
name = dotaccent;
transform = "{1, 0, 0, 1, 74, 0}";
},
{
name = uni0237;
}
);
layerId = "8E6A00A3-5EF9-4E6D-9A7B-9C1BBC7D44AD";
userData = {
anchors = (
);
b = {
};
com.typemytype.robofont.layerData = {
};
components = (
);
contours = (
);
lib = {
};
name = j;
unicodes = (
);
width = "482";
};
vertWidth = 0;
width = 494;
},
{
components = (
{
name = dotaccent;
transform = "{1, 0, 0, 1, 83, 0}";
},
{
name = uni0237;
}
);
layerId = "8DE4C137-4DC6-43A7-909D-C9F8072E6A1C";
userData = {
anchors = (
);
b = {
};
com.typemytype.robofont.layerData = {
};
components = (
);
contours = (
);
lib = {
};
name = j;
unicodes = (
);
width = "482";
};
vertWidth = 0;
width = 507;
},
{
layerId = "28683A17-BAD2-44EA-B42B-E882FFDD4FE1";
paths = (
{
closed = 1;
nodes = (
"323 -388 OFFCURVE",
"415 -317 OFFCURVE",
"415 -47 CURVE SMOOTH",
"415 1023 LINE",
"192 1023 LINE",
"192 -91 LINE SMOOTH",
"192 -176 OFFCURVE",
"152 -207 OFFCURVE",
"97 -207 CURVE SMOOTH",
"64 -207 OFFCURVE",
"21 -196 OFFCURVE",
"-23 -176 CURVE",
"-66 -342 LINE",
"-17 -370 OFFCURVE",
"62 -388 OFFCURVE",
"133 -388 CURVE SMOOTH"
);
},
{
closed = 1;
nodes = (
"413 1234 LINE",
"413 1478 LINE",
"183 1478 LINE",
"183 1234 LINE"
);
}
);
userData = {
anchors = (
);
b = {
};
com.typemytype.robofont.layerData = {
};
components = (
);
contours = (
);
lib = {
};
name = j;
unicodes = (
);
width = "482";
};
vertWidth = 0;
width = 518;
},
{
components = (
{
name = dotaccent;
transform = "{1, 0, 0, 1, 69, 0}";
},
{
name = dotlessj;
}
);
layerId = "E322F6D1-BA90-436B-BB35-51D9BD3EA9D1";
userData = {
anchors = (
);
b = {
};
com.typemytype.robofont.layerData = {
b = {
anchors = (
);
components = (
);
contours = (
);
lib = {
};
name = j;
unicodes = (
);
width = 479;
};
};
components = (
);
contours = (
);
lib = {
};
name = j;
unicodes = (
);
width = "482";
};
vertWidth = 0;
width = 479;
}
);
unicode = 006A;
},
{
glyphname = uni0237;
layers = (
{
anchors = (
{
name = top;
position = "{302, 1023}";
}
);
layerId = "8E6A00A3-5EF9-4E6D-9A7B-9C1BBC7D44AD";
paths = (
{
closed = 1;
nodes = (
"322 -347 OFFCURVE",
"376 -252 OFFCURVE",
"376 -24 CURVE SMOOTH",
"376 1023 LINE",
"206 1023 LINE",
"206 -91 LINE SMOOTH",
"206 -180 OFFCURVE",
"168 -207 OFFCURVE",
"111 -207 CURVE SMOOTH",
"65 -207 OFFCURVE",
"26 -191 OFFCURVE",
"-7 -177 CURVE",
"-41 -304 LINE",
"3 -328 OFFCURVE",
"67 -347 OFFCURVE",
"138 -347 CURVE SMOOTH"
);
}
);
userData = {
anchors = (
);
b = {
};
com.typemytype.robofont.layerData = {
};
components = (
);
contours = (
);
lib = {
};
name = j;
unicodes = (
);
width = "482";
};
vertWidth = 0;
width = 494;
},
{
anchors = (
{
name = top;
position = "{301, 1023}";
}
);
layerId = "8DE4C137-4DC6-43A7-909D-C9F8072E6A1C";
paths = (
{
closed = 1;
nodes = (
"323 -369 OFFCURVE",
"397 -287 OFFCURVE",
"397 -36 CURVE SMOOTH",
"397 1023 LINE",
"199 1023 LINE",
"199 -91 LINE SMOOTH",
"199 -178 OFFCURVE",
"159 -207 OFFCURVE",
"104 -207 CURVE SMOOTH",
"64 -207 OFFCURVE",
"23 -194 OFFCURVE",
"-16 -176 CURVE",
"-54 -324 LINE",
"-8 -351 OFFCURVE",
"64 -369 OFFCURVE",
"135 -369 CURVE SMOOTH"
);
}
);
userData = {
anchors = (
);
b = {
};
com.typemytype.robofont.layerData = {
};
components = (
);
contours = (
);
lib = {
};
name = j;
unicodes = (
);
width = "482";
};
vertWidth = 0;
width = 507;
},
{
layerId = "28683A17-BAD2-44EA-B42B-E882FFDD4FE1";
paths = (
{
closed = 1;
nodes = (
"323 -388 OFFCURVE",
"415 -317 OFFCURVE",
"415 -47 CURVE SMOOTH",
"415 1023 LINE",
"192 1023 LINE",
"192 -91 LINE SMOOTH",
"192 -176 OFFCURVE",
"152 -207 OFFCURVE",
"97 -207 CURVE SMOOTH",
"64 -207 OFFCURVE",
"21 -196 OFFCURVE",
"-23 -176 CURVE",
"-66 -342 LINE",
"-17 -370 OFFCURVE",
"62 -388 OFFCURVE",
"133 -388 CURVE SMOOTH"
);
}
);
userData = {
anchors = (
);
b = {
};
com.typemytype.robofont.layerData = {
};
components = (
);
contours = (
);
lib = {
};
name = j;
unicodes = (
);
width = "482";
};
vertWidth = 0;
width = 518;
},
{
layerId = "E322F6D1-BA90-436B-BB35-51D9BD3EA9D1";
width = 600;
}
);
unicode = 0237;
},
{
glyphname = k;
layers = (
{
anchors = (
{
name = top;
position = "{639, 1220}";
}
);
layerId = "8E6A00A3-5EF9-4E6D-9A7B-9C1BBC7D44AD";
paths = (
{
closed = 1;
nodes = (
"297 0 LINE",
"297 352 LINE",
"493 539 LINE",
"847 0 LINE",
"1039 0 LINE",
"603 645 LINE",
"999 1023 LINE",
"806 1023 LINE",
"297 533 LINE",
"297 1474 LINE",
"126 1474 LINE",
"126 0 LINE"
);
}
);
userData = {
anchors = (
);
b = {
};
com.typemytype.robofont.layerData = {
};
components = (
);
contours = {
};
lib = {
};
name = k;
points = {
};
segmentType = line;
unicodes = (
);
width = "1005";
x = "268";
y = "511";
};
vertWidth = 0;
width = 1029;
},
{
anchors = (
{
name = top;
position = "{631, 1296}";
}
);
layerId = "8DE4C137-4DC6-43A7-909D-C9F8072E6A1C";
paths = (
{
closed = 1;
nodes = (
"324 0 LINE",
"324 340 LINE",
"504 514 LINE",
"838 0 LINE",
"1062 0 LINE",
"634 638 LINE",
"1035 1023 LINE",
"811 1023 LINE",
"324 550 LINE",
"324 1474 LINE",
"125 1474 LINE",
"125 0 LINE"
);
}
);
userData = {
anchors = (
);
b = {
};
com.typemytype.robofont.layerData = {
};
components = (
);
contours = {
};
lib = {
};
name = k;
points = {
};
segmentType = line;
unicodes = (
);
width = "1005";
x = "268";
y = "511";
};
vertWidth = 0;
width = 1052;
},
{
anchors = (
{
name = bot;
position = "{536, 0}";
},
{
name = top;
position = "{632, 1346}";
}
);
layerId = "28683A17-BAD2-44EA-B42B-E882FFDD4FE1";
paths = (
{
closed = 1;
nodes = (
"347 0 LINE",
"347 330 LINE",
"514 492 LINE",
"831 0 LINE",
"1082 0 LINE",
"660 632 LINE",
"1067 1023 LINE",
"816 1023 LINE",
"347 565 LINE",
"347 1474 LINE",
"123 1474 LINE",
"123 0 LINE"
);
}
);
userData = {
anchors = (
);
b = {
};
com.typemytype.robofont.layerData = {
};
components = (
);
contours = {
};
lib = {
};
name = k;
points = {
};
segmentType = line;
unicodes = (
);
width = "1005";
x = "268";
y = "511";
};
vertWidth = 0;
width = 1072;
},
{
anchors = (
{
name = top;
position = "{514, 1324}";
}
);
layerId = "E322F6D1-BA90-436B-BB35-51D9BD3EA9D1";
paths = (
{
closed = 1;
nodes = (
"264 0 LINE",
"264 367 LINE",
"478 570 LINE",
"858 0 LINE",
"1010 0 LINE",
"565 654 LINE",
"954 1023 LINE",
"800 1023 LINE",
"264 512 LINE",
"263 1474 LINE",
"128 1474 LINE",
"128 0 LINE"
);
}
);
userData = {
anchors = (
);
b = {
};
com.typemytype.robofont.layerData = {
b = {
anchors = (
);
components = (
);
contours = (
);
lib = {
};
name = k;
unicodes = (
);
width = 1000;
};
};
components = (
);
contours = {
};
lib = {
};
name = k;
points = {
};
segmentType = line;
unicodes = (
);
width = "1005";
x = "268";
y = "511";
};
vertWidth = 0;
width = 1000;
}
);
unicode = 006B;
},
{
glyphname = kgreenlandic;
layers = (
{
layerId = "8E6A00A3-5EF9-4E6D-9A7B-9C1BBC7D44AD";
paths = (
{
closed = 1;
nodes = (
"286 0 LINE",
"285.716 290.528 LINE",
"492 504 LINE",
"845 0 LINE",
"1037 0 LINE",
"607 597 LINE",
"980 1023 LINE",
"785 1023 LINE",
"285.545 465.849 LINE",
"285 1023 LINE",
"116 1023 LINE",
"116 0 LINE"
);
}
);
userData = {
anchors = (
);
b = {
};
com.typemytype.robofont.layerData = {
};
components = (
);
contours = {
};
lib = {
};
name = kgreenlandic;
points = {
};
segmentType = curve;
unicodes = (
);
width = "1010";
x = "271";
y = "446";
};
vertWidth = 0;
width = 1010;
},
{
layerId = "8DE4C137-4DC6-43A7-909D-C9F8072E6A1C";
paths = (
{
closed = 1;
nodes = (
"337 0 LINE",
"337 319 LINE",
"495 481 LINE",
"832 0 LINE",
"1056 0 LINE",
"628 590 LINE",
"1001 1023 LINE",
"773 1023 LINE",
"337 529 LINE",
"337 1023 LINE",
"139 1023 LINE",
"139 0 LINE"
);
}
);
userData = {
anchors = (
);
b = {
};
com.typemytype.robofont.layerData = {
};
components = (
);
contours = {
};
lib = {
};
name = kgreenlandic;
points = {
};
segmentType = curve;
unicodes = (
);
width = "1010";
x = "271";
y = "446";
};
vertWidth = 0;
width = 1010;
},
{
layerId = "28683A17-BAD2-44EA-B42B-E882FFDD4FE1";
paths = (
{
closed = 1;
nodes = (
"358 0 LINE",
"358 318 LINE",
"497 461 LINE",
"820 0 LINE",
"1073 0 LINE",
"647 583 LINE",
"1019 1023 LINE",
"763 1023 LINE",
"358 557 LINE",
"358 1023 LINE",
"136 1023 LINE",
"136 0 LINE"
);
}
);
userData = {
anchors = (
);
b = {
};
com.typemytype.robofont.layerData = {
};
components = (
);
contours = {
};
lib = {
};
name = kgreenlandic;
points = {
};
segmentType = curve;
unicodes = (
);
width = "1010";
x = "271";
y = "446";
};
vertWidth = 0;
width = 1010;
},
{
layerId = "E322F6D1-BA90-436B-BB35-51D9BD3EA9D1";
paths = (
{
closed = 1;
nodes = (
"281 0 LINE",
"281 318 LINE",
"489 533 LINE",
"861 0 LINE",
"1013 0 LINE",
"580 606 LINE",
"954 1023 LINE",
"800 1023 LINE",
"281 456 LINE",
"281 1023 LINE",
"146 1023 LINE",
"146 0 LINE"
);
}
);
userData = {
anchors = (
);
b = {
};
com.typemytype.robofont.layerData = {
b = {
anchors = (
);
components = (
);
contours = (
);
lib = {
};
name = kgreenlandic;
unicodes = (
);
width = 1010;
};
};
components = (
);
contours = {
};
lib = {
};
name = kgreenlandic;
points = {
};
segmentType = curve;
unicodes = (
);
width = "1010";
x = "271";
y = "446";
};
vertWidth = 0;
width = 1010;
}
);
unicode = 0138;
},
{
glyphname = l;
layers = (
{
anchors = (
{
name = caron.alt;
position = "{303, 1023}";
},
{
name = top;
position = "{235, 1474}";
}
);
layerId = "8E6A00A3-5EF9-4E6D-9A7B-9C1BBC7D44AD";
paths = (
{
closed = 1;
nodes = (
"305 0 LINE",
"305 1474 LINE",
"135 1474 LINE",
"135 0 LINE"
);
}
);
userData = {
com.typemytype.robofont.layerData = {
};
};
vertWidth = 0;
width = 445;
},
{
anchors = (
{
name = caron.alt;
position = "{332, 1023}";
},
{
name = top;
position = "{243, 1464}";
}
);
layerId = "8DE4C137-4DC6-43A7-909D-C9F8072E6A1C";
paths = (
{
closed = 1;
nodes = (
"336 0 LINE",
"336 1474 LINE",
"138 1474 LINE",
"138 0 LINE"
);
}
);
userData = {
com.typemytype.robofont.layerData = {
};
};
vertWidth = 0;
width = 472;
},
{
anchors = (
{
name = bot;
position = "{247.5, 0}";
},
{
name = caron.alt;
position = "{357, 1023}";
},
{
name = mid;
position = "{248, 822}";
},
{
name = top;
position = "{248, 1464}";
}
);
layerId = "28683A17-BAD2-44EA-B42B-E882FFDD4FE1";
paths = (
{
closed = 1;
nodes = (
"362 0 LINE",
"362 1474 LINE",
"140 1474 LINE",
"140 0 LINE"
);
}
);
userData = {
com.typemytype.robofont.layerData = {
};
};
vertWidth = 0;
width = 495;
},
{
anchors = (
{
name = caron.alt;
position = "{267, 1023}";
},
{
name = top;
position = "{206, 1464}";
}
);
layerId = "E322F6D1-BA90-436B-BB35-51D9BD3EA9D1";
paths = (
{
closed = 1;
nodes = (
"267 0 LINE",
"267 1474 LINE",
"132 1474 LINE",
"132 0 LINE"
);
}
);
userData = {
com.typemytype.robofont.layerData = {
b = {
anchors = (
);
components = (
);
contours = (
);
lib = {
};
name = l;
unicodes = (
);
width = 411;
};
};
};
vertWidth = 0;
width = 411;
}
);
unicode = 006C;
},
{
glyphname = lslash;
layers = (
{
components = (
{
name = l;
}
);
layerId = "8E6A00A3-5EF9-4E6D-9A7B-9C1BBC7D44AD";
paths = (
{
closed = 1;
nodes = (
"477 891 LINE",
"477 1032 LINE",
"-52 787 LINE",
"-52 646 LINE"
);
}
);
userData = {
anchors = (
);
b = {
};
com.typemytype.robofont.layerData = {
};
components = (
);
contours = (
);
lib = {
};
name = lslash;
unicodes = (
);
width = "421";
};
vertWidth = 0;
width = 421;
},
{
components = (
{
name = l;
}
);
layerId = "8DE4C137-4DC6-43A7-909D-C9F8072E6A1C";
paths = (
{
closed = 1;
nodes = (
"497 868 LINE",
"497 1032 LINE",
"-43 787 LINE",
"-43 623 LINE"
);
}
);
userData = {
anchors = (
);
b = {
};
com.typemytype.robofont.layerData = {
};
components = (
);
contours = (
);
lib = {
};
name = lslash;
unicodes = (
);
width = "421";
};
vertWidth = 0;
width = 421;
},
{
components = (
{
name = l;
}
);
layerId = "28683A17-BAD2-44EA-B42B-E882FFDD4FE1";
paths = (
{
closed = 1;
nodes = (
"515 848 LINE",
"515 1032 LINE",
"-36 787 LINE",
"-36 603 LINE"
);
}
);
userData = {
anchors = (
);
b = {
};
com.typemytype.robofont.layerData = {
};
components = (
);
contours = (
);
lib = {
};
name = lslash;
unicodes = (
);
width = "421";
};
vertWidth = 0;
width = 421;
},
{
components = (
{
name = l;
}
);
layerId = "E322F6D1-BA90-436B-BB35-51D9BD3EA9D1";
paths = (
{
closed = 1;
nodes = (
"452 920 LINE",
"452 1032 LINE",
"-62 787 LINE",
"-62 675 LINE"
);
}
);
userData = {
anchors = (
);
b = {
};
com.typemytype.robofont.layerData = {
b = {
anchors = (
);
components = (
);
contours = (
);
lib = {
};
name = lslash;
unicodes = (
);
width = 421;
};
};
components = (
);
contours = (
);
lib = {
};
name = lslash;
unicodes = (
);
width = "421";
};
vertWidth = 0;
width = 421;
}
);
unicode = 0142;
},
{
glyphname = m;
layers = (
{
anchors = (
{
name = top;
position = "{971, 1023}";
}
);
layerId = "8E6A00A3-5EF9-4E6D-9A7B-9C1BBC7D44AD";
paths = (
{
closed = 1;
nodes = (
"296 0 LINE",
"296 516 LINE",
"300 736 OFFCURVE",
"373 925 OFFCURVE",
"606 925 CURVE SMOOTH",
"772 925 OFFCURVE",
"817 808 OFFCURVE",
"817 603 CURVE SMOOTH",
"817 0 LINE",
"987 0 LINE",
"987 495 LINE SMOOTH",
"987 726 OFFCURVE",
"1055 925 OFFCURVE",
"1298 925 CURVE SMOOTH",
"1463 925 OFFCURVE",
"1509 808 OFFCURVE",
"1509 603 CURVE SMOOTH",
"1509 0 LINE",
"1679 0 LINE",
"1679 588 LINE SMOOTH",
"1679 794 OFFCURVE",
"1651 1045 OFFCURVE",
"1328 1045 CURVE SMOOTH",
"1148 1045 OFFCURVE",
"1027 968 OFFCURVE",
"962 823 CURVE",
"925 947 OFFCURVE",
"839 1045 OFFCURVE",
"637 1045 CURVE SMOOTH",
"477 1045 OFFCURVE",
"365 982 OFFCURVE",
"296 866 CURVE",
"296 1023 LINE",
"126 1023 LINE",
"126 0 LINE"
);
}
);
userData = {
anchors = (
);
b = {
};
com.typemytype.robofont.layerData = {
};
components = (
);
contours = {
};
lib = {
};
name = m;
points = {
};
segmentType = curve;
unicodes = (
);
width = "1782";
x = "269";
y = "757";
};
vertWidth = 0;
width = 1799;
},
{
anchors = (
{
name = top;
position = "{983, 1023}";
}
);
layerId = "8DE4C137-4DC6-43A7-909D-C9F8072E6A1C";
paths = (
{
closed = 1;
nodes = (
"323 0 LINE",
"323 499 LINE",
"324 709 OFFCURVE",
"386 906 OFFCURVE",
"609 906 CURVE SMOOTH",
"763 906 OFFCURVE",
"812 803 OFFCURVE",
"812 602 CURVE SMOOTH",
"812 0 LINE",
"1010 0 LINE",
"1010 496 LINE SMOOTH",
"1010 709 OFFCURVE",
"1067 906 OFFCURVE",
"1297 906 CURVE SMOOTH",
"1450 906 OFFCURVE",
"1499 803 OFFCURVE",
"1499 602 CURVE SMOOTH",
"1499 0 LINE",
"1697 0 LINE",
"1697 593 LINE SMOOTH",
"1697 799 OFFCURVE",
"1660 1046 OFFCURVE",
"1337 1046 CURVE SMOOTH",
"1161 1046 OFFCURVE",
"1044 974 OFFCURVE",
"979 837 CURVE",
"938 956 OFFCURVE",
"848 1046 OFFCURVE",
"650 1046 CURVE SMOOTH",
"498 1046 OFFCURVE",
"392 987 OFFCURVE",
"323 883 CURVE",
"323 1023 LINE",
"125 1023 LINE",
"125 0 LINE"
);
}
);
userData = {
anchors = (
);
b = {
};
com.typemytype.robofont.layerData = {
};
components = (
);
contours = {
};
lib = {
};
name = m;
points = {
};
segmentType = curve;
unicodes = (
);
width = "1782";
x = "269";
y = "757";
};
vertWidth = 0;
width = 1813;
},
{
anchors = (
{
name = bot;
position = "{912.5, 0}";
},
{
name = top;
position = "{912.5, 1023}";
}
);
layerId = "28683A17-BAD2-44EA-B42B-E882FFDD4FE1";
paths = (
{
closed = 1;
nodes = (
"346 0 LINE",
"346 485 LINE",
"345 685 OFFCURVE",
"397 890 OFFCURVE",
"612 890 CURVE SMOOTH",
"756 890 OFFCURVE",
"807 799 OFFCURVE",
"807 602 CURVE SMOOTH",
"807 0 LINE",
"1029 0 LINE",
"1029 497 LINE SMOOTH",
"1029 695 OFFCURVE",
"1078 890 OFFCURVE",
"1296 890 CURVE SMOOTH",
"1439 890 OFFCURVE",
"1490 799 OFFCURVE",
"1490 602 CURVE SMOOTH",
"1490 0 LINE",
"1713 0 LINE",
"1713 597 LINE SMOOTH",
"1713 803 OFFCURVE",
"1668 1047 OFFCURVE",
"1345 1047 CURVE SMOOTH",
"1173 1047 OFFCURVE",
"1060 979 OFFCURVE",
"993 849 CURVE",
"949 963 OFFCURVE",
"855 1047 OFFCURVE",
"662 1047 CURVE SMOOTH",
"516 1047 OFFCURVE",
"415 992 OFFCURVE",
"346 897 CURVE",
"346 1023 LINE",
"123 1023 LINE",
"123 0 LINE"
);
}
);
userData = {
anchors = (
);
b = {
};
com.typemytype.robofont.layerData = {
};
components = (
);
contours = {
};
lib = {
};
name = m;
points = {
};
segmentType = curve;
unicodes = (
);
width = "1782";
x = "269";
y = "757";
};
vertWidth = 0;
width = 1825;
},
{
anchors = (
{
name = top;
position = "{955, 1023}";
}
);
layerId = "E322F6D1-BA90-436B-BB35-51D9BD3EA9D1";
paths = (
{
closed = 1;
nodes = (
"263 0 LINE",
"262 536 LINE",
"270 771 OFFCURVE",
"357 948 OFFCURVE",
"602 948 CURVE SMOOTH",
"782 948 OFFCURVE",
"824 813 OFFCURVE",
"824 603 CURVE SMOOTH",
"824 0 LINE",
"959 0 LINE",
"959 494 LINE SMOOTH",
"959 746 OFFCURVE",
"1040 948 OFFCURVE",
"1299 948 CURVE SMOOTH",
"1479 948 OFFCURVE",
"1522 813 OFFCURVE",
"1522 603 CURVE SMOOTH",
"1522 0 LINE",
"1657 0 LINE",
"1657 583 LINE SMOOTH",
"1657 789 OFFCURVE",
"1640 1044 OFFCURVE",
"1317 1044 CURVE SMOOTH",
"1132 1044 OFFCURVE",
"1005 961 OFFCURVE",
"941 806 CURVE",
"910 937 OFFCURVE",
"829 1044 OFFCURVE",
"620 1044 CURVE SMOOTH",
"452 1044 OFFCURVE",
"331 975 OFFCURVE",
"262 846 CURVE",
"262 1023 LINE",
"128 1023 LINE",
"128 0 LINE"
);
}
);
userData = {
anchors = (
);
b = {
};
com.typemytype.robofont.layerData = {
b = {
anchors = (
);
components = (
);
contours = (
);
lib = {
};
name = m;
unicodes = (
);
width = 1782;
};
};
components = (
);
contours = {
};
lib = {
};
name = m;
points = {
};
segmentType = curve;
unicodes = (
);
width = "1782";
x = "269";
y = "757";
};
vertWidth = 0;
width = 1782;
}
);
unicode = 006D;
},
{
glyphname = n;
layers = (
{
anchors = (
{
name = top;
position = "{626, 1023}";
}
);
layerId = "8E6A00A3-5EF9-4E6D-9A7B-9C1BBC7D44AD";
paths = (
{
closed = 1;
nodes = (
"296 0 LINE",
"296 535 LINE",
"303 742 OFFCURVE",
"380 925 OFFCURVE",
"607 925 CURVE SMOOTH",
"772 925 OFFCURVE",
"817 808 OFFCURVE",
"817 602 CURVE SMOOTH",
"817 0 LINE",
"987 0 LINE",
"987 588 LINE SMOOTH",
"987 793 OFFCURVE",
"958 1045 OFFCURVE",
"637 1045 CURVE SMOOTH",
"478 1045 OFFCURVE",
"365 984 OFFCURVE",
"296 868 CURVE",
"296 1023 LINE",
"126 1023 LINE",
"126 0 LINE"
);
}
);
userData = {
anchors = (
);
b = {
};
com.typemytype.robofont.layerData = {
};
components = (
);
contours = {
};
lib = {
};
name = n;
points = {
};
segmentType = curve;
unicodes = (
);
width = "1086";
x = "265";
y = "830";
};
vertWidth = 0;
width = 1107;
},
{
anchors = (
{
name = top;
position = "{628, 1023}";
}
);
layerId = "8DE4C137-4DC6-43A7-909D-C9F8072E6A1C";
paths = (
{
closed = 1;
nodes = (
"323 0 LINE",
"323 506 LINE",
"325 704 OFFCURVE",
"391 906 OFFCURVE",
"613 906 CURVE SMOOTH",
"767 906 OFFCURVE",
"812 800 OFFCURVE",
"812 599 CURVE SMOOTH",
"812 0 LINE",
"1010 0 LINE",
"1010 593 LINE SMOOTH",
"1010 798 OFFCURVE",
"973 1046 OFFCURVE",
"650 1046 CURVE SMOOTH",
"499 1046 OFFCURVE",
"392 989 OFFCURVE",
"323 884 CURVE",
"323 1023 LINE",
"125 1023 LINE",
"125 0 LINE"
);
}
);
userData = {
anchors = (
);
b = {
};
com.typemytype.robofont.layerData = {
};
components = (
);
contours = {
};
lib = {
};
name = n;
points = {
};
segmentType = curve;
unicodes = (
);
width = "1086";
x = "265";
y = "830";
};
vertWidth = 0;
width = 1126;
},
{
anchors = (
{
name = bot;
position = "{571, 0}";
},
{
name = top;
position = "{571, 1023}";
}
);
layerId = "28683A17-BAD2-44EA-B42B-E882FFDD4FE1";
paths = (
{
closed = 1;
nodes = (
"346 0 LINE",
"346 480 LINE",
"344 671 OFFCURVE",
"401 890 OFFCURVE",
"618 890 CURVE SMOOTH",
"762 890 OFFCURVE",
"807 793 OFFCURVE",
"807 596 CURVE SMOOTH",
"807 0 LINE",
"1029 0 LINE",
"1029 597 LINE SMOOTH",
"1029 803 OFFCURVE",
"985 1047 OFFCURVE",
"662 1047 CURVE SMOOTH",
"517 1047 OFFCURVE",
"415 993 OFFCURVE",
"346 898 CURVE",
"346 1023 LINE",
"123 1023 LINE",
"123 0 LINE"
);
}
);
userData = {
anchors = (
);
b = {
};
com.typemytype.robofont.layerData = {
};
components = (
);
contours = {
};
lib = {
};
name = n;
points = {
};
segmentType = curve;
unicodes = (
);
width = "1086";
x = "265";
y = "830";
};
vertWidth = 0;
width = 1142;
},
{
anchors = (
{
name = top;
position = "{542, 1023}";
}
);
layerId = "E322F6D1-BA90-436B-BB35-51D9BD3EA9D1";
paths = (
{
closed = 1;
nodes = (
"263 0 LINE",
"262 571 LINE",
"276 790 OFFCURVE",
"365 948 OFFCURVE",
"600 948 CURVE SMOOTH",
"779 948 OFFCURVE",
"824 818 OFFCURVE",
"824 606 CURVE SMOOTH",
"824 0 LINE",
"959 0 LINE",
"959 583 LINE SMOOTH",
"959 786 OFFCURVE",
"940 1044 OFFCURVE",
"620 1044 CURVE SMOOTH",
"452 1044 OFFCURVE",
"331 979 OFFCURVE",
"262 848 CURVE",
"262 1023 LINE",
"128 1023 LINE",
"128 0 LINE"
);
}
);
userData = {
anchors = (
);
b = {
};
com.typemytype.robofont.layerData = {
b = {
anchors = (
);
components = (
);
contours = (
);
lib = {
};
name = n;
unicodes = (
);
width = 1084;
};
};
components = (
);
contours = {
};
lib = {
};
name = n;
points = {
};
segmentType = curve;
unicodes = (
);
width = "1086";
x = "265";
y = "830";
};
vertWidth = 0;
width = 1084;
}
);
unicode = 006E;
},
{
glyphname = eng;
layers = (
{
layerId = "8E6A00A3-5EF9-4E6D-9A7B-9C1BBC7D44AD";
paths = (
{
closed = 1;
nodes = (
"820 -408 OFFCURVE",
"987 -262 OFFCURVE",
"987 -23 CURVE SMOOTH",
"987 588 LINE SMOOTH",
"987 793 OFFCURVE",
"958 1045 OFFCURVE",
"637 1045 CURVE SMOOTH",
"478 1045 OFFCURVE",
"365 984 OFFCURVE",
"296 868 CURVE",
"296 1023 LINE",
"126 1023 LINE",
"126 0 LINE",
"296 0 LINE",
"296 535 LINE",
"303 742 OFFCURVE",
"380 925 OFFCURVE",
"607 925 CURVE SMOOTH",
"772 925 OFFCURVE",
"817 808 OFFCURVE",
"817 602 CURVE SMOOTH",
"817 -23 LINE SMOOTH",
"817 -168 OFFCURVE",
"741 -281 OFFCURVE",
"538 -282 CURVE",
"537 -410 LINE"
);
}
);
vertWidth = 0;
width = 1107;
},
{
layerId = "8DE4C137-4DC6-43A7-909D-C9F8072E6A1C";
paths = (
{
closed = 1;
nodes = (
"824 -409 OFFCURVE",
"1010 -297 OFFCURVE",
"1010 -24 CURVE SMOOTH",
"1010 593 LINE SMOOTH",
"1010 798 OFFCURVE",
"973 1046 OFFCURVE",
"650 1046 CURVE SMOOTH",
"499 1046 OFFCURVE",
"392 989 OFFCURVE",
"323 884 CURVE",
"323 1023 LINE",
"125 1023 LINE",
"125 0 LINE",
"323 0 LINE",
"323 506 LINE",
"325 704 OFFCURVE",
"391 906 OFFCURVE",
"613 906 CURVE SMOOTH",
"767 906 OFFCURVE",
"812 800 OFFCURVE",
"812 599 CURVE SMOOTH",
"812 -22 LINE SMOOTH",
"812 -169 OFFCURVE",
"748 -259 OFFCURVE",
"543 -261 CURVE",
"540 -410 LINE"
);
}
);
vertWidth = 0;
width = 1126;
},
{
components = (
{
name = n;
}
);
layerId = "28683A17-BAD2-44EA-B42B-E882FFDD4FE1";
paths = (
{
closed = 1;
nodes = (
"828 -410 OFFCURVE",
"1029 -327 OFFCURVE",
"1029 -26 CURVE SMOOTH",
"1029 144 LINE",
"807 144 LINE",
"807 -20 LINE SMOOTH",
"807 -170 OFFCURVE",
"753 -240 OFFCURVE",
"547 -243 CURVE",
"543 -410 LINE"
);
}
);
vertWidth = 0;
width = 1142;
},
{
layerId = "E322F6D1-BA90-436B-BB35-51D9BD3EA9D1";
paths = (
{
closed = 1;
nodes = (
"815 -407 OFFCURVE",
"959 -219 OFFCURVE",
"959 -21 CURVE SMOOTH",
"959 583 LINE SMOOTH",
"959 786 OFFCURVE",
"940 1044 OFFCURVE",
"620 1044 CURVE SMOOTH",
"452 1044 OFFCURVE",
"331 979 OFFCURVE",
"262 848 CURVE",
"262 1023 LINE",
"128 1023 LINE",
"128 0 LINE",
"263 0 LINE",
"262 571 LINE",
"276 790 OFFCURVE",
"365 948 OFFCURVE",
"600 948 CURVE SMOOTH",
"779 948 OFFCURVE",
"824 818 OFFCURVE",
"824 606 CURVE SMOOTH",
"824 -25 LINE SMOOTH",
"824 -166.503 OFFCURVE",
"733.636 -308.005 OFFCURVE",
"534.108 -308.005 CURVE SMOOTH",
"532 -308.005 LINE SMOOTH",
"533 -410 LINE"
);
}
);
vertWidth = 0;
width = 1084;
}
);
unicode = 014B;
},
{
glyphname = o;
layers = (
{
anchors = (
{
name = ogonek;
position = "{614, 0}";
},
{
name = top;
position = "{546, 1023}";
}
);
layerId = "8E6A00A3-5EF9-4E6D-9A7B-9C1BBC7D44AD";
paths = (
{
closed = 1;
nodes = (
"818 -24 OFFCURVE",
"994 159 OFFCURVE",
"994 511 CURVE SMOOTH",
"994 862 OFFCURVE",
"818 1045 OFFCURVE",
"545 1045 CURVE SMOOTH",
"271 1045 OFFCURVE",
"95 862 OFFCURVE",
"95 511 CURVE SMOOTH",
"95 159 OFFCURVE",
"271 -24 OFFCURVE",
"545 -24 CURVE SMOOTH"
);
},
{
closed = 1;
nodes = (
"322 97 OFFCURVE",
"269 308 OFFCURVE",
"269 511 CURVE SMOOTH",
"269 713 OFFCURVE",
"322 925 OFFCURVE",
"545 925 CURVE SMOOTH",
"768 925 OFFCURVE",
"821 713 OFFCURVE",
"821 511 CURVE SMOOTH",
"821 308 OFFCURVE",
"768 97 OFFCURVE",
"545 97 CURVE SMOOTH"
);
}
);
userData = {
com.typemytype.robofont.guides = (
);
com.typemytype.robofont.layerData = {
};
};
vertWidth = 0;
width = 1090;
},
{
anchors = (
{
name = ogonek;
position = "{596, 0}";
},
{
name = top;
position = "{549.5, 1023}";
}
);
layerId = "8DE4C137-4DC6-43A7-909D-C9F8072E6A1C";
paths = (
{
closed = 1;
nodes = (
"831 -24 OFFCURVE",
"1009 158 OFFCURVE",
"1009 512 CURVE SMOOTH",
"1009 865 OFFCURVE",
"831 1046 OFFCURVE",
"550 1046 CURVE SMOOTH",
"268 1046 OFFCURVE",
"90 865 OFFCURVE",
"90 512 CURVE SMOOTH",
"90 158 OFFCURVE",
"268 -24 OFFCURVE",
"550 -24 CURVE SMOOTH"
);
},
{
closed = 1;
nodes = (
"338 116 OFFCURVE",
"293 317 OFFCURVE",
"293 512 CURVE SMOOTH",
"293 706 OFFCURVE",
"338 906 OFFCURVE",
"550 906 CURVE SMOOTH",
"761 906 OFFCURVE",
"806 706 OFFCURVE",
"806 512 CURVE SMOOTH",
"806 317 OFFCURVE",
"761 116 OFFCURVE",
"550 116 CURVE SMOOTH"
);
}
);
userData = {
com.typemytype.robofont.guides = (
);
com.typemytype.robofont.layerData = {
};
};
vertWidth = 0;
width = 1099;
},
{
anchors = (
{
name = bot;
position = "{554, 0}";
},
{
name = ogonek;
position = "{609, 0}";
},
{
name = top;
position = "{554, 1023}";
}
);
layerId = "28683A17-BAD2-44EA-B42B-E882FFDD4FE1";
paths = (
{
closed = 1;
nodes = (
"843 -24 OFFCURVE",
"1021 158 OFFCURVE",
"1021 512 CURVE SMOOTH",
"1021 867 OFFCURVE",
"843 1047 OFFCURVE",
"554 1047 CURVE SMOOTH",
"265 1047 OFFCURVE",
"86 867 OFFCURVE",
"86 512 CURVE SMOOTH",
"86 158 OFFCURVE",
"265 -24 OFFCURVE",
"554 -24 CURVE SMOOTH"
);
},
{
closed = 1;
nodes = (
"352 133 OFFCURVE",
"314 325 OFFCURVE",
"314 512 CURVE SMOOTH",
"314 699 OFFCURVE",
"352 890 OFFCURVE",
"554 890 CURVE SMOOTH",
"756 890 OFFCURVE",
"794 699 OFFCURVE",
"794 512 CURVE SMOOTH",
"794 325 OFFCURVE",
"756 133 OFFCURVE",
"554 133 CURVE SMOOTH"
);
}
);
userData = {
com.typemytype.robofont.guides = (
);
com.typemytype.robofont.layerData = {
};
};
vertWidth = 0;
width = 1108;
},
{
anchors = (
{
name = ogonek;
position = "{575, 0}";
},
{
name = top;
position = "{539, 1023}";
}
);
layerId = "E322F6D1-BA90-436B-BB35-51D9BD3EA9D1";
paths = (
{
closed = 1;
nodes = (
"802 -24 OFFCURVE",
"976 160 OFFCURVE",
"976 510 CURVE SMOOTH",
"976 859 OFFCURVE",
"802 1044 OFFCURVE",
"539 1044 CURVE SMOOTH",
"276 1044 OFFCURVE",
"101 859 OFFCURVE",
"101 510 CURVE SMOOTH",
"101 160 OFFCURVE",
"276 -24 OFFCURVE",
"539 -24 CURVE SMOOTH"
);
},
{
closed = 1;
nodes = (
"302 72 OFFCURVE",
"239 297 OFFCURVE",
"239 510 CURVE SMOOTH",
"239 723 OFFCURVE",
"302 948 OFFCURVE",
"539 948 CURVE SMOOTH",
"776 948 OFFCURVE",
"839 723 OFFCURVE",
"839 510 CURVE SMOOTH",
"839 297 OFFCURVE",
"776 72 OFFCURVE",
"539 72 CURVE SMOOTH"
);
}
);
userData = {
com.typemytype.robofont.guides = (
);
com.typemytype.robofont.layerData = {
b = {
anchors = (
);
components = (
);
contours = (
);
lib = {
};
name = o;
unicodes = (
);
width = 1078;
};
};
};
vertWidth = 0;
width = 1078;
}
);
unicode = 006F;
},
{
glyphname = oslash;
layers = (
{
components = (
{
name = o;
}
);
layerId = "8E6A00A3-5EF9-4E6D-9A7B-9C1BBC7D44AD";
paths = (
{
closed = 1;
nodes = (
"920 1177 LINE",
"834 1222 LINE",
"181 -153 LINE",
"269 -198 LINE"
);
}
);
userData = {
anchors = (
);
b = {
};
com.typemytype.robofont.layerData = {
};
components = (
);
contours = (
);
lib = {
};
name = oslash;
unicodes = (
);
width = "1104";
};
vertWidth = 0;
width = 1104;
},
{
components = (
{
name = o;
}
);
layerId = "8DE4C137-4DC6-43A7-909D-C9F8072E6A1C";
paths = (
{
closed = 1;
nodes = (
"935 1176 LINE",
"835 1229 LINE",
"182 -146 LINE",
"284 -199 LINE"
);
}
);
userData = {
anchors = (
);
b = {
};
com.typemytype.robofont.layerData = {
};
components = (
);
contours = (
);
lib = {
};
name = oslash;
unicodes = (
);
width = "1104";
};
vertWidth = 0;
width = 1104;
},
{
components = (
{
name = o;
}
);
layerId = "28683A17-BAD2-44EA-B42B-E882FFDD4FE1";
paths = (
{
closed = 1;
nodes = (
"947 1175 LINE",
"835 1234 LINE",
"182 -141 LINE",
"297 -200 LINE"
);
}
);
userData = {
anchors = (
);
b = {
};
com.typemytype.robofont.layerData = {
};
components = (
);
contours = (
);
lib = {
};
name = oslash;
unicodes = (
);
width = "1104";
};
vertWidth = 0;
width = 1104;
},
{
components = (
{
name = o;
}
);
layerId = "E322F6D1-BA90-436B-BB35-51D9BD3EA9D1";
paths = (
{
closed = 1;
nodes = (
"902 1178 LINE",
"834 1214 LINE",
"181 -161 LINE",
"250 -197 LINE"
);
}
);
userData = {
anchors = (
);
b = {
};
com.typemytype.robofont.layerData = {
b = {
anchors = (
);
components = (
);
contours = (
);
lib = {
};
name = oslash;
unicodes = (
);
width = 1104;
};
};
components = (
);
contours = (
);
lib = {
};
name = oslash;
unicodes = (
);
width = "1104";
};
vertWidth = 0;
width = 1104;
}
);
unicode = 00F8;
},
{
glyphname = oe;
layers = (
{
layerId = "8E6A00A3-5EF9-4E6D-9A7B-9C1BBC7D44AD";
paths = (
{
closed = 1;
nodes = (
"722 -24 OFFCURVE",
"852 60 OFFCURVE",
"916 208 CURVE",
"980 70 OFFCURVE",
"1109 -24 OFFCURVE",
"1290 -24 CURVE SMOOTH",
"1465 -23 OFFCURVE",
"1623 78 OFFCURVE",
"1670 256 CURVE",
"1542 285 LINE",
"1507 181 OFFCURVE",
"1426 98 OFFCURVE",
"1287 98 CURVE SMOOTH",
"1086 98 OFFCURVE",
"1005 283 OFFCURVE",
"1004 487 CURVE",
"1688 487 LINE",
"1690 504 OFFCURVE",
"1691 555 OFFCURVE",
"1691 564 CURVE SMOOTH",
"1691 837 OFFCURVE",
"1565 1045 OFFCURVE",
"1280 1045 CURVE SMOOTH",
"1113 1045 OFFCURVE",
"979 948 OFFCURVE",
"915 808 CURVE",
"855 955 OFFCURVE",
"721 1045 OFFCURVE",
"556 1045 CURVE SMOOTH",
"282 1045 OFFCURVE",
"106 862 OFFCURVE",
"106 511 CURVE SMOOTH",
"106 159 OFFCURVE",
"282 -24 OFFCURVE",
"556 -24 CURVE SMOOTH"
);
},
{
closed = 1;
nodes = (
"333 97 OFFCURVE",
"280 308 OFFCURVE",
"280 511 CURVE SMOOTH",
"280 713 OFFCURVE",
"333 925 OFFCURVE",
"556 925 CURVE SMOOTH",
"778 925 OFFCURVE",
"831 713 OFFCURVE",
"831 511 CURVE SMOOTH",
"831 308 OFFCURVE",
"778 97 OFFCURVE",
"556 97 CURVE SMOOTH"
);
},
{
closed = 1;
nodes = (
"1016 758 OFFCURVE",
"1094 924 OFFCURVE",
"1278 924 CURVE SMOOTH",
"1460 924 OFFCURVE",
"1530 804 OFFCURVE",
"1532 599 CURVE",
"1004 599 LINE"
);
}
);
userData = {
com.typemytype.robofont.layerData = {
};
};
vertWidth = 0;
width = 1819;
},
{
anchors = (
{
name = ogonek;
position = "{1745, 0}";
}
);
layerId = "8DE4C137-4DC6-43A7-909D-C9F8072E6A1C";
paths = (
{
closed = 1;
nodes = (
"713 -24 OFFCURVE",
"845 47 OFFCURVE",
"913 181 CURVE",
"972 61 OFFCURVE",
"1106 -24 OFFCURVE",
"1275 -24 CURVE SMOOTH",
"1465 -24 OFFCURVE",
"1616 89 OFFCURVE",
"1663 267 CURVE",
"1514 300 LINE",
"1479 202 OFFCURVE",
"1411 117 OFFCURVE",
"1272 117 CURVE SMOOTH",
"1083 117 OFFCURVE",
"1014 297 OFFCURVE",
"1012 474 CURVE",
"1679 474 LINE",
"1681 491 OFFCURVE",
"1682 558 OFFCURVE",
"1682 567 CURVE SMOOTH",
"1682 840 OFFCURVE",
"1551 1046 OFFCURVE",
"1266 1046 CURVE SMOOTH",
"1109 1046 OFFCURVE",
"979 963 OFFCURVE",
"912 835 CURVE",
"848 968 OFFCURVE",
"712 1046 OFFCURVE",
"553 1046 CURVE SMOOTH",
"271 1046 OFFCURVE",
"94 865 OFFCURVE",
"94 512 CURVE SMOOTH",
"94 158 OFFCURVE",
"271 -24 OFFCURVE",
"553 -24 CURVE SMOOTH"
);
},
{
closed = 1;
nodes = (
"342 116 OFFCURVE",
"297 317 OFFCURVE",
"297 512 CURVE SMOOTH",
"297 706 OFFCURVE",
"342 906 OFFCURVE",
"553 906 CURVE SMOOTH",
"765 906 OFFCURVE",
"810 706 OFFCURVE",
"810 512 CURVE SMOOTH",
"810 317 OFFCURVE",
"765 116 OFFCURVE",
"553 116 CURVE SMOOTH"
);
},
{
closed = 1;
nodes = (
"1019 733 OFFCURVE",
"1081 905 OFFCURVE",
"1263 905 CURVE SMOOTH",
"1431 905 OFFCURVE",
"1495 799 OFFCURVE",
"1496 604 CURVE",
"1012 604 LINE"
);
}
);
userData = {
com.typemytype.robofont.layerData = {
};
};
vertWidth = 0;
width = 2129;
},
{
anchors = (
{
name = ogonek;
position = "{1757, 0}";
}
);
layerId = "28683A17-BAD2-44EA-B42B-E882FFDD4FE1";
paths = (
{
closed = 1;
nodes = (
"705 -24 OFFCURVE",
"840 35 OFFCURVE",
"911 157 CURVE",
"965 54 OFFCURVE",
"1104 -24 OFFCURVE",
"1263 -24 CURVE SMOOTH",
"1465 -24 OFFCURVE",
"1609 98 OFFCURVE",
"1656 276 CURVE",
"1490 313 LINE",
"1455 220 OFFCURVE",
"1397 134 OFFCURVE",
"1260 134 CURVE SMOOTH",
"1080 134 OFFCURVE",
"1022 309 OFFCURVE",
"1019 463 CURVE",
"1670 463 LINE",
"1672 480 OFFCURVE",
"1673 560 OFFCURVE",
"1673 569 CURVE SMOOTH",
"1673 842 OFFCURVE",
"1539 1047 OFFCURVE",
"1254 1047 CURVE SMOOTH",
"1106 1047 OFFCURVE",
"979 975 OFFCURVE",
"910 858 CURVE",
"841 979 OFFCURVE",
"704 1047 OFFCURVE",
"551 1047 CURVE SMOOTH",
"262 1047 OFFCURVE",
"84 867 OFFCURVE",
"84 512 CURVE SMOOTH",
"84 158 OFFCURVE",
"262 -24 OFFCURVE",
"551 -24 CURVE SMOOTH"
);
},
{
closed = 1;
nodes = (
"349 133 OFFCURVE",
"311 325 OFFCURVE",
"311 512 CURVE SMOOTH",
"311 699 OFFCURVE",
"349 890 OFFCURVE",
"551 890 CURVE SMOOTH",
"753 890 OFFCURVE",
"791 699 OFFCURVE",
"791 512 CURVE SMOOTH",
"791 325 OFFCURVE",
"753 133 OFFCURVE",
"551 133 CURVE SMOOTH"
);
},
{
closed = 1;
nodes = (
"1022 712 OFFCURVE",
"1069 889 OFFCURVE",
"1249 889 CURVE SMOOTH",
"1406 889 OFFCURVE",
"1465 794 OFFCURVE",
"1465 609 CURVE",
"1019 609 LINE"
);
}
);
userData = {
com.typemytype.robofont.layerData = {
};
};
vertWidth = 0;
width = 2141;
},
{
anchors = (
{
name = ogonek;
position = "{1716, 0}";
}
);
layerId = "E322F6D1-BA90-436B-BB35-51D9BD3EA9D1";
paths = (
{
closed = 1;
nodes = (
"733 -24 OFFCURVE",
"860 77 OFFCURVE",
"920 242 CURVE",
"990 81 OFFCURVE",
"1113 -24 OFFCURVE",
"1308 -24 CURVE SMOOTH",
"1465 -23 OFFCURVE",
"1632 65 OFFCURVE",
"1679 243 CURVE",
"1577 266 LINE",
"1542 155 OFFCURVE",
"1445 73 OFFCURVE",
"1305 73 CURVE SMOOTH",
"1090 73 OFFCURVE",
"994 266 OFFCURVE",
"994 503 CURVE",
"1700 503 LINE",
"1702 520 OFFCURVE",
"1703 552 OFFCURVE",
"1703 561 CURVE SMOOTH",
"1703 833 OFFCURVE",
"1583 1044 OFFCURVE",
"1298 1044 CURVE SMOOTH",
"1118 1044 OFFCURVE",
"979 930 OFFCURVE",
"919 775 CURVE",
"865 940 OFFCURVE",
"732 1044 OFFCURVE",
"559 1044 CURVE SMOOTH",
"296 1044 OFFCURVE",
"121 859 OFFCURVE",
"121 510 CURVE SMOOTH",
"121 160 OFFCURVE",
"296 -24 OFFCURVE",
"559 -24 CURVE SMOOTH"
);
},
{
closed = 1;
nodes = (
"322 72 OFFCURVE",
"259 297 OFFCURVE",
"259 510 CURVE SMOOTH",
"259 723 OFFCURVE",
"322 948 OFFCURVE",
"559 948 CURVE SMOOTH",
"795 948 OFFCURVE",
"858 723 OFFCURVE",
"858 510 CURVE SMOOTH",
"858 297 OFFCURVE",
"795 72 OFFCURVE",
"559 72 CURVE SMOOTH"
);
},
{
closed = 1;
nodes = (
"1011 788 OFFCURVE",
"1110 947 OFFCURVE",
"1297 947 CURVE SMOOTH",
"1496 947 OFFCURVE",
"1574 810 OFFCURVE",
"1577 593 CURVE",
"994 593 LINE"
);
}
);
userData = {
com.typemytype.robofont.layerData = {
b = {
anchors = (
);
components = (
);
contours = (
);
lib = {
};
name = oe;
unicodes = (
);
width = 2100;
};
};
};
vertWidth = 0;
width = 2100;
}
);
unicode = 0153;
},
{
glyphname = p;
layers = (
{
layerId = "8E6A00A3-5EF9-4E6D-9A7B-9C1BBC7D44AD";
paths = (
{
closed = 1;
nodes = (
"296 -358 LINE",
"296 124 LINE",
"358 32 OFFCURVE",
"457 -24 OFFCURVE",
"599 -24 CURVE SMOOTH",
"870 -24 OFFCURVE",
"1023 182 OFFCURVE",
"1023 510 CURVE SMOOTH",
"1023 861 OFFCURVE",
"853 1045 OFFCURVE",
"599 1045 CURVE SMOOTH",
"456 1045 OFFCURVE",
"352 975 OFFCURVE",
"289 863 CURVE",
"274 1023 LINE",
"126 1023 LINE",
"126 -358 LINE"
);
},
{
closed = 1;
nodes = (
"367 97 OFFCURVE",
"296 222 OFFCURVE",
"296 534 CURVE SMOOTH",
"299 824 OFFCURVE",
"428 925 OFFCURVE",
"589 925 CURVE SMOOTH",
"761 925 OFFCURVE",
"849 779 OFFCURVE",
"849 516 CURVE SMOOTH",
"849 239 OFFCURVE",
"764 97 OFFCURVE",
"590 97 CURVE SMOOTH"
);
}
);
userData = {
anchors = (
);
b = {
};
com.typemytype.robofont.layerData = {
};
components = (
);
contours = (
);
lib = {
};
name = p;
unicodes = (
);
width = "1082";
};
vertWidth = 0;
width = 1118;
},
{
anchors = (
{
name = top;
position = "{613, 1023}";
}
);
layerId = "8DE4C137-4DC6-43A7-909D-C9F8072E6A1C";
paths = (
{
closed = 1;
nodes = (
"323 -366 LINE",
"323 107 LINE",
"388 24 OFFCURVE",
"487 -24 OFFCURVE",
"618 -24 CURVE SMOOTH",
"897 -24 OFFCURVE",
"1054 173 OFFCURVE",
"1054 517 CURVE SMOOTH",
"1054 866 OFFCURVE",
"876 1046 OFFCURVE",
"617 1046 CURVE SMOOTH",
"477 1046 OFFCURVE",
"375 977 OFFCURVE",
"312 876 CURVE",
"298 1023 LINE",
"125 1023 LINE",
"125 -366 LINE"
);
},
{
closed = 1;
nodes = (
"376 116 OFFCURVE",
"323 257 OFFCURVE",
"323 526 CURVE SMOOTH",
"324 831 OFFCURVE",
"465 906 OFFCURVE",
"605 906 CURVE SMOOTH",
"772 906 OFFCURVE",
"852 767 OFFCURVE",
"852 517 CURVE SMOOTH",
"852 249 OFFCURVE",
"777 116 OFFCURVE",
"605 116 CURVE SMOOTH"
);
}
);
userData = {
anchors = (
);
b = {
};
com.typemytype.robofont.layerData = {
};
components = (
);
contours = (
);
lib = {
};
name = p;
unicodes = (
);
width = "1082";
};
vertWidth = 0;
width = 1145;
},
{
anchors = (
{
name = bot;
position = "{584, 0}";
},
{
name = top;
position = "{584, 1023}";
}
);
layerId = "28683A17-BAD2-44EA-B42B-E882FFDD4FE1";
paths = (
{
closed = 1;
nodes = (
"346 -373 LINE",
"346 93 LINE",
"414 17 OFFCURVE",
"513 -24 OFFCURVE",
"634 -24 CURVE SMOOTH",
"920 -24 OFFCURVE",
"1082 166 OFFCURVE",
"1082 524 CURVE SMOOTH",
"1082 870 OFFCURVE",
"897 1047 OFFCURVE",
"633 1047 CURVE SMOOTH",
"495 1047 OFFCURVE",
"396 979 OFFCURVE",
"333 887 CURVE",
"319 1023 LINE",
"123 1023 LINE",
"123 -373 LINE"
);
},
{
closed = 1;
nodes = (
"383 133 OFFCURVE",
"346 288 OFFCURVE",
"346 519 CURVE SMOOTH",
"345 836 OFFCURVE",
"497 890 OFFCURVE",
"619 890 CURVE SMOOTH",
"782 890 OFFCURVE",
"854 757 OFFCURVE",
"854 519 CURVE SMOOTH",
"854 258 OFFCURVE",
"789 133 OFFCURVE",
"617 133 CURVE SMOOTH"
);
}
);
userData = {
anchors = (
);
b = {
};
com.typemytype.robofont.layerData = {
};
components = (
);
contours = (
);
lib = {
};
name = p;
unicodes = (
);
width = "1082";
};
vertWidth = 0;
width = 1168;
},
{
anchors = (
{
name = top;
position = "{542, 1023}";
}
);
layerId = "E322F6D1-BA90-436B-BB35-51D9BD3EA9D1";
paths = (
{
closed = 1;
nodes = (
"263 -348 LINE",
"263 145 LINE",
"321 42 OFFCURVE",
"420 -24 OFFCURVE",
"576 -24 CURVE SMOOTH",
"837 -24 OFFCURVE",
"983 192 OFFCURVE",
"983 500 CURVE SMOOTH",
"983 855 OFFCURVE",
"823 1044 OFFCURVE",
"577 1044 CURVE SMOOTH",
"431 1044 OFFCURVE",
"322 973 OFFCURVE",
"259 847 CURVE",
"244 1023 LINE",
"128 1023 LINE",
"128 -348 LINE"
);
},
{
closed = 1;
nodes = (
"356 72 OFFCURVE",
"262 178 OFFCURVE",
"262 544 CURVE",
"269 816 OFFCURVE",
"383 948 OFFCURVE",
"569 948 CURVE SMOOTH",
"747 948 OFFCURVE",
"846 794 OFFCURVE",
"846 514 CURVE SMOOTH",
"846 227 OFFCURVE",
"748 72 OFFCURVE",
"572 72 CURVE SMOOTH"
);
}
);
userData = {
anchors = (
);
b = {
};
com.typemytype.robofont.layerData = {
b = {
anchors = (
);
components = (
);
contours = (
);
lib = {
};
name = p;
unicodes = (
);
width = 1084;
};
};
components = (
);
contours = (
);
lib = {
};
name = p;
unicodes = (
);
width = "1082";
};
vertWidth = 0;
width = 1084;
}
);
unicode = 0070;
},
{
glyphname = thorn;
layers = (
{
layerId = "8E6A00A3-5EF9-4E6D-9A7B-9C1BBC7D44AD";
paths = (
{
closed = 1;
nodes = (
"281 -376 LINE",
"281 142 LINE",
"337 45 OFFCURVE",
"429 -24 OFFCURVE",
"580 -24 CURVE SMOOTH",
"831 -24 OFFCURVE",
"986 217 OFFCURVE",
"986 520 CURVE SMOOTH",
"986 824 OFFCURVE",
"855 1045 OFFCURVE",
"576 1045 CURVE SMOOTH",
"434 1045 OFFCURVE",
"335 979 OFFCURVE",
"280 873 CURVE",
"280 1464 LINE",
"111 1464 LINE",
"111 -394 LINE"
);
},
{
closed = 1;
nodes = (
"372.943 98 OFFCURVE",
"280.994 269.832 OFFCURVE",
"280.994 522.358 CURVE SMOOTH",
"280.994 807.671 OFFCURVE",
"407.487 923.006 OFFCURVE",
"555.093 923.006 CURVE SMOOTH",
"700.894 923.006 OFFCURVE",
"811 798.592 OFFCURVE",
"811 521 CURVE SMOOTH",
"811 263 OFFCURVE",
"729 98 OFFCURVE",
"564 98 CURVE SMOOTH"
);
}
);
userData = {
anchors = (
);
b = {
};
com.typemytype.robofont.layerData = {
};
components = (
);
contours = (
);
lib = {
};
name = thorn;
unicodes = (
);
width = "1058";
};
vertWidth = 0;
width = 1058;
},
{
layerId = "8DE4C137-4DC6-43A7-909D-C9F8072E6A1C";
paths = (
{
closed = 1;
nodes = (
"290 -373 LINE",
"290 110 LINE",
"346 38 OFFCURVE",
"442 -24 OFFCURVE",
"585 -24 CURVE SMOOTH",
"846 -24 OFFCURVE",
"1005 217 OFFCURVE",
"1005 520 CURVE SMOOTH",
"1005 836 OFFCURVE",
"862 1046 OFFCURVE",
"579 1046 CURVE SMOOTH",
"437 1046 OFFCURVE",
"346 986 OFFCURVE",
"289 912 CURVE",
"289 1464 LINE",
"92 1464 LINE",
"92 -394 LINE"
);
},
{
closed = 1;
nodes = (
"392.837 118 OFFCURVE",
"289.95 248.506 OFFCURVE",
"289.95 528.707 CURVE SMOOTH",
"289.95 812.021 OFFCURVE",
"418.749 904.031 OFFCURVE",
"552.7 904.031 CURVE SMOOTH",
"693.732 904.031 OFFCURVE",
"801 788.259 OFFCURVE",
"801 521 CURVE SMOOTH",
"801 283 OFFCURVE",
"734 118 OFFCURVE",
"569 118 CURVE SMOOTH"
);
}
);
userData = {
anchors = (
);
b = {
};
com.typemytype.robofont.layerData = {
};
components = (
);
contours = (
);
lib = {
};
name = thorn;
unicodes = (
);
width = "1058";
};
vertWidth = 0;
width = 1058;
},
{
layerId = "28683A17-BAD2-44EA-B42B-E882FFDD4FE1";
paths = (
{
closed = 1;
nodes = (
"297 -371 LINE",
"297 82 LINE",
"355 31 OFFCURVE",
"453 -24 OFFCURVE",
"589 -24 CURVE SMOOTH",
"858 -24 OFFCURVE",
"1021 217 OFFCURVE",
"1021 520 CURVE SMOOTH",
"1021 847 OFFCURVE",
"869 1047 OFFCURVE",
"581 1047 CURVE SMOOTH",
"439 1047 OFFCURVE",
"355 993 OFFCURVE",
"296 947 CURVE",
"296 1464 LINE",
"75 1464 LINE",
"75 -394 LINE"
);
},
{
closed = 1;
nodes = (
"415 136 OFFCURVE",
"301 220 OFFCURVE",
"297 519 CURVE SMOOTH",
"294 818 OFFCURVE",
"431 890 OFFCURVE",
"557 888 CURVE SMOOTH",
"687 886 OFFCURVE",
"792 776 OFFCURVE",
"792 521 CURVE SMOOTH",
"792 301 OFFCURVE",
"738 136 OFFCURVE",
"573 136 CURVE SMOOTH"
);
}
);
userData = {
anchors = (
);
b = {
};
com.typemytype.robofont.layerData = {
};
components = (
);
contours = (
);
lib = {
};
name = thorn;
unicodes = (
);
width = "1058";
};
vertWidth = 0;
width = 1058;
},
{
layerId = "E322F6D1-BA90-436B-BB35-51D9BD3EA9D1";
paths = (
{
closed = 1;
nodes = (
"271 -379 LINE",
"271 182 LINE",
"325 54 OFFCURVE",
"414 -24 OFFCURVE",
"575 -24 CURVE SMOOTH",
"813 -24 OFFCURVE",
"962 217 OFFCURVE",
"962 520 CURVE SMOOTH",
"962 809 OFFCURVE",
"846 1044 OFFCURVE",
"572 1044 CURVE SMOOTH",
"430 1044 OFFCURVE",
"322 970 OFFCURVE",
"270 824 CURVE",
"270 1464 LINE",
"136 1464 LINE",
"136 -394 LINE"
);
},
{
closed = 1;
nodes = (
"345 73 OFFCURVE",
"271 300 OFFCURVE",
"271 519 CURVE SMOOTH",
"271 802 OFFCURVE",
"393 947 OFFCURVE",
"557 947 CURVE SMOOTH",
"710 947 OFFCURVE",
"824 813 OFFCURVE",
"824 521 CURVE SMOOTH",
"824 238 OFFCURVE",
"723 73 OFFCURVE",
"558 73 CURVE SMOOTH"
);
}
);
userData = {
anchors = (
);
b = {
};
com.typemytype.robofont.layerData = {
b = {
anchors = (
);
components = (
);
contours = (
);
lib = {
};
name = thorn;
unicodes = (
);
width = 1058;
};
};
components = (
);
contours = (
);
lib = {
};
name = thorn;
unicodes = (
);
width = "1058";
};
vertWidth = 0;
width = 1058;
}
);
unicode = 00FE;
},
{
glyphname = q;
layers = (
{
layerId = "8E6A00A3-5EF9-4E6D-9A7B-9C1BBC7D44AD";
paths = (
{
closed = 1;
nodes = (
"991 -350 LINE",
"991 1023 LINE",
"844 1023 LINE",
"829 863 LINE",
"766 975 OFFCURVE",
"661 1045 OFFCURVE",
"519 1045 CURVE SMOOTH",
"265 1045 OFFCURVE",
"95 861 OFFCURVE",
"95 510 CURVE SMOOTH",
"95 182 OFFCURVE",
"247 -24 OFFCURVE",
"518 -24 CURVE SMOOTH",
"661 -24 OFFCURVE",
"760 32 OFFCURVE",
"821 124 CURVE",
"821 -350 LINE"
);
},
{
closed = 1;
nodes = (
"354 97 OFFCURVE",
"268 239 OFFCURVE",
"268 516 CURVE SMOOTH",
"268 779 OFFCURVE",
"357 925 OFFCURVE",
"529 925 CURVE SMOOTH",
"694 925 OFFCURVE",
"822 829 OFFCURVE",
"822 503 CURVE SMOOTH",
"822 228 OFFCURVE",
"749 97 OFFCURVE",
"527 97 CURVE SMOOTH"
);
}
);
userData = {
anchors = (
);
b = {
};
com.typemytype.robofont.layerData = {
};
components = (
);
contours = (
);
lib = {
};
name = p;
unicodes = (
);
width = "1082";
};
vertWidth = 0;
width = 1116;
},
{
layerId = "8DE4C137-4DC6-43A7-909D-C9F8072E6A1C";
paths = (
{
closed = 1;
nodes = (
"1020 -350 LINE",
"1020 1023 LINE",
"847 1023 LINE",
"832 876 LINE",
"769 977 OFFCURVE",
"668 1046 OFFCURVE",
"528 1046 CURVE SMOOTH",
"268 1046 OFFCURVE",
"90 866 OFFCURVE",
"90 517 CURVE SMOOTH",
"90 173 OFFCURVE",
"248 -24 OFFCURVE",
"527 -24 CURVE SMOOTH",
"658 -24 OFFCURVE",
"757 24 OFFCURVE",
"822 107 CURVE",
"822 -350 LINE"
);
},
{
closed = 1;
nodes = (
"367 116 OFFCURVE",
"293 249 OFFCURVE",
"293 517 CURVE SMOOTH",
"293 767 OFFCURVE",
"372 906 OFFCURVE",
"540 906 CURVE SMOOTH",
"681 906 OFFCURVE",
"822 832 OFFCURVE",
"822 516 CURVE SMOOTH",
"822 259 OFFCURVE",
"768 116 OFFCURVE",
"540 116 CURVE SMOOTH"
);
}
);
userData = {
anchors = (
);
b = {
};
com.typemytype.robofont.layerData = {
};
components = (
);
contours = (
);
lib = {
};
name = p;
unicodes = (
);
width = "1082";
};
vertWidth = 0;
width = 1142;
},
{
layerId = "28683A17-BAD2-44EA-B42B-E882FFDD4FE1";
paths = (
{
closed = 1;
nodes = (
"1045 -350 LINE",
"1045 1023 LINE",
"849 1023 LINE",
"835 887 LINE",
"772 979 OFFCURVE",
"673 1047 OFFCURVE",
"535 1047 CURVE SMOOTH",
"271 1047 OFFCURVE",
"86 870 OFFCURVE",
"86 524 CURVE SMOOTH",
"86 166 OFFCURVE",
"248 -24 OFFCURVE",
"534 -24 CURVE SMOOTH",
"655 -24 OFFCURVE",
"754 17 OFFCURVE",
"822 93 CURVE",
"822 -350 LINE"
);
},
{
closed = 1;
nodes = (
"379 133 OFFCURVE",
"314 258 OFFCURVE",
"314 519 CURVE SMOOTH",
"314 757 OFFCURVE",
"386 890 OFFCURVE",
"549 890 CURVE SMOOTH",
"670 890 OFFCURVE",
"822 835 OFFCURVE",
"822 527 CURVE SMOOTH",
"822 287 OFFCURVE",
"785 133 OFFCURVE",
"551 133 CURVE SMOOTH"
);
}
);
userData = {
anchors = (
);
b = {
};
com.typemytype.robofont.layerData = {
};
components = (
);
contours = (
);
lib = {
};
name = p;
unicodes = (
);
width = "1082";
};
vertWidth = 0;
width = 1165;
},
{
layerId = "E322F6D1-BA90-436B-BB35-51D9BD3EA9D1";
paths = (
{
closed = 1;
nodes = (
"956 -350 LINE",
"956 1023 LINE",
"840 1023 LINE",
"825 847 LINE",
"762 973 OFFCURVE",
"653 1044 OFFCURVE",
"508 1044 CURVE SMOOTH",
"261 1044 OFFCURVE",
"101 855 OFFCURVE",
"101 500 CURVE SMOOTH",
"101 192 OFFCURVE",
"247 -24 OFFCURVE",
"508 -24 CURVE SMOOTH",
"665 -24 OFFCURVE",
"764 42 OFFCURVE",
"821 145 CURVE",
"821 -350 LINE"
);
},
{
closed = 1;
nodes = (
"337 72 OFFCURVE",
"238 227 OFFCURVE",
"238 514 CURVE SMOOTH",
"238 794 OFFCURVE",
"337 948 OFFCURVE",
"515 948 CURVE SMOOTH",
"710 948 OFFCURVE",
"822 825 OFFCURVE",
"822 487 CURVE SMOOTH",
"822 189 OFFCURVE",
"724 72 OFFCURVE",
"512 72 CURVE SMOOTH"
);
}
);
userData = {
anchors = (
);
b = {
};
com.typemytype.robofont.layerData = {
b = {
anchors = (
);
components = (
);
contours = (
);
lib = {
};
name = q;
unicodes = (
);
width = 1084;
};
};
components = (
);
contours = (
);
lib = {
};
name = p;
unicodes = (
);
width = "1082";
};
vertWidth = 0;
width = 1084;
}
);
unicode = 0071;
},
{
glyphname = r;
layers = (
{
anchors = (
{
name = top;
position = "{386, 1023}";
}
);
layerId = "8E6A00A3-5EF9-4E6D-9A7B-9C1BBC7D44AD";
paths = (
{
closed = 1;
nodes = (
"296 0 LINE",
"295 534 LINE",
"299 715 OFFCURVE",
"382 881 OFFCURVE",
"601 881 CURVE",
"601 1031 LINE",
"468 1031 OFFCURVE",
"364 974 OFFCURVE",
"295 845 CURVE",
"295 1023 LINE",
"126 1023 LINE",
"126 0 LINE"
);
}
);
userData = {
anchors = (
);
b = {
};
com.typemytype.robofont.layerData = {
};
components = (
);
contours = {
};
lib = {
};
name = r;
points = {
};
segmentType = line;
unicodes = (
);
width = "626";
x = "127";
y = "1023";
};
vertWidth = 0;
width = 651;
},
{
anchors = (
{
name = top;
position = "{334, 1023}";
}
);
layerId = "8DE4C137-4DC6-43A7-909D-C9F8072E6A1C";
paths = (
{
closed = 1;
nodes = (
"321 0 LINE",
"321 513 LINE",
"322 696 OFFCURVE",
"405 858 OFFCURVE",
"624 858 CURVE",
"624 1034 LINE",
"493 1034 OFFCURVE",
"392 981 OFFCURVE",
"321 858 CURVE",
"321 1023 LINE",
"123 1023 LINE",
"123 0 LINE"
);
}
);
userData = {
anchors = (
);
b = {
};
com.typemytype.robofont.layerData = {
};
components = (
);
contours = {
};
lib = {
};
name = r;
points = {
};
segmentType = line;
unicodes = (
);
width = "626";
x = "127";
y = "1023";
};
vertWidth = 0;
width = 668;
},
{
anchors = (
{
name = bot;
position = "{341, 0}";
},
{
name = top;
position = "{341, 1023}";
}
);
layerId = "28683A17-BAD2-44EA-B42B-E882FFDD4FE1";
paths = (
{
closed = 1;
nodes = (
"344 0 LINE",
"344 494 LINE",
"343 680 OFFCURVE",
"426 839 OFFCURVE",
"645 839 CURVE",
"645 1036 LINE",
"516 1036 OFFCURVE",
"417 987 OFFCURVE",
"344 870 CURVE",
"344 1023 LINE",
"121 1023 LINE",
"121 0 LINE"
);
}
);
userData = {
anchors = (
);
b = {
};
com.typemytype.robofont.layerData = {
};
components = (
);
contours = {
};
lib = {
};
name = r;
points = {
};
segmentType = line;
unicodes = (
);
width = "626";
x = "127";
y = "1023";
};
vertWidth = 0;
width = 682;
},
{
anchors = (
{
name = top;
position = "{315, 1023}";
}
);
layerId = "E322F6D1-BA90-436B-BB35-51D9BD3EA9D1";
paths = (
{
closed = 1;
nodes = (
"264 0 LINE",
"263 561 LINE",
"270 738 OFFCURVE",
"353 909 OFFCURVE",
"572 909 CURVE",
"572 1028 LINE",
"436 1028 OFFCURVE",
"329 965 OFFCURVE",
"263 829 CURVE",
"263 1023 LINE",
"129 1023 LINE",
"129 0 LINE"
);
}
);
userData = {
anchors = (
);
b = {
};
com.typemytype.robofont.layerData = {
b = {
anchors = (
);
components = (
);
contours = (
);
lib = {
};
name = r;
unicodes = (
);
width = 630;
};
};
components = (
);
contours = {
};
lib = {
};
name = r;
points = {
};
segmentType = line;
unicodes = (
);
width = "626";
x = "127";
y = "1023";
};
vertWidth = 0;
width = 630;
}
);
unicode = 0072;
},
